NotoSerifBengali-Light.ufo
<glyph name="exclam" format="2">
  <advance width="283"/>
  <unicode hex="0021"/>
  <outline>
    <contour>
      <point x="138" y="167" type="line"/>
      <point x="158" y="167" type="line"/>
      <point x="161" y="714" type="line"/>
      <point x="133" y="714" type="line"/>
    </contour>
    <contour>
      <point x="146" y="-5" type="curve" smooth="yes"/>
      <point x="162" y="-5"/>
      <point x="175" y="4"/>
      <point x="175" y="35" type="curve" smooth="yes"/>
      <point x="175" y="65"/>
      <point x="162" y="73"/>
      <point x="146" y="73" type="curve" smooth="yes"/>
      <point x="131" y="73"/>
      <point x="117" y="65"/>
      <point x="117" y="35" type="curve" smooth="yes"/>
      <point x="117" y="4"/>
      <point x="131" y="-5"/>
    </contour>
  </outline>
</glyph>
<glyph name="quotedbl" format="2">
  <advance width="280"/>
  <unicode hex="0022"/>
  <outline>
    <contour>
      <point x="205" y="529" type="line"/>
      <point x="225" y="529" type="line"/>
      <point x="235" y="714" type="line"/>
      <point x="193" y="714" type="line"/>
    </contour>
    <contour>
      <point x="57" y="529" type="line"/>
      <point x="77" y="529" type="line"/>
      <point x="87" y="714" type="line"/>
      <point x="45" y="714" type="line"/>
    </contour>
  </outline>
</glyph>
<glyph name="parenleft" format="2">
  <advance width="306"/>
  <unicode hex="0028"/>
  <outline>
    <contour>
      <point x="228" y="-114" type="curve"/>
      <point x="228" y="-90" type="line"/>
      <point x="78" y="-21"/>
      <point x="67" y="156"/>
      <point x="67" y="315" type="curve" smooth="yes"/>
      <point x="67" y="474"/>
      <point x="75" y="659"/>
      <point x="228" y="719" type="curve"/>
      <point x="228" y="744" type="line"/>
      <point x="94" y="693"/>
      <point x="39" y="587"/>
      <point x="39" y="315" type="curve" smooth="yes"/>
      <point x="39" y="44"/>
      <point x="94" y="-61"/>
    </contour>
  </outline>
</glyph>
<glyph name="parenright" format="2">
  <advance width="365"/>
  <unicode hex="0029"/>
  <outline>
    <contour>
      <point x="137" y="-114" type="line"/>
      <point x="271" y="-61"/>
      <point x="326" y="44"/>
      <point x="326" y="315" type="curve" smooth="yes"/>
      <point x="326" y="587"/>
      <point x="271" y="693"/>
      <point x="137" y="744" type="curve"/>
      <point x="137" y="719" type="line"/>
      <point x="290" y="659"/>
      <point x="297" y="474"/>
      <point x="297" y="315" type="curve" smooth="yes"/>
      <point x="297" y="156"/>
      <point x="287" y="-21"/>
      <point x="137" y="-90" type="curve"/>
    </contour>
  </outline>
</glyph>
<glyph name="plus" format="2">
  <advance width="559"/>
  <unicode hex="002B"/>
  <outline>
    <contour>
      <point x="265" y="143" type="line"/>
      <point x="293" y="143" type="line"/>
      <point x="293" y="343" type="line"/>
      <point x="494" y="343" type="line"/>
      <point x="494" y="371" type="line"/>
      <point x="293" y="371" type="line"/>
      <point x="293" y="572" type="line"/>
      <point x="265" y="572" type="line"/>
      <point x="265" y="371" type="line"/>
      <point x="65" y="371" type="line"/>
      <point x="65" y="343" type="line"/>
      <point x="265" y="343" type="line"/>
    </contour>
  </outline>
</glyph>
<glyph name="comma" format="2">
  <advance width="259"/>
  <unicode hex="002C"/>
  <outline>
    <contour>
      <point x="78" y="-154" type="line"/>
      <point x="159" y="-127"/>
      <point x="190" y="-67"/>
      <point x="190" y="0" type="curve" smooth="yes"/>
      <point x="190" y="52"/>
      <point x="167" y="73"/>
      <point x="139" y="73" type="curve" smooth="yes"/>
      <point x="120" y="73"/>
      <point x="112" y="60"/>
      <point x="112" y="42" type="curve" smooth="yes"/>
      <point x="112" y="17"/>
      <point x="159" y="4"/>
      <point x="159" y="-30" type="curve" smooth="yes"/>
      <point x="159" y="-61"/>
      <point x="137" y="-115"/>
      <point x="78" y="-132" type="curve"/>
    </contour>
  </outline>
</glyph>
<glyph name="period" format="2">
  <advance width="239"/>
  <unicode hex="002E"/>
  <outline>
    <contour>
      <point x="146" y="-5" type="curve" smooth="yes"/>
      <point x="162" y="-5"/>
      <point x="175" y="4"/>
      <point x="175" y="35" type="curve" smooth="yes"/>
      <point x="175" y="65"/>
      <point x="162" y="73"/>
      <point x="146" y="73" type="curve" smooth="yes"/>
      <point x="131" y="73"/>
      <point x="117" y="65"/>
      <point x="117" y="35" type="curve" smooth="yes"/>
      <point x="117" y="4"/>
      <point x="131" y="-5"/>
    </contour>
  </outline>
</glyph>
<glyph name="one" format="2">
  <advance width="559"/>
  <unicode hex="0031"/>
  <outline>
    <contour>
      <point x="126" y="0" type="line"/>
      <point x="467" y="0" type="line"/>
      <point x="467" y="22" type="line"/>
      <point x="368" y="22" type="line" smooth="yes"/>
      <point x="318" y="22"/>
      <point x="312" y="31"/>
      <point x="312" y="108" type="curve" smooth="yes"/>
      <point x="312" y="718" type="line"/>
      <point x="292" y="718" type="line"/>
      <point x="261" y="682" type="line" smooth="yes"/>
      <point x="207" y="619"/>
      <point x="157" y="583"/>
      <point x="88" y="578" type="curve"/>
      <point x="88" y="567"/>
      <point x="96" y="558"/>
      <point x="120" y="558" type="curve" smooth="yes"/>
      <point x="167" y="558"/>
      <point x="217" y="588"/>
      <point x="284" y="675" type="curve"/>
      <point x="284" y="108" type="line" smooth="yes"/>
      <point x="284" y="31"/>
      <point x="278" y="22"/>
      <point x="228" y="22" type="curve" smooth="yes"/>
      <point x="126" y="22" type="line"/>
    </contour>
  </outline>
</glyph>
<glyph name="two" format="2">
  <advance width="559"/>
  <unicode hex="0032"/>
  <outline>
    <contour>
      <point x="57" y="0" type="line"/>
      <point x="469" y="0" type="line"/>
      <point x="474" y="127" type="line"/>
      <point x="454" y="127" type="line"/>
      <point x="452" y="95" type="line" smooth="yes"/>
      <point x="449" y="39"/>
      <point x="443" y="25"/>
      <point x="391" y="25" type="curve" smooth="yes"/>
      <point x="92" y="25" type="line"/>
      <point x="289" y="249" type="line" smooth="yes"/>
      <point x="396" y="371"/>
      <point x="445" y="428"/>
      <point x="445" y="541" type="curve" smooth="yes"/>
      <point x="445" y="634"/>
      <point x="390" y="724"/>
      <point x="254" y="724" type="curve" smooth="yes"/>
      <point x="132" y="724"/>
      <point x="76" y="650"/>
      <point x="76" y="602" type="curve" smooth="yes"/>
      <point x="76" y="578"/>
      <point x="85" y="564"/>
      <point x="99" y="564" type="curve"/>
      <point x="99" y="649"/>
      <point x="156" y="699"/>
      <point x="254" y="699" type="curve" smooth="yes"/>
      <point x="378" y="699"/>
      <point x="417" y="612"/>
      <point x="417" y="539" type="curve" smooth="yes"/>
      <point x="417" y="439"/>
      <point x="372" y="382"/>
      <point x="259" y="253" type="curve" smooth="yes"/>
      <point x="57" y="22" type="line"/>
    </contour>
  </outline>
</glyph>
<glyph name="three" format="2">
  <advance width="559"/>
  <unicode hex="0033"/>
  <outline>
    <contour>
      <point x="254" y="-9" type="curve" smooth="yes"/>
      <point x="373" y="-9"/>
      <point x="467" y="58"/>
      <point x="467" y="188" type="curve" smooth="yes"/>
      <point x="467" y="322"/>
      <point x="372" y="368"/>
      <point x="291" y="376" type="curve"/>
      <point x="361" y="394"/>
      <point x="442" y="438"/>
      <point x="442" y="556" type="curve" smooth="yes"/>
      <point x="442" y="659"/>
      <point x="374" y="724"/>
      <point x="263" y="724" type="curve" smooth="yes"/>
      <point x="144" y="724"/>
      <point x="88" y="656"/>
      <point x="88" y="604" type="curve" smooth="yes"/>
      <point x="88" y="583"/>
      <point x="95" y="569"/>
      <point x="109" y="569" type="curve"/>
      <point x="110" y="651"/>
      <point x="168" y="699"/>
      <point x="262" y="699" type="curve" smooth="yes"/>
      <point x="355" y="699"/>
      <point x="414" y="647"/>
      <point x="414" y="557" type="curve" smooth="yes"/>
      <point x="414" y="448"/>
      <point x="334" y="387"/>
      <point x="219" y="387" type="curve" smooth="yes"/>
      <point x="198" y="387" type="line"/>
      <point x="198" y="362" type="line"/>
      <point x="221" y="362" type="line" smooth="yes"/>
      <point x="370" y="362"/>
      <point x="439" y="300"/>
      <point x="439" y="189" type="curve" smooth="yes"/>
      <point x="439" y="76"/>
      <point x="362" y="16"/>
      <point x="252" y="16" type="curve" smooth="yes"/>
      <point x="136" y="16"/>
      <point x="89" y="65"/>
      <point x="89" y="136" type="curve"/>
      <point x="78" y="136"/>
      <point x="66" y="128"/>
      <point x="66" y="102" type="curve" smooth="yes"/>
      <point x="66" y="48"/>
      <point x="124" y="-9"/>
    </contour>
  </outline>
</glyph>
<glyph name="five" format="2">
  <advance width="559"/>
  <unicode hex="0035"/>
  <outline>
    <contour>
      <point x="248" y="-10" type="curve" smooth="yes"/>
      <point x="393" y="-10"/>
      <point x="470" y="84"/>
      <point x="470" y="217" type="curve" smooth="yes"/>
      <point x="470" y="354"/>
      <point x="373" y="423"/>
      <point x="262" y="423" type="curve" smooth="yes"/>
      <point x="205" y="423"/>
      <point x="169" y="413"/>
      <point x="136" y="401" type="curve"/>
      <point x="161" y="686" type="line"/>
      <point x="357" y="686" type="line" smooth="yes"/>
      <point x="412" y="686"/>
      <point x="420" y="684"/>
      <point x="422" y="631" type="curve" smooth="yes"/>
      <point x="423" y="603" type="line"/>
      <point x="443" y="603" type="line"/>
      <point x="440" y="714" type="line"/>
      <point x="138" y="714" type="line"/>
      <point x="108" y="373" type="line"/>
      <point x="123" y="369" type="line"/>
      <point x="159" y="387"/>
      <point x="205" y="398"/>
      <point x="260" y="398" type="curve" smooth="yes"/>
      <point x="365" y="398"/>
      <point x="442" y="337"/>
      <point x="442" y="216" type="curve" smooth="yes"/>
      <point x="442" y="93"/>
      <point x="373" y="15"/>
      <point x="247" y="15" type="curve" smooth="yes"/>
      <point x="173" y="15"/>
      <point x="97" y="45"/>
      <point x="97" y="126" type="curve"/>
      <point x="86" y="126"/>
      <point x="74" y="119"/>
      <point x="74" y="93" type="curve" smooth="yes"/>
      <point x="74" y="39"/>
      <point x="141" y="-10"/>
    </contour>
  </outline>
</glyph>
<glyph name="six" format="2">
  <advance width="559"/>
  <unicode hex="0036"/>
  <outline>
    <contour>
      <point x="293" y="-10" type="curve" smooth="yes"/>
      <point x="425" y="-10"/>
      <point x="488" y="83"/>
      <point x="488" y="220" type="curve" smooth="yes"/>
      <point x="488" y="355"/>
      <point x="409" y="427"/>
      <point x="296" y="427" type="curve" smooth="yes"/>
      <point x="217" y="427"/>
      <point x="154" y="392"/>
      <point x="109" y="357" type="curve"/>
      <point x="109" y="596"/>
      <point x="198" y="699"/>
      <point x="321" y="699" type="curve" smooth="yes"/>
      <point x="400" y="699"/>
      <point x="440" y="666"/>
      <point x="440" y="589" type="curve"/>
      <point x="454" y="589"/>
      <point x="462" y="603"/>
      <point x="462" y="624" type="curve" smooth="yes"/>
      <point x="462" y="672"/>
      <point x="423" y="724"/>
      <point x="322" y="724" type="curve" smooth="yes"/>
      <point x="186" y="724"/>
      <point x="81" y="624"/>
      <point x="81" y="338" type="curve" smooth="yes"/>
      <point x="81" y="102"/>
      <point x="161" y="-10"/>
    </contour>
    <contour>
      <point x="296" y="15" type="curve" smooth="yes"/>
      <point x="171" y="15"/>
      <point x="113" y="125"/>
      <point x="109" y="325" type="curve"/>
      <point x="142" y="353"/>
      <point x="205" y="402"/>
      <point x="296" y="402" type="curve" smooth="yes"/>
      <point x="407" y="402"/>
      <point x="460" y="324"/>
      <point x="460" y="221" type="curve" smooth="yes"/>
      <point x="460" y="99"/>
      <point x="408" y="15"/>
    </contour>
  </outline>
</glyph>
<glyph name="eight" format="2">
  <advance width="559"/>
  <unicode hex="0038"/>
  <outline>
    <contour>
      <point x="276" y="-10" type="curve" smooth="yes"/>
      <point x="405" y="-10"/>
      <point x="489" y="50"/>
      <point x="489" y="164" type="curve" smooth="yes"/>
      <point x="489" y="267"/>
      <point x="441" y="317"/>
      <point x="319" y="374" type="curve"/>
      <point x="419" y="417"/>
      <point x="468" y="470"/>
      <point x="468" y="562" type="curve" smooth="yes"/>
      <point x="468" y="653"/>
      <point x="406" y="724"/>
      <point x="281" y="724" type="curve" smooth="yes"/>
      <point x="173" y="724"/>
      <point x="95" y="661"/>
      <point x="95" y="560" type="curve" smooth="yes"/>
      <point x="95" y="463"/>
      <point x="155" y="419"/>
      <point x="249" y="376" type="curve"/>
      <point x="137" y="334"/>
      <point x="70" y="271"/>
      <point x="70" y="169" type="curve" smooth="yes"/>
      <point x="70" y="57"/>
      <point x="138" y="-10"/>
    </contour>
    <contour>
      <point x="277" y="15" type="curve" smooth="yes"/>
      <point x="158" y="15"/>
      <point x="98" y="71"/>
      <point x="98" y="169" type="curve" smooth="yes"/>
      <point x="98" y="254"/>
      <point x="159" y="325"/>
      <point x="284" y="362" type="curve"/>
      <point x="430" y="301"/>
      <point x="461" y="245"/>
      <point x="461" y="164" type="curve" smooth="yes"/>
      <point x="461" y="62"/>
      <point x="387" y="15"/>
    </contour>
    <contour>
      <point x="285" y="387" type="curve"/>
      <point x="179" y="433"/>
      <point x="123" y="469"/>
      <point x="123" y="560" type="curve" smooth="yes"/>
      <point x="123" y="646"/>
      <point x="185" y="699"/>
      <point x="282" y="699" type="curve" smooth="yes"/>
      <point x="397" y="699"/>
      <point x="440" y="631"/>
      <point x="440" y="562" type="curve" smooth="yes"/>
      <point x="440" y="478"/>
      <point x="395" y="427"/>
    </contour>
  </outline>
</glyph>
<glyph name="question" format="2">
  <advance width="415"/>
  <unicode hex="003F"/>
  <outline>
    <contour>
      <point x="183" y="167" type="line"/>
      <point x="205" y="167" type="line"/>
      <point x="208" y="323" type="line"/>
      <point x="317" y="375"/>
      <point x="373" y="441"/>
      <point x="373" y="551" type="curve" smooth="yes"/>
      <point x="373" y="650"/>
      <point x="307" y="724"/>
      <point x="199" y="724" type="curve" smooth="yes"/>
      <point x="72" y="724"/>
      <point x="35" y="646"/>
      <point x="35" y="611" type="curve" smooth="yes"/>
      <point x="35" y="584"/>
      <point x="43" y="569"/>
      <point x="57" y="569" type="curve"/>
      <point x="57" y="629"/>
      <point x="90" y="699"/>
      <point x="201" y="699" type="curve" smooth="yes"/>
      <point x="290" y="699"/>
      <point x="345" y="638"/>
      <point x="345" y="551" type="curve" smooth="yes"/>
      <point x="345" y="448"/>
      <point x="292" y="389"/>
      <point x="180" y="337" type="curve"/>
    </contour>
    <contour>
      <point x="193" y="-5" type="curve" smooth="yes"/>
      <point x="209" y="-5"/>
      <point x="222" y="4"/>
      <point x="222" y="35" type="curve" smooth="yes"/>
      <point x="222" y="65"/>
      <point x="209" y="73"/>
      <point x="193" y="73" type="curve" smooth="yes"/>
      <point x="178" y="73"/>
      <point x="164" y="65"/>
      <point x="164" y="35" type="curve" smooth="yes"/>
      <point x="164" y="4"/>
      <point x="178" y="-5"/>
    </contour>
  </outline>
</glyph>
<glyph name="bracketleft" format="2">
  <advance width="248"/>
  <unicode hex="005B"/>
  <outline>
    <contour>
      <point x="63" y="-128" type="line"/>
      <point x="218" y="-128" type="line"/>
      <point x="218" y="-108" type="line"/>
      <point x="147" y="-108" type="line" smooth="yes"/>
      <point x="97" y="-108"/>
      <point x="91" y="-97"/>
      <point x="91" y="-20" type="curve" smooth="yes"/>
      <point x="91" y="652" type="line" smooth="yes"/>
      <point x="91" y="729"/>
      <point x="97" y="740"/>
      <point x="147" y="740" type="curve" smooth="yes"/>
      <point x="218" y="740" type="line"/>
      <point x="218" y="760" type="line"/>
      <point x="63" y="760" type="line"/>
    </contour>
  </outline>
</glyph>
<glyph name="bracketright" format="2">
  <advance width="345"/>
  <unicode hex="005D"/>
  <outline>
    <contour>
      <point x="127" y="-128" type="line"/>
      <point x="282" y="-128" type="line"/>
      <point x="282" y="760" type="line"/>
      <point x="127" y="760" type="line"/>
      <point x="127" y="740" type="line"/>
      <point x="198" y="740" type="line" smooth="yes"/>
      <point x="248" y="740"/>
      <point x="254" y="729"/>
      <point x="254" y="652" type="curve" smooth="yes"/>
      <point x="254" y="-20" type="line" smooth="yes"/>
      <point x="254" y="-97"/>
      <point x="248" y="-108"/>
      <point x="198" y="-108" type="curve" smooth="yes"/>
      <point x="127" y="-108" type="line"/>
    </contour>
  </outline>
</glyph>
<glyph name="braceright" format="2">
  <advance width="396"/>
  <unicode hex="007D"/>
  <outline>
    <contour>
      <point x="127" y="-132" type="line"/>
      <point x="157" y="-132" type="line" smooth="yes"/>
      <point x="227" y="-132"/>
      <point x="267" y="-78"/>
      <point x="267" y="8" type="curve" smooth="yes"/>
      <point x="267" y="184" type="line" smooth="yes"/>
      <point x="267" y="274"/>
      <point x="319" y="303"/>
      <point x="387" y="306" type="curve"/>
      <point x="387" y="324" type="line"/>
      <point x="319" y="326"/>
      <point x="267" y="356"/>
      <point x="267" y="445" type="curve" smooth="yes"/>
      <point x="267" y="621" type="line" smooth="yes"/>
      <point x="267" y="710"/>
      <point x="227" y="760"/>
      <point x="157" y="760" type="curve" smooth="yes"/>
      <point x="127" y="760" type="line"/>
      <point x="127" y="735" type="line"/>
      <point x="152" y="735" type="line" smooth="yes"/>
      <point x="214" y="735"/>
      <point x="239" y="697"/>
      <point x="239" y="620" type="curve" smooth="yes"/>
      <point x="239" y="443" type="line" smooth="yes"/>
      <point x="239" y="373"/>
      <point x="275" y="324"/>
      <point x="333" y="317" type="curve"/>
      <point x="333" y="315" type="line"/>
      <point x="274" y="307"/>
      <point x="239" y="259"/>
      <point x="239" y="187" type="curve" smooth="yes"/>
      <point x="239" y="6" type="line" smooth="yes"/>
      <point x="239" y="-68"/>
      <point x="214" y="-107"/>
      <point x="157" y="-107" type="curve" smooth="yes"/>
      <point x="127" y="-107" type="line"/>
    </contour>
  </outline>
</glyph>
<glyph name="asciitilde" format="2">
  <advance width="559"/>
  <unicode hex="007E"/>
  <outline>
    <contour>
      <point x="64" y="277" type="curve"/>
      <point x="94" y="277" type="line"/>
      <point x="111" y="363"/>
      <point x="124" y="408"/>
      <point x="173" y="408" type="curve" smooth="yes"/>
      <point x="220" y="408"/>
      <point x="250" y="367"/>
      <point x="277" y="339" type="curve" smooth="yes"/>
      <point x="310" y="304"/>
      <point x="345" y="277"/>
      <point x="386" y="277" type="curve" smooth="yes"/>
      <point x="467" y="277"/>
      <point x="483" y="381"/>
      <point x="494" y="436" type="curve"/>
      <point x="463" y="436" type="line"/>
      <point x="447" y="370"/>
      <point x="437" y="305"/>
      <point x="386" y="305" type="curve" smooth="yes"/>
      <point x="353" y="305"/>
      <point x="322" y="333"/>
      <point x="289" y="367" type="curve" smooth="yes"/>
      <point x="255" y="402"/>
      <point x="223" y="436"/>
      <point x="173" y="436" type="curve" smooth="yes"/>
      <point x="89" y="436"/>
      <point x="79" y="341"/>
    </contour>
  </outline>
</glyph>
<glyph name="multiply" format="2">
  <advance width="559"/>
  <unicode hex="00D7"/>
  <outline>
    <contour>
      <point x="84" y="143" type="line"/>
      <point x="279" y="337" type="line"/>
      <point x="474" y="143" type="line"/>
      <point x="494" y="162" type="line"/>
      <point x="299" y="357" type="line"/>
      <point x="494" y="553" type="line"/>
      <point x="475" y="573" type="line"/>
      <point x="279" y="377" type="line"/>
      <point x="84" y="572" type="line"/>
      <point x="65" y="552" type="line"/>
      <point x="260" y="357" type="line"/>
      <point x="66" y="163" type="line"/>
    </contour>
  </outline>
</glyph>
<glyph name="danda-deva" format="2">
  <advance width="473"/>
  <unicode hex="0964"/>
  <outline>
    <contour>
      <point x="360" y="-10" type="line"/>
      <point x="363" y="-9" type="line"/>
      <point x="363" y="595" type="line"/>
      <point x="343" y="612" type="line"/>
      <point x="340" y="612" type="line"/>
      <point x="340" y="3" type="line"/>
    </contour>
  </outline>
</glyph>
<glyph name="dbldanda-deva" format="2">
  <advance width="625"/>
  <unicode hex="0965"/>
  <outline>
    <contour>
      <point x="512" y="-10" type="line"/>
      <point x="515" y="-9" type="line"/>
      <point x="515" y="595" type="line"/>
      <point x="495" y="612" type="line"/>
      <point x="492" y="612" type="line"/>
      <point x="492" y="3" type="line"/>
    </contour>
    <contour>
      <point x="360" y="-10" type="line"/>
      <point x="363" y="-9" type="line"/>
      <point x="363" y="595" type="line"/>
      <point x="343" y="612" type="line"/>
      <point x="340" y="612" type="line"/>
      <point x="340" y="3" type="line"/>
    </contour>
  </outline>
</glyph>
<glyph name="anji-beng" format="2">
  <advance width="514"/>
  <unicode hex="0980"/>
  <outline>
    <contour>
      <point x="414" y="22" type="curve" smooth="yes"/>
      <point x="436" y="22"/>
      <point x="452" y="37"/>
      <point x="452" y="59" type="curve" smooth="yes"/>
      <point x="452" y="84"/>
      <point x="436" y="98"/>
      <point x="414" y="98" type="curve" smooth="yes"/>
      <point x="391" y="98"/>
      <point x="383" y="86"/>
      <point x="381" y="71" type="curve"/>
      <point x="392" y="69" type="line"/>
      <point x="392" y="506" type="line" smooth="yes"/>
      <point x="392" y="576"/>
      <point x="354" y="626"/>
      <point x="269" y="626" type="curve" smooth="yes"/>
      <point x="164" y="626"/>
      <point x="75" y="547"/>
      <point x="75" y="437" type="curve" smooth="yes"/>
      <point x="75" y="349"/>
      <point x="127" y="286"/>
      <point x="211" y="286" type="curve" smooth="yes"/>
      <point x="253" y="286"/>
      <point x="276" y="307"/>
      <point x="276" y="342" type="curve" smooth="yes"/>
      <point x="276" y="371"/>
      <point x="257" y="391"/>
      <point x="227" y="391" type="curve" smooth="yes"/>
      <point x="200" y="391"/>
      <point x="180" y="371"/>
      <point x="180" y="344" type="curve" smooth="yes"/>
      <point x="180" y="324"/>
      <point x="189" y="309"/>
      <point x="200" y="303" type="curve"/>
      <point x="214" y="315" type="line"/>
      <point x="207" y="312"/>
      <point x="200" y="311"/>
      <point x="194" y="311" type="curve" smooth="yes"/>
      <point x="147" y="311"/>
      <point x="99" y="356"/>
      <point x="99" y="428" type="curve" smooth="yes"/>
      <point x="99" y="536"/>
      <point x="181" y="602"/>
      <point x="275" y="602" type="curve" smooth="yes"/>
      <point x="335" y="602"/>
      <point x="369" y="567"/>
      <point x="369" y="500" type="curve" smooth="yes"/>
      <point x="369" y="71" type="line" smooth="yes"/>
      <point x="369" y="40"/>
      <point x="386" y="22"/>
    </contour>
  </outline>
</glyph>
<glyph name="anusvara-beng" format="2">
  <advance width="411"/>
  <unicode hex="0982"/>
  <outline>
    <contour>
      <point x="201" y="380" type="curve" smooth="yes"/>
      <point x="275" y="380"/>
      <point x="326" y="433"/>
      <point x="326" y="509" type="curve" smooth="yes"/>
      <point x="326" y="578"/>
      <point x="281" y="628"/>
      <point x="209" y="628" type="curve" smooth="yes"/>
      <point x="136" y="628"/>
      <point x="85" y="574"/>
      <point x="85" y="500" type="curve" smooth="yes"/>
      <point x="85" y="432"/>
      <point x="127" y="380"/>
    </contour>
    <contour>
      <point x="193" y="404" type="curve" smooth="yes"/>
      <point x="143" y="404"/>
      <point x="109" y="441"/>
      <point x="109" y="494" type="curve" smooth="yes"/>
      <point x="109" y="553"/>
      <point x="151" y="604"/>
      <point x="218" y="604" type="curve" smooth="yes"/>
      <point x="267" y="604"/>
      <point x="302" y="570"/>
      <point x="302" y="516" type="curve" smooth="yes"/>
      <point x="302" y="455"/>
      <point x="261" y="404"/>
    </contour>
    <contour>
      <point x="338" y="-24" type="curve"/>
      <point x="356" y="-14" type="line"/>
      <point x="300" y="105"/>
      <point x="205" y="204"/>
      <point x="108" y="278" type="curve"/>
      <point x="90" y="253" type="line"/>
      <point x="190" y="191"/>
      <point x="288" y="75"/>
    </contour>
  </outline>
</glyph>
<glyph name="visarga-beng" format="2">
  <advance width="413"/>
  <unicode hex="0983"/>
  <outline>
    <contour>
      <point x="201" y="377" type="curve" smooth="yes"/>
      <point x="276" y="377"/>
      <point x="328" y="430"/>
      <point x="328" y="506" type="curve" smooth="yes"/>
      <point x="328" y="574"/>
      <point x="281" y="624"/>
      <point x="210" y="624" type="curve" smooth="yes"/>
      <point x="136" y="624"/>
      <point x="85" y="570"/>
      <point x="85" y="497" type="curve" smooth="yes"/>
      <point x="85" y="429"/>
      <point x="129" y="377"/>
    </contour>
    <contour>
      <point x="193" y="401" type="curve" smooth="yes"/>
      <point x="143" y="401"/>
      <point x="110" y="438"/>
      <point x="110" y="491" type="curve" smooth="yes"/>
      <point x="110" y="550"/>
      <point x="151" y="601"/>
      <point x="219" y="601" type="curve" smooth="yes"/>
      <point x="268" y="601"/>
      <point x="303" y="566"/>
      <point x="303" y="512" type="curve" smooth="yes"/>
      <point x="303" y="452"/>
      <point x="262" y="401"/>
    </contour>
    <contour>
      <point x="201" y="3" type="curve" smooth="yes"/>
      <point x="276" y="3"/>
      <point x="328" y="56"/>
      <point x="328" y="132" type="curve" smooth="yes"/>
      <point x="328" y="200"/>
      <point x="281" y="250"/>
      <point x="210" y="250" type="curve" smooth="yes"/>
      <point x="136" y="250"/>
      <point x="85" y="196"/>
      <point x="85" y="123" type="curve" smooth="yes"/>
      <point x="85" y="55"/>
      <point x="129" y="3"/>
    </contour>
    <contour>
      <point x="193" y="27" type="curve" smooth="yes"/>
      <point x="143" y="27"/>
      <point x="110" y="64"/>
      <point x="110" y="117" type="curve" smooth="yes"/>
      <point x="110" y="176"/>
      <point x="151" y="227"/>
      <point x="219" y="227" type="curve" smooth="yes"/>
      <point x="268" y="227"/>
      <point x="303" y="192"/>
      <point x="303" y="138" type="curve" smooth="yes"/>
      <point x="303" y="78"/>
      <point x="262" y="27"/>
    </contour>
  </outline>
</glyph>
<glyph name="a-beng" format="2">
  <advance width="762"/>
  <unicode hex="0985"/>
  <anchor x="661" y="-13" name="bottom"/>
  <anchor x="664" y="50" name="bottom.rakaar"/>
  <anchor x="664" y="6" name="bottom.rvocalic"/>
  <anchor x="654" y="0" name="bottom.virama"/>
  <anchor x="664" y="602" name="top"/>
  <anchor x="664" y="602" name="topright"/>
  <outline>
    <contour>
      <point x="661" y="-3" type="line"/>
      <point x="664" y="-2" type="line"/>
      <point x="664" y="602" type="line"/>
      <point x="781" y="602" type="line"/>
      <point x="767" y="622" type="line"/>
      <point x="-19" y="622" type="line"/>
      <point x="-5" y="602" type="line"/>
      <point x="641" y="602" type="line"/>
      <point x="641" y="43" type="line"/>
      <point x="649" y="43" type="line"/>
      <point x="621" y="123"/>
      <point x="577" y="181"/>
      <point x="515" y="229" type="curve"/>
      <point x="507" y="206" type="line"/>
      <point x="571" y="158"/>
      <point x="611" y="96"/>
      <point x="646" y="11" type="curve"/>
    </contour>
    <contour>
      <point x="364" y="133" type="curve" smooth="yes"/>
      <point x="462" y="133"/>
      <point x="537" y="187"/>
      <point x="541" y="313" type="curve" smooth="yes"/>
      <point x="545" y="441"/>
      <point x="459" y="518"/>
      <point x="354" y="513" type="curve" smooth="yes"/>
      <point x="287" y="510"/>
      <point x="263" y="485"/>
      <point x="263" y="447" type="curve" smooth="yes"/>
      <point x="263" y="413"/>
      <point x="286" y="390"/>
      <point x="319" y="390" type="curve" smooth="yes"/>
      <point x="355" y="390"/>
      <point x="374" y="418"/>
      <point x="374" y="454" type="curve" smooth="yes"/>
      <point x="374" y="527"/>
      <point x="327" y="577"/>
      <point x="289" y="605" type="curve"/>
      <point x="248" y="605" type="line"/>
      <point x="311" y="570"/>
      <point x="345" y="521"/>
      <point x="352" y="484" type="curve"/>
      <point x="358" y="486"/>
      <point x="363" y="487"/>
      <point x="371" y="487" type="curve" smooth="yes"/>
      <point x="440" y="487"/>
      <point x="519" y="436"/>
      <point x="519" y="322" type="curve" smooth="yes"/>
      <point x="519" y="216"/>
      <point x="460" y="159"/>
      <point x="360" y="159" type="curve" smooth="yes"/>
      <point x="252" y="159"/>
      <point x="138" y="238"/>
      <point x="62" y="509" type="curve"/>
      <point x="43" y="504" type="line"/>
      <point x="125" y="214"/>
      <point x="248" y="133"/>
    </contour>
  </outline>
</glyph>
<glyph name="aa-beng" format="2">
  <advance width="975"/>
  <unicode hex="0986"/>
  <anchor x="661" y="-13" name="bottom"/>
  <anchor x="664" y="50" name="bottom.rakaar"/>
  <anchor x="664" y="6" name="bottom.rvocalic"/>
  <anchor x="654" y="0" name="bottom.virama"/>
  <anchor x="877" y="602" name="top"/>
  <anchor x="877" y="544" name="topright"/>
  <outline>
    <contour>
      <point x="661" y="-3" type="line"/>
      <point x="664" y="-2" type="line"/>
      <point x="664" y="602" type="line"/>
      <point x="761" y="602" type="line"/>
      <point x="747" y="622" type="line"/>
      <point x="-19" y="622" type="line"/>
      <point x="-5" y="602" type="line"/>
      <point x="641" y="602" type="line"/>
      <point x="641" y="43" type="line"/>
      <point x="649" y="43" type="line"/>
      <point x="621" y="123"/>
      <point x="577" y="181"/>
      <point x="515" y="229" type="curve"/>
      <point x="507" y="206" type="line"/>
      <point x="571" y="158"/>
      <point x="611" y="96"/>
      <point x="646" y="11" type="curve"/>
    </contour>
    <contour>
      <point x="364" y="133" type="curve" smooth="yes"/>
      <point x="462" y="133"/>
      <point x="537" y="187"/>
      <point x="541" y="313" type="curve" smooth="yes"/>
      <point x="545" y="441"/>
      <point x="459" y="518"/>
      <point x="354" y="513" type="curve" smooth="yes"/>
      <point x="287" y="510"/>
      <point x="263" y="485"/>
      <point x="263" y="447" type="curve" smooth="yes"/>
      <point x="263" y="413"/>
      <point x="286" y="390"/>
      <point x="319" y="390" type="curve" smooth="yes"/>
      <point x="355" y="390"/>
      <point x="374" y="418"/>
      <point x="374" y="454" type="curve" smooth="yes"/>
      <point x="374" y="527"/>
      <point x="327" y="577"/>
      <point x="289" y="605" type="curve"/>
      <point x="248" y="605" type="line"/>
      <point x="311" y="570"/>
      <point x="345" y="521"/>
      <point x="352" y="484" type="curve"/>
      <point x="358" y="486"/>
      <point x="363" y="487"/>
      <point x="371" y="487" type="curve" smooth="yes"/>
      <point x="440" y="487"/>
      <point x="519" y="436"/>
      <point x="519" y="322" type="curve" smooth="yes"/>
      <point x="519" y="216"/>
      <point x="460" y="159"/>
      <point x="360" y="159" type="curve" smooth="yes"/>
      <point x="252" y="159"/>
      <point x="138" y="238"/>
      <point x="62" y="509" type="curve"/>
      <point x="43" y="504" type="line"/>
      <point x="125" y="214"/>
      <point x="248" y="133"/>
    </contour>
    <contour>
      <point x="874" y="-10" type="line"/>
      <point x="877" y="-9" type="line"/>
      <point x="877" y="602" type="line"/>
      <point x="994" y="602" type="line"/>
      <point x="980" y="622" type="line"/>
      <point x="877" y="622" type="line"/>
      <point x="874" y="661" type="line"/>
      <point x="858" y="674" type="line"/>
      <point x="854" y="673" type="line"/>
      <point x="854" y="618" type="line" smooth="yes"/>
      <point x="854" y="600"/>
      <point x="855" y="570"/>
      <point x="857" y="529" type="curve"/>
      <point x="864" y="527" type="line"/>
      <point x="858" y="610"/>
      <point x="815" y="622"/>
      <point x="783" y="622" type="curve" smooth="yes"/>
      <point x="737" y="622" type="line"/>
      <point x="751" y="602" type="line"/>
      <point x="777" y="602" type="line" smooth="yes"/>
      <point x="821" y="602"/>
      <point x="847" y="578"/>
      <point x="854" y="514" type="curve"/>
      <point x="854" y="3" type="line"/>
    </contour>
  </outline>
</glyph>
<glyph name="i-beng" format="2">
  <advance width="473"/>
  <unicode hex="0987"/>
  <anchor x="270" y="74" name="bottom"/>
  <anchor x="382" y="-100" name="bottom.rakaar"/>
  <anchor x="306" y="100" name="bottom.rvocalic"/>
  <anchor x="236" y="90" name="bottom.virama"/>
  <anchor x="267" y="626" name="top"/>
  <anchor x="207" y="636" name="topright"/>
  <outline>
    <contour>
      <point x="375" y="618" type="curve"/>
      <point x="394" y="618" type="line"/>
      <point x="388" y="720"/>
      <point x="346" y="769"/>
      <point x="274" y="769" type="curve" smooth="yes"/>
      <point x="221" y="769"/>
      <point x="173" y="756"/>
      <point x="115" y="756" type="curve" smooth="yes"/>
      <point x="54" y="756"/>
      <point x="21" y="783"/>
      <point x="21" y="861" type="curve" smooth="yes"/>
      <point x="21" y="872"/>
      <point x="22" y="885"/>
      <point x="24" y="898" type="curve"/>
      <point x="6" y="900" type="line"/>
      <point x="4" y="890"/>
      <point x="2" y="871"/>
      <point x="2" y="856" type="curve" smooth="yes"/>
      <point x="2" y="767"/>
      <point x="48" y="733"/>
      <point x="115" y="733" type="curve" smooth="yes"/>
      <point x="174" y="733"/>
      <point x="213" y="746"/>
      <point x="280" y="746" type="curve" smooth="yes"/>
      <point x="342" y="746"/>
      <point x="370" y="693"/>
    </contour>
    <contour>
      <point x="451" y="-41" type="curve"/>
      <point x="465" y="-25" type="line"/>
      <point x="402" y="53"/>
      <point x="281" y="159"/>
      <point x="106" y="210" type="curve"/>
      <point x="112" y="201" type="line"/>
      <point x="142" y="196"/>
      <point x="170" y="193"/>
      <point x="196" y="193" type="curve" smooth="yes"/>
      <point x="324" y="193"/>
      <point x="401" y="255"/>
      <point x="401" y="356" type="curve" smooth="yes"/>
      <point x="401" y="453"/>
      <point x="336" y="510"/>
      <point x="219" y="510" type="curve" smooth="yes"/>
      <point x="137" y="510"/>
      <point x="104" y="490"/>
      <point x="104" y="448" type="curve" smooth="yes"/>
      <point x="104" y="413"/>
      <point x="127" y="396"/>
      <point x="156" y="396" type="curve" smooth="yes"/>
      <point x="197" y="396"/>
      <point x="213" y="425"/>
      <point x="213" y="462" type="curve" smooth="yes"/>
      <point x="213" y="507"/>
      <point x="184" y="564"/>
      <point x="124" y="606" type="curve"/>
      <point x="82" y="606" type="line"/>
      <point x="139" y="578"/>
      <point x="175" y="541"/>
      <point x="190" y="487" type="curve"/>
      <point x="183" y="471" type="line"/>
      <point x="198" y="480"/>
      <point x="213" y="485"/>
      <point x="235" y="485" type="curve" smooth="yes"/>
      <point x="329" y="485"/>
      <point x="378" y="440"/>
      <point x="378" y="361" type="curve" smooth="yes"/>
      <point x="378" y="257"/>
      <point x="296" y="218"/>
      <point x="200" y="218" type="curve" smooth="yes"/>
      <point x="137" y="218"/>
      <point x="104" y="227"/>
      <point x="70" y="242" type="curve"/>
      <point x="87" y="189" type="line"/>
      <point x="233" y="157"/>
      <point x="382" y="49"/>
    </contour>
    <contour>
      <point x="-5" y="602" type="line"/>
      <point x="492" y="602" type="line"/>
      <point x="478" y="622" type="line"/>
      <point x="-19" y="622" type="line"/>
    </contour>
  </outline>
</glyph>
<glyph name="ii-beng" format="2">
  <advance width="605"/>
  <unicode hex="0988"/>
  <anchor x="524" y="-32" name="bottom"/>
  <anchor x="524" y="70" name="bottom.rakaar"/>
  <anchor x="512" y="13" name="bottom.rvocalic"/>
  <anchor x="519" y="0" name="bottom.virama"/>
  <anchor x="339" y="626" name="top"/>
  <anchor x="293" y="636" name="topright"/>
  <outline>
    <contour>
      <point x="507" y="2" type="curve"/>
      <point x="524" y="9" type="line"/>
      <point x="500" y="81"/>
      <point x="484" y="139"/>
      <point x="484" y="236" type="curve" smooth="yes"/>
      <point x="484" y="333"/>
      <point x="506" y="409"/>
      <point x="530" y="448" type="curve"/>
      <point x="504" y="477" type="line"/>
      <point x="455" y="454"/>
      <point x="366" y="363"/>
      <point x="301" y="259" type="curve"/>
      <point x="308" y="254" type="line"/>
      <point x="317" y="278"/>
      <point x="336" y="300"/>
      <point x="336" y="358" type="curve" smooth="yes"/>
      <point x="336" y="460"/>
      <point x="269" y="509"/>
      <point x="173" y="509" type="curve" smooth="yes"/>
      <point x="117" y="509"/>
      <point x="84" y="486"/>
      <point x="85" y="447" type="curve" smooth="yes"/>
      <point x="86" y="416"/>
      <point x="107" y="400"/>
      <point x="135" y="400" type="curve" smooth="yes"/>
      <point x="171" y="400"/>
      <point x="188" y="429"/>
      <point x="188" y="465" type="curve" smooth="yes"/>
      <point x="188" y="508"/>
      <point x="161" y="564"/>
      <point x="101" y="606" type="curve"/>
      <point x="59" y="606" type="line"/>
      <point x="116" y="578"/>
      <point x="151" y="540"/>
      <point x="166" y="486" type="curve"/>
      <point x="151" y="470" type="line"/>
      <point x="166" y="479"/>
      <point x="180" y="484"/>
      <point x="199" y="484" type="curve" smooth="yes"/>
      <point x="264" y="484"/>
      <point x="315" y="439"/>
      <point x="315" y="363" type="curve" smooth="yes"/>
      <point x="315" y="318"/>
      <point x="308" y="281"/>
      <point x="287" y="248" type="curve" smooth="yes"/>
      <point x="264" y="212"/>
      <point x="223" y="174"/>
      <point x="190" y="174" type="curve" smooth="yes"/>
      <point x="139" y="174"/>
      <point x="104" y="235"/>
      <point x="84" y="270" type="curve"/>
      <point x="68" y="262" type="line"/>
      <point x="92" y="215"/>
      <point x="132" y="148"/>
      <point x="194" y="148" type="curve" smooth="yes"/>
      <point x="247" y="148"/>
      <point x="286" y="201"/>
      <point x="327" y="258" type="curve" smooth="yes"/>
      <point x="375" y="325"/>
      <point x="467" y="432"/>
      <point x="513" y="452" type="curve"/>
      <point x="508" y="459" type="line"/>
      <point x="483" y="429"/>
      <point x="460" y="337"/>
      <point x="460" y="244" type="curve" smooth="yes"/>
      <point x="460" y="159"/>
      <point x="477" y="82"/>
    </contour>
    <contour>
      <point x="-5" y="602" type="line"/>
      <point x="624" y="602" type="line"/>
      <point x="610" y="622" type="line"/>
      <point x="-19" y="622" type="line"/>
    </contour>
    <contour>
      <point x="472" y="618" type="curve"/>
      <point x="491" y="618" type="line"/>
      <point x="481" y="720"/>
      <point x="424" y="769"/>
      <point x="351" y="769" type="curve" smooth="yes"/>
      <point x="291" y="769"/>
      <point x="261" y="755"/>
      <point x="190" y="755" type="curve" smooth="yes"/>
      <point x="118" y="755"/>
      <point x="80" y="783"/>
      <point x="80" y="861" type="curve" smooth="yes"/>
      <point x="80" y="872"/>
      <point x="81" y="885"/>
      <point x="83" y="898" type="curve"/>
      <point x="65" y="900" type="line"/>
      <point x="62" y="886"/>
      <point x="61" y="869"/>
      <point x="61" y="856" type="curve" smooth="yes"/>
      <point x="61" y="767"/>
      <point x="107" y="732"/>
      <point x="187" y="732" type="curve" smooth="yes"/>
      <point x="260" y="732"/>
      <point x="283" y="746"/>
      <point x="357" y="746" type="curve" smooth="yes"/>
      <point x="420" y="746"/>
      <point x="464" y="693"/>
    </contour>
  </outline>
</glyph>
<glyph name="u-beng" format="2">
  <advance width="634"/>
  <unicode hex="0989"/>
  <anchor x="445" y="40" name="bottom"/>
  <anchor x="493" y="-26" name="bottom.rakaar"/>
  <anchor x="412" y="85" name="bottom.rvocalic"/>
  <anchor x="380" y="30" name="bottom.virama"/>
  <anchor x="334" y="-12" name="nukta"/>
  <anchor x="284" y="602" name="top"/>
  <anchor x="287" y="602" name="topright"/>
  <outline>
    <contour>
      <point x="503" y="618" type="curve"/>
      <point x="522" y="618" type="line"/>
      <point x="512" y="720"/>
      <point x="457" y="769"/>
      <point x="382" y="769" type="curve" smooth="yes"/>
      <point x="319" y="769"/>
      <point x="282" y="755"/>
      <point x="211" y="755" type="curve" smooth="yes"/>
      <point x="139" y="755"/>
      <point x="101" y="783"/>
      <point x="101" y="861" type="curve" smooth="yes"/>
      <point x="101" y="872"/>
      <point x="102" y="885"/>
      <point x="104" y="898" type="curve"/>
      <point x="86" y="900" type="line"/>
      <point x="83" y="886"/>
      <point x="82" y="869"/>
      <point x="82" y="856" type="curve" smooth="yes"/>
      <point x="82" y="767"/>
      <point x="128" y="732"/>
      <point x="208" y="732" type="curve" smooth="yes"/>
      <point x="281" y="732"/>
      <point x="311" y="746"/>
      <point x="388" y="746" type="curve" smooth="yes"/>
      <point x="453" y="746"/>
      <point x="495" y="693"/>
    </contour>
    <contour>
      <point x="367" y="84" type="curve" smooth="yes"/>
      <point x="498" y="84"/>
      <point x="565" y="169"/>
      <point x="565" y="286" type="curve" smooth="yes"/>
      <point x="565" y="365"/>
      <point x="538" y="413"/>
      <point x="510" y="443" type="curve"/>
      <point x="460" y="381"/>
      <point x="391" y="322"/>
      <point x="337" y="322" type="curve" smooth="yes"/>
      <point x="301" y="322"/>
      <point x="284" y="340"/>
      <point x="284" y="369" type="curve" smooth="yes"/>
      <point x="284" y="602" type="line"/>
      <point x="653" y="602" type="line"/>
      <point x="639" y="622" type="line"/>
      <point x="-19" y="622" type="line"/>
      <point x="-5" y="602" type="line"/>
      <point x="261" y="602" type="line"/>
      <point x="261" y="365" type="line" smooth="yes"/>
      <point x="261" y="335"/>
      <point x="274" y="319"/>
      <point x="289" y="310" type="curve" smooth="yes"/>
      <point x="304" y="301"/>
      <point x="319" y="298"/>
      <point x="337" y="298" type="curve" smooth="yes"/>
      <point x="397" y="298"/>
      <point x="457" y="342"/>
      <point x="518" y="412" type="curve"/>
      <point x="502" y="419" type="line"/>
      <point x="521" y="396"/>
      <point x="542" y="360"/>
      <point x="542" y="293" type="curve" smooth="yes"/>
      <point x="542" y="172"/>
      <point x="473" y="110"/>
      <point x="369" y="110" type="curve" smooth="yes"/>
      <point x="196" y="110"/>
      <point x="127" y="287"/>
      <point x="65" y="499" type="curve"/>
      <point x="45" y="494" type="line"/>
      <point x="115" y="230"/>
      <point x="203" y="84"/>
    </contour>
  </outline>
</glyph>
<glyph name="uu-beng" format="2">
  <advance width="693"/>
  <unicode hex="098A"/>
  <anchor x="505" y="40" name="bottom"/>
  <anchor x="553" y="-26" name="bottom.rakaar"/>
  <anchor x="472" y="85" name="bottom.rvocalic"/>
  <anchor x="440" y="30" name="bottom.virama"/>
  <anchor x="382" y="623" name="top"/>
  <anchor x="355" y="636" name="topright"/>
  <outline>
    <contour>
      <point x="422" y="84" type="curve" smooth="yes"/>
      <point x="563" y="84"/>
      <point x="623" y="169"/>
      <point x="623" y="286" type="curve" smooth="yes"/>
      <point x="623" y="365"/>
      <point x="597" y="413"/>
      <point x="569" y="443" type="curve"/>
      <point x="519" y="381"/>
      <point x="450" y="322"/>
      <point x="396" y="322" type="curve" smooth="yes"/>
      <point x="360" y="322"/>
      <point x="343" y="340"/>
      <point x="343" y="369" type="curve" smooth="yes"/>
      <point x="343" y="602" type="line"/>
      <point x="712" y="602" type="line"/>
      <point x="698" y="622" type="line"/>
      <point x="-19" y="622" type="line"/>
      <point x="-5" y="602" type="line"/>
      <point x="320" y="602" type="line"/>
      <point x="320" y="365" type="line" smooth="yes"/>
      <point x="320" y="335"/>
      <point x="333" y="319"/>
      <point x="348" y="310" type="curve" smooth="yes"/>
      <point x="363" y="301"/>
      <point x="378" y="298"/>
      <point x="396" y="298" type="curve" smooth="yes"/>
      <point x="456" y="298"/>
      <point x="516" y="342"/>
      <point x="577" y="412" type="curve"/>
      <point x="562" y="421" type="line"/>
      <point x="581" y="398"/>
      <point x="601" y="360"/>
      <point x="601" y="293" type="curve" smooth="yes"/>
      <point x="601" y="172"/>
      <point x="541" y="110"/>
      <point x="430" y="110" type="curve" smooth="yes"/>
      <point x="276" y="110"/>
      <point x="205" y="282"/>
      <point x="155" y="499" type="curve"/>
      <point x="136" y="494" type="line"/>
      <point x="171" y="326"/>
      <point x="217" y="188"/>
      <point x="324" y="108" type="curve"/>
      <point x="342" y="117" type="line"/>
      <point x="201" y="143"/>
      <point x="110" y="278"/>
      <point x="55" y="499" type="curve"/>
      <point x="36" y="494" type="line"/>
      <point x="97" y="230"/>
      <point x="203" y="84"/>
    </contour>
    <contour>
      <point x="569" y="618" type="curve"/>
      <point x="588" y="618" type="line"/>
      <point x="578" y="720"/>
      <point x="530" y="769"/>
      <point x="446" y="769" type="curve" smooth="yes"/>
      <point x="372" y="769"/>
      <point x="300" y="749"/>
      <point x="215" y="749" type="curve" smooth="yes"/>
      <point x="136" y="749"/>
      <point x="81" y="783"/>
      <point x="81" y="861" type="curve" smooth="yes"/>
      <point x="81" y="872"/>
      <point x="82" y="885"/>
      <point x="84" y="898" type="curve"/>
      <point x="66" y="900" type="line"/>
      <point x="63" y="886"/>
      <point x="62" y="869"/>
      <point x="62" y="856" type="curve" smooth="yes"/>
      <point x="62" y="767"/>
      <point x="125" y="726"/>
      <point x="212" y="726" type="curve" smooth="yes"/>
      <point x="300" y="726"/>
      <point x="364" y="746"/>
      <point x="448" y="746" type="curve" smooth="yes"/>
      <point x="523" y="746"/>
      <point x="561" y="693"/>
    </contour>
  </outline>
</glyph>
<glyph name="rVocalic-beng" format="2">
  <advance width="664"/>
  <unicode hex="098B"/>
  <anchor x="429" y="-13" name="bottom"/>
  <anchor x="432" y="50" name="bottom.rakaar"/>
  <anchor x="340" y="146" name="bottom.rvocalic"/>
  <anchor x="422" y="0" name="bottom.virama"/>
  <anchor x="432" y="602" name="top"/>
  <anchor x="435" y="602" name="topright"/>
  <outline>
    <contour>
      <point x="429" y="-3" type="line"/>
      <point x="432" y="-2" type="line"/>
      <point x="432" y="638" type="line"/>
      <point x="413" y="654" type="line"/>
      <point x="409" y="653" type="line"/>
      <point x="409" y="483" type="line"/>
      <point x="419" y="498" type="line"/>
      <point x="302" y="465"/>
      <point x="182" y="406"/>
      <point x="61" y="317" type="curve"/>
      <point x="75" y="289" type="line"/>
      <point x="228" y="240"/>
      <point x="340" y="146"/>
      <point x="414" y="11" type="curve"/>
    </contour>
    <contour>
      <point x="409" y="33" type="line"/>
      <point x="417" y="43" type="line"/>
      <point x="348" y="168"/>
      <point x="236" y="259"/>
      <point x="88" y="312" type="curve"/>
      <point x="88" y="304" type="line"/>
      <point x="215" y="400"/>
      <point x="336" y="448"/>
      <point x="417" y="471" type="curve"/>
      <point x="409" y="480" type="line"/>
    </contour>
    <contour>
      <point x="83" y="479" type="curve" smooth="yes"/>
      <point x="160" y="479"/>
      <point x="245" y="524"/>
      <point x="281" y="599" type="curve"/>
      <point x="269" y="594" type="line"/>
      <point x="296" y="576"/>
      <point x="335" y="532"/>
      <point x="368" y="479" type="curve"/>
      <point x="391" y="474" type="line"/>
      <point x="350" y="552"/>
      <point x="302" y="600"/>
      <point x="268" y="624" type="curve"/>
      <point x="229" y="546"/>
      <point x="156" y="505"/>
      <point x="89" y="505" type="curve" smooth="yes"/>
      <point x="83" y="505"/>
      <point x="76" y="506"/>
      <point x="72" y="508" type="curve"/>
      <point x="77" y="495" type="line"/>
      <point x="88" y="505"/>
      <point x="92" y="514"/>
      <point x="92" y="527" type="curve" smooth="yes"/>
      <point x="92" y="548"/>
      <point x="79" y="563"/>
      <point x="55" y="563" type="curve" smooth="yes"/>
      <point x="33" y="563"/>
      <point x="18" y="548"/>
      <point x="18" y="525" type="curve" smooth="yes"/>
      <point x="18" y="491"/>
      <point x="46" y="479"/>
    </contour>
    <contour>
      <point x="563" y="100" type="line"/>
      <point x="566" y="101" type="line"/>
      <point x="566" y="602" type="line"/>
      <point x="683" y="602" type="line"/>
      <point x="669" y="622" type="line"/>
      <point x="566" y="622" type="line"/>
      <point x="563" y="661" type="line"/>
      <point x="547" y="674" type="line"/>
      <point x="543" y="673" type="line"/>
      <point x="543" y="136" type="line"/>
      <point x="551" y="146" type="line"/>
      <point x="517" y="210"/>
      <point x="475" y="272"/>
      <point x="424" y="315" type="curve"/>
      <point x="417" y="292" type="line"/>
      <point x="468" y="248"/>
      <point x="512" y="183"/>
      <point x="548" y="114" type="curve"/>
    </contour>
  </outline>
</glyph>
<glyph name="lVocalic-beng" format="2">
  <advance width="495"/>
  <unicode hex="098C"/>
  <anchor x="342" y="602" name="top"/>
  <outline>
    <contour>
      <point x="299" y="53" type="line"/>
      <point x="367" y="71"/>
      <point x="453" y="140"/>
      <point x="453" y="265" type="curve" smooth="yes"/>
      <point x="453" y="378"/>
      <point x="392" y="422"/>
      <point x="277" y="452" type="curve" smooth="yes"/>
      <point x="180" y="477"/>
      <point x="112" y="498"/>
      <point x="112" y="588" type="curve" smooth="yes"/>
      <point x="112" y="628"/>
      <point x="124" y="656"/>
      <point x="135" y="681" type="curve"/>
      <point x="118" y="689" type="line"/>
      <point x="100" y="655"/>
      <point x="92" y="619"/>
      <point x="92" y="586" type="curve" smooth="yes"/>
      <point x="92" y="484"/>
      <point x="157" y="460"/>
      <point x="266" y="431" type="curve" smooth="yes"/>
      <point x="376" y="402"/>
      <point x="431" y="371"/>
      <point x="431" y="261" type="curve" smooth="yes"/>
      <point x="431" y="161"/>
      <point x="364" y="95"/>
      <point x="310" y="82" type="curve"/>
      <point x="323" y="77" type="line"/>
      <point x="332" y="201"/>
      <point x="293" y="280"/>
      <point x="195" y="280" type="curve" smooth="yes"/>
      <point x="122" y="280"/>
      <point x="85" y="226"/>
      <point x="85" y="171" type="curve" smooth="yes"/>
      <point x="85" y="109"/>
      <point x="120" y="73"/>
      <point x="157" y="73" type="curve" smooth="yes"/>
      <point x="186" y="73"/>
      <point x="200" y="91"/>
      <point x="200" y="115" type="curve" smooth="yes"/>
      <point x="200" y="139"/>
      <point x="182" y="155"/>
      <point x="160" y="155" type="curve" smooth="yes"/>
      <point x="139" y="155"/>
      <point x="121" y="139"/>
      <point x="123" y="115" type="curve"/>
      <point x="137" y="114" type="line"/>
      <point x="124" y="120"/>
      <point x="107" y="135"/>
      <point x="107" y="174" type="curve" smooth="yes"/>
      <point x="107" y="238"/>
      <point x="158" y="258"/>
      <point x="196" y="258" type="curve" smooth="yes"/>
      <point x="274" y="258"/>
      <point x="301" y="192"/>
      <point x="301" y="111" type="curve" smooth="yes"/>
      <point x="301" y="85"/>
      <point x="298" y="69"/>
      <point x="296" y="56" type="curve"/>
    </contour>
  </outline>
</glyph>
<glyph name="ai-beng" format="2">
  <advance width="719"/>
  <unicode hex="0990"/>
  <anchor x="543" y="-19" name="bottom"/>
  <anchor x="543" y="2" name="bottom.rvocalic"/>
  <anchor x="533" y="0" name="bottom.virama"/>
  <anchor x="486" y="602" name="top"/>
  <anchor x="462" y="616" name="topright"/>
  <outline>
    <contour>
      <point x="540" y="355" type="line"/>
      <point x="608" y="415"/>
      <point x="649" y="476"/>
      <point x="649" y="565" type="curve" smooth="yes"/>
      <point x="649" y="691"/>
      <point x="561" y="730"/>
      <point x="419" y="743" type="curve" smooth="yes"/>
      <point x="307" y="753"/>
      <point x="213" y="764"/>
      <point x="213" y="869" type="curve" smooth="yes"/>
      <point x="213" y="901"/>
      <point x="220" y="923"/>
      <point x="232" y="944" type="curve"/>
      <point x="213" y="952" type="line"/>
      <point x="201" y="929"/>
      <point x="193" y="903"/>
      <point x="193" y="867" type="curve" smooth="yes"/>
      <point x="193" y="749"/>
      <point x="283" y="729"/>
      <point x="412" y="720" type="curve" smooth="yes"/>
      <point x="538" y="711"/>
      <point x="627" y="679"/>
      <point x="627" y="567" type="curve" smooth="yes"/>
      <point x="627" y="486"/>
      <point x="594" y="432"/>
      <point x="535" y="378" type="curve"/>
    </contour>
    <contour>
      <point x="540" y="-7" type="line"/>
      <point x="543" y="-6" type="line"/>
      <point x="543" y="530" type="line" smooth="yes"/>
      <point x="543" y="596"/>
      <point x="520" y="631"/>
      <point x="459" y="631" type="curve" smooth="yes"/>
      <point x="357" y="631"/>
      <point x="245" y="493"/>
      <point x="245" y="379" type="curve" smooth="yes"/>
      <point x="245" y="317"/>
      <point x="279" y="299"/>
      <point x="307" y="299" type="curve" smooth="yes"/>
      <point x="342" y="299"/>
      <point x="362" y="322"/>
      <point x="362" y="353" type="curve" smooth="yes"/>
      <point x="362" y="386"/>
      <point x="342" y="406"/>
      <point x="313" y="406" type="curve" smooth="yes"/>
      <point x="290" y="406"/>
      <point x="271" y="394"/>
      <point x="265" y="373" type="curve"/>
      <point x="274" y="382" type="line"/>
      <point x="272" y="504"/>
      <point x="390" y="607"/>
      <point x="459" y="607" type="curve" smooth="yes"/>
      <point x="505" y="607"/>
      <point x="520" y="585"/>
      <point x="520" y="528" type="curve" smooth="yes"/>
      <point x="520" y="170" type="line" smooth="yes"/>
      <point x="520" y="135"/>
      <point x="520" y="89"/>
      <point x="522" y="52" type="curve"/>
      <point x="487" y="119"/>
      <point x="440" y="128"/>
      <point x="395" y="128" type="curve" smooth="yes"/>
      <point x="330" y="128"/>
      <point x="286" y="108"/>
      <point x="207" y="108" type="curve" smooth="yes"/>
      <point x="118" y="108"/>
      <point x="75" y="154"/>
      <point x="75" y="249" type="curve" smooth="yes"/>
      <point x="75" y="289"/>
      <point x="82" y="315"/>
      <point x="88" y="338" type="curve"/>
      <point x="69" y="344" type="line"/>
      <point x="61" y="317"/>
      <point x="55" y="280"/>
      <point x="55" y="240" type="curve" smooth="yes"/>
      <point x="55" y="119"/>
      <point x="120" y="82"/>
      <point x="205" y="82" type="curve" smooth="yes"/>
      <point x="292" y="82"/>
      <point x="328" y="102"/>
      <point x="397" y="102" type="curve" smooth="yes"/>
      <point x="447" y="102"/>
      <point x="490" y="86"/>
      <point x="527" y="7" type="curve"/>
    </contour>
  </outline>
</glyph>
<glyph name="o-beng" format="2">
  <advance width="690"/>
  <unicode hex="0993"/>
  <anchor x="510" y="41" name="bottom"/>
  <anchor x="558" y="-25" name="bottom.rakaar"/>
  <anchor x="477" y="86" name="bottom.rvocalic"/>
  <anchor x="445" y="31" name="bottom.virama"/>
  <anchor x="438" y="602" name="top"/>
  <anchor x="435" y="602" name="topright"/>
  <outline>
    <contour>
      <point x="437" y="85" type="curve" smooth="yes"/>
      <point x="552" y="85"/>
      <point x="625" y="146"/>
      <point x="625" y="254" type="curve" smooth="yes"/>
      <point x="625" y="367"/>
      <point x="541" y="408"/>
      <point x="496" y="408" type="curve" smooth="yes"/>
      <point x="467" y="408"/>
      <point x="447" y="391"/>
      <point x="447" y="362" type="curve" smooth="yes"/>
      <point x="447" y="332"/>
      <point x="468" y="317"/>
      <point x="496" y="317" type="curve" smooth="yes"/>
      <point x="543" y="317"/>
      <point x="608" y="375"/>
      <point x="607" y="486" type="curve" smooth="yes"/>
      <point x="606" y="569"/>
      <point x="553" y="616"/>
      <point x="467" y="616" type="curve" smooth="yes"/>
      <point x="332" y="616"/>
      <point x="228" y="506"/>
      <point x="228" y="421" type="curve" smooth="yes"/>
      <point x="228" y="377"/>
      <point x="253" y="357"/>
      <point x="282" y="357" type="curve" smooth="yes"/>
      <point x="311" y="357"/>
      <point x="330" y="375"/>
      <point x="330" y="405" type="curve" smooth="yes"/>
      <point x="330" y="431"/>
      <point x="312" y="451"/>
      <point x="285" y="451" type="curve" smooth="yes"/>
      <point x="269" y="451"/>
      <point x="252" y="445"/>
      <point x="240" y="416" type="curve"/>
      <point x="253" y="409" type="line"/>
      <point x="258" y="532"/>
      <point x="379" y="595"/>
      <point x="469" y="595" type="curve" smooth="yes"/>
      <point x="545" y="595"/>
      <point x="585" y="553"/>
      <point x="585" y="489" type="curve" smooth="yes"/>
      <point x="585" y="432"/>
      <point x="564" y="389"/>
      <point x="531" y="374" type="curve"/>
      <point x="536" y="364" type="line"/>
      <point x="572" y="363"/>
      <point x="603" y="318"/>
      <point x="603" y="256" type="curve" smooth="yes"/>
      <point x="603" y="153"/>
      <point x="528" y="111"/>
      <point x="439" y="111" type="curve" smooth="yes"/>
      <point x="269" y="111"/>
      <point x="137" y="248"/>
      <point x="59" y="517" type="curve"/>
      <point x="40" y="512" type="line"/>
      <point x="125" y="207"/>
      <point x="276" y="85"/>
    </contour>
  </outline>
</glyph>
<glyph name="au-beng" format="2">
  <advance width="750"/>
  <unicode hex="0994"/>
  <anchor x="510" y="41" name="bottom"/>
  <anchor x="558" y="-25" name="bottom.rakaar"/>
  <anchor x="477" y="86" name="bottom.rvocalic"/>
  <anchor x="445" y="31" name="bottom.virama"/>
  <anchor x="516" y="602" name="top"/>
  <anchor x="472" y="616" name="topright"/>
  <outline>
    <contour>
      <point x="571" y="355" type="line"/>
      <point x="639" y="415"/>
      <point x="680" y="476"/>
      <point x="680" y="562" type="curve" smooth="yes"/>
      <point x="680" y="691"/>
      <point x="592" y="730"/>
      <point x="450" y="743" type="curve" smooth="yes"/>
      <point x="338" y="753"/>
      <point x="244" y="764"/>
      <point x="244" y="869" type="curve" smooth="yes"/>
      <point x="244" y="901"/>
      <point x="251" y="923"/>
      <point x="263" y="944" type="curve"/>
      <point x="244" y="952" type="line"/>
      <point x="232" y="929"/>
      <point x="224" y="903"/>
      <point x="224" y="867" type="curve" smooth="yes"/>
      <point x="224" y="749"/>
      <point x="314" y="729"/>
      <point x="443" y="720" type="curve" smooth="yes"/>
      <point x="569" y="711"/>
      <point x="658" y="679"/>
      <point x="658" y="564" type="curve" smooth="yes"/>
      <point x="658" y="486"/>
      <point x="625" y="432"/>
      <point x="566" y="378" type="curve"/>
    </contour>
    <contour>
      <point x="437" y="85" type="curve" smooth="yes"/>
      <point x="552" y="85"/>
      <point x="625" y="146"/>
      <point x="625" y="254" type="curve" smooth="yes"/>
      <point x="625" y="367"/>
      <point x="541" y="408"/>
      <point x="496" y="408" type="curve" smooth="yes"/>
      <point x="467" y="408"/>
      <point x="447" y="391"/>
      <point x="447" y="362" type="curve" smooth="yes"/>
      <point x="447" y="332"/>
      <point x="468" y="317"/>
      <point x="496" y="317" type="curve" smooth="yes"/>
      <point x="543" y="317"/>
      <point x="608" y="375"/>
      <point x="607" y="486" type="curve" smooth="yes"/>
      <point x="606" y="569"/>
      <point x="553" y="616"/>
      <point x="467" y="616" type="curve" smooth="yes"/>
      <point x="332" y="616"/>
      <point x="228" y="506"/>
      <point x="228" y="421" type="curve" smooth="yes"/>
      <point x="228" y="377"/>
      <point x="253" y="357"/>
      <point x="282" y="357" type="curve" smooth="yes"/>
      <point x="311" y="357"/>
      <point x="330" y="375"/>
      <point x="330" y="405" type="curve" smooth="yes"/>
      <point x="330" y="431"/>
      <point x="312" y="451"/>
      <point x="285" y="451" type="curve" smooth="yes"/>
      <point x="269" y="451"/>
      <point x="252" y="445"/>
      <point x="240" y="416" type="curve"/>
      <point x="253" y="409" type="line"/>
      <point x="258" y="532"/>
      <point x="379" y="595"/>
      <point x="469" y="595" type="curve" smooth="yes"/>
      <point x="545" y="595"/>
      <point x="585" y="553"/>
      <point x="585" y="489" type="curve" smooth="yes"/>
      <point x="585" y="432"/>
      <point x="564" y="389"/>
      <point x="531" y="374" type="curve"/>
      <point x="536" y="364" type="line"/>
      <point x="572" y="363"/>
      <point x="603" y="318"/>
      <point x="603" y="256" type="curve" smooth="yes"/>
      <point x="603" y="153"/>
      <point x="528" y="111"/>
      <point x="439" y="111" type="curve" smooth="yes"/>
      <point x="269" y="111"/>
      <point x="137" y="248"/>
      <point x="59" y="517" type="curve"/>
      <point x="40" y="512" type="line"/>
      <point x="125" y="207"/>
      <point x="276" y="85"/>
    </contour>
  </outline>
</glyph>
<glyph name="ga-beng" format="2">
  <advance width="572"/>
  <unicode hex="0997"/>
  <anchor x="457" y="74" name="bottom"/>
  <anchor x="474" y="-17" name="bottom.rakaar"/>
  <anchor x="474" y="0" name="bottom.rvocalic"/>
  <anchor x="469" y="5" name="bottom.virama"/>
  <anchor x="474" y="545" name="top"/>
  <anchor x="479" y="564" name="topright"/>
  <outline>
    <contour>
      <point x="471" y="-10" type="line"/>
      <point x="474" y="-9" type="line"/>
      <point x="474" y="602" type="line"/>
      <point x="591" y="602" type="line"/>
      <point x="577" y="622" type="line"/>
      <point x="474" y="622" type="line"/>
      <point x="471" y="661" type="line"/>
      <point x="455" y="674" type="line"/>
      <point x="451" y="673" type="line"/>
      <point x="451" y="580" type="line" smooth="yes"/>
      <point x="451" y="526"/>
      <point x="452" y="462"/>
      <point x="455" y="407" type="curve"/>
      <point x="461" y="403" type="line"/>
      <point x="411" y="538"/>
      <point x="336" y="631"/>
      <point x="234" y="631" type="curve" smooth="yes"/>
      <point x="144" y="631"/>
      <point x="80" y="561"/>
      <point x="35" y="461" type="curve"/>
      <point x="60" y="440" type="line"/>
      <point x="100" y="467"/>
      <point x="138" y="487"/>
      <point x="187" y="487" type="curve" smooth="yes"/>
      <point x="237" y="487"/>
      <point x="258" y="451"/>
      <point x="258" y="415" type="curve" smooth="yes"/>
      <point x="258" y="362"/>
      <point x="229" y="310"/>
      <point x="155" y="267" type="curve"/>
      <point x="176" y="242" type="line"/>
      <point x="234" y="283"/>
      <point x="282" y="339"/>
      <point x="282" y="412" type="curve" smooth="yes"/>
      <point x="282" y="471"/>
      <point x="246" y="512"/>
      <point x="189" y="512" type="curve" smooth="yes"/>
      <point x="138" y="512"/>
      <point x="92" y="489"/>
      <point x="59" y="462" type="curve"/>
      <point x="65" y="457" type="line"/>
      <point x="112" y="560"/>
      <point x="170" y="607"/>
      <point x="237" y="607" type="curve" smooth="yes"/>
      <point x="333" y="607"/>
      <point x="405" y="501"/>
      <point x="454" y="367" type="curve"/>
      <point x="451" y="402" type="line"/>
      <point x="451" y="3" type="line"/>
    </contour>
  </outline>
</glyph>
<glyph name="gha-beng" format="2">
  <advance width="523"/>
  <unicode hex="0998"/>
  <anchor x="415" y="11" name="bottom"/>
  <anchor x="425" y="50" name="bottom.rakaar"/>
  <anchor x="425" y="6" name="bottom.rvocalic"/>
  <anchor x="415" y="0" name="bottom.virama"/>
  <anchor x="425" y="602" name="top"/>
  <anchor x="428" y="602" name="topright"/>
  <outline>
    <contour>
      <point x="422" y="-3" type="line"/>
      <point x="425" y="-2" type="line"/>
      <point x="425" y="602" type="line"/>
      <point x="542" y="602" type="line"/>
      <point x="528" y="622" type="line"/>
      <point x="-19" y="622" type="line"/>
      <point x="-5" y="602" type="line"/>
      <point x="402" y="602" type="line"/>
      <point x="402" y="33" type="line"/>
      <point x="410" y="43" type="line"/>
      <point x="340" y="178"/>
      <point x="229" y="254"/>
      <point x="81" y="307" type="curve"/>
      <point x="81" y="299" type="line"/>
      <point x="163" y="363"/>
      <point x="254" y="407"/>
      <point x="316" y="437" type="curve"/>
      <point x="304" y="459" type="line"/>
      <point x="272" y="439"/>
      <point x="230" y="421"/>
      <point x="197" y="421" type="curve" smooth="yes"/>
      <point x="145" y="421"/>
      <point x="87" y="453"/>
      <point x="87" y="516" type="curve" smooth="yes"/>
      <point x="87" y="580"/>
      <point x="135" y="600"/>
      <point x="170" y="605" type="curve"/>
      <point x="139" y="619" type="line"/>
      <point x="101" y="608"/>
      <point x="61" y="580"/>
      <point x="61" y="514" type="curve" smooth="yes"/>
      <point x="61" y="447"/>
      <point x="119" y="397"/>
      <point x="201" y="399" type="curve"/>
      <point x="202" y="404" type="line"/>
      <point x="137" y="371"/>
      <point x="95" y="342"/>
      <point x="54" y="312" type="curve"/>
      <point x="68" y="284" type="line"/>
      <point x="221" y="235"/>
      <point x="332" y="156"/>
      <point x="407" y="11" type="curve"/>
    </contour>
  </outline>
</glyph>
<glyph name="cha-beng" format="2">
  <advance width="509"/>
  <unicode hex="099B"/>
  <anchor x="276" y="108" name="bottom"/>
  <anchor x="409" y="-100" name="bottom.rakaar"/>
  <anchor x="333" y="100" name="bottom.rvocalic"/>
  <anchor x="263" y="90" name="bottom.virama"/>
  <anchor x="103" y="602" name="top"/>
  <anchor x="106" y="602" name="topright"/>
  <outline>
    <contour>
      <point x="478" y="-31" type="curve"/>
      <point x="491" y="-18" type="line"/>
      <point x="428" y="50"/>
      <point x="308" y="159"/>
      <point x="133" y="210" type="curve"/>
      <point x="139" y="201" type="line"/>
      <point x="168" y="196"/>
      <point x="196" y="193"/>
      <point x="222" y="193" type="curve" smooth="yes"/>
      <point x="350" y="193"/>
      <point x="427" y="256"/>
      <point x="427" y="358" type="curve" smooth="yes"/>
      <point x="427" y="457"/>
      <point x="363" y="508"/>
      <point x="264" y="508" type="curve" smooth="yes"/>
      <point x="193" y="508"/>
      <point x="126" y="536"/>
      <point x="98" y="602" type="curve"/>
      <point x="92" y="586" type="line"/>
      <point x="118" y="520"/>
      <point x="171" y="488"/>
      <point x="275" y="485" type="curve"/>
      <point x="266" y="495" type="line"/>
      <point x="269" y="396"/>
      <point x="214" y="314"/>
      <point x="153" y="314" type="curve" smooth="yes"/>
      <point x="121" y="314"/>
      <point x="103" y="332"/>
      <point x="103" y="372" type="curve" smooth="yes"/>
      <point x="103" y="602" type="line"/>
      <point x="528" y="602" type="line"/>
      <point x="514" y="622" type="line"/>
      <point x="-19" y="622" type="line"/>
      <point x="-5" y="602" type="line"/>
      <point x="80" y="602" type="line"/>
      <point x="80" y="371" type="line" smooth="yes"/>
      <point x="80" y="316"/>
      <point x="112" y="289"/>
      <point x="155" y="289" type="curve" smooth="yes"/>
      <point x="226" y="289"/>
      <point x="293" y="379"/>
      <point x="291" y="495" type="curve"/>
      <point x="283" y="485" type="line"/>
      <point x="352" y="480"/>
      <point x="405" y="447"/>
      <point x="405" y="364" type="curve" smooth="yes"/>
      <point x="405" y="258"/>
      <point x="323" y="218"/>
      <point x="227" y="218" type="curve" smooth="yes"/>
      <point x="164" y="218"/>
      <point x="131" y="227"/>
      <point x="97" y="242" type="curve"/>
      <point x="114" y="189" type="line"/>
      <point x="260" y="157"/>
      <point x="409" y="49"/>
    </contour>
  </outline>
</glyph>
<glyph name="ja-beng" format="2">
  <advance width="762"/>
  <unicode hex="099C"/>
  <anchor x="640" y="97" name="bottom"/>
  <anchor x="660" y="90" name="bottom.rakaar"/>
  <anchor x="659" y="31" name="bottom.rvocalic"/>
  <anchor x="655" y="20" name="bottom.virama"/>
  <anchor x="411" y="602" name="top"/>
  <anchor x="414" y="602" name="topright"/>
  <outline>
    <contour>
      <point x="344" y="80" type="curve" smooth="yes"/>
      <point x="454" y="80"/>
      <point x="508" y="150"/>
      <point x="508" y="249" type="curve" smooth="yes"/>
      <point x="508" y="309"/>
      <point x="495" y="362"/>
      <point x="447" y="412" type="curve"/>
      <point x="396" y="337"/>
      <point x="355" y="314"/>
      <point x="312" y="314" type="curve" smooth="yes"/>
      <point x="268" y="314"/>
      <point x="233" y="346"/>
      <point x="233" y="403" type="curve" smooth="yes"/>
      <point x="233" y="510"/>
      <point x="353" y="586"/>
      <point x="419" y="602" type="curve"/>
      <point x="781" y="602" type="line"/>
      <point x="768" y="622" type="line"/>
      <point x="-19" y="622" type="line"/>
      <point x="-5" y="602" type="line"/>
      <point x="410" y="602" type="line"/>
      <point x="393" y="615" type="line"/>
      <point x="317" y="593"/>
      <point x="209" y="516"/>
      <point x="209" y="404" type="curve" smooth="yes"/>
      <point x="209" y="328"/>
      <point x="262" y="289"/>
      <point x="316" y="289" type="curve" smooth="yes"/>
      <point x="385" y="289"/>
      <point x="429" y="345"/>
      <point x="461" y="387" type="curve"/>
      <point x="442" y="387" type="line"/>
      <point x="472" y="350"/>
      <point x="486" y="319"/>
      <point x="486" y="256" type="curve" smooth="yes"/>
      <point x="486" y="156"/>
      <point x="431" y="106"/>
      <point x="345" y="106" type="curve" smooth="yes"/>
      <point x="191" y="106"/>
      <point x="110" y="268"/>
      <point x="60" y="500" type="curve"/>
      <point x="41" y="495" type="line"/>
      <point x="100" y="211"/>
      <point x="198" y="80"/>
    </contour>
    <contour>
      <point x="642" y="22" type="curve"/>
      <point x="659" y="29" type="line"/>
      <point x="637" y="97"/>
      <point x="620" y="158"/>
      <point x="620" y="237" type="curve" smooth="yes"/>
      <point x="620" y="336"/>
      <point x="641" y="397"/>
      <point x="684" y="455" type="curve"/>
      <point x="668" y="481" type="line"/>
      <point x="566" y="485"/>
      <point x="504" y="520"/>
      <point x="433" y="615" type="curve"/>
      <point x="414" y="608" type="line"/>
      <point x="486" y="501"/>
      <point x="565" y="458"/>
      <point x="664" y="454" type="curve"/>
      <point x="659" y="466" type="line"/>
      <point x="621" y="417"/>
      <point x="596" y="348"/>
      <point x="596" y="250" type="curve" smooth="yes"/>
      <point x="596" y="167"/>
      <point x="614" y="97"/>
    </contour>
  </outline>
</glyph>
<glyph name="jha-beng" format="2">
  <advance width="657"/>
  <unicode hex="099D"/>
  <anchor x="415" y="11" name="bottom"/>
  <anchor x="425" y="50" name="bottom.rakaar"/>
  <anchor x="425" y="6" name="bottom.rvocalic"/>
  <anchor x="415" y="0" name="bottom.virama"/>
  <anchor x="425" y="602" name="top"/>
  <anchor x="481" y="602" name="topleft"/>
  <anchor x="428" y="602" name="topright"/>
  <outline>
    <contour>
      <point x="422" y="-3" type="line"/>
      <point x="425" y="-2" type="line"/>
      <point x="425" y="622" type="line"/>
      <point x="-19" y="622" type="line"/>
      <point x="-5" y="602" type="line"/>
      <point x="402" y="602" type="line"/>
      <point x="402" y="498" type="line"/>
      <point x="412" y="513" type="line"/>
      <point x="292" y="480"/>
      <point x="175" y="411"/>
      <point x="54" y="322" type="curve"/>
      <point x="68" y="294" type="line"/>
      <point x="221" y="245"/>
      <point x="330" y="150"/>
      <point x="407" y="11" type="curve"/>
    </contour>
    <contour>
      <point x="402" y="33" type="line"/>
      <point x="410" y="43" type="line"/>
      <point x="341" y="168"/>
      <point x="229" y="265"/>
      <point x="81" y="317" type="curve"/>
      <point x="81" y="309" type="line"/>
      <point x="208" y="405"/>
      <point x="328" y="465"/>
      <point x="410" y="486" type="curve"/>
      <point x="402" y="495" type="line"/>
    </contour>
    <contour>
      <point x="556" y="100" type="line"/>
      <point x="559" y="101" type="line"/>
      <point x="559" y="602" type="line"/>
      <point x="676" y="602" type="line"/>
      <point x="662" y="622" type="line"/>
      <point x="559" y="622" type="line"/>
      <point x="556" y="661" type="line"/>
      <point x="540" y="674" type="line"/>
      <point x="536" y="673" type="line"/>
      <point x="536" y="136" type="line"/>
      <point x="544" y="146" type="line"/>
      <point x="510" y="210"/>
      <point x="468" y="272"/>
      <point x="417" y="315" type="curve"/>
      <point x="410" y="292" type="line"/>
      <point x="461" y="248"/>
      <point x="505" y="183"/>
      <point x="541" y="114" type="curve"/>
    </contour>
  </outline>
</glyph>
<glyph name="tta-beng" format="2">
  <advance width="484"/>
  <unicode hex="099F"/>
  <anchor x="290" y="62" name="bottom"/>
  <anchor x="351" y="14" name="bottom.rakaar"/>
  <anchor x="271" y="70" name="bottom.rvocalic"/>
  <anchor x="234" y="49" name="bottom.virama"/>
  <anchor x="204" y="-32" name="nukta"/>
  <anchor x="260" y="638" name="top"/>
  <anchor x="221" y="656" name="topright"/>
  <outline>
    <contour>
      <point x="376" y="618" type="curve"/>
      <point x="395" y="618" type="line"/>
      <point x="392" y="720"/>
      <point x="354" y="769"/>
      <point x="286" y="769" type="curve" smooth="yes"/>
      <point x="235" y="769"/>
      <point x="194" y="756"/>
      <point x="139" y="756" type="curve" smooth="yes"/>
      <point x="75" y="756"/>
      <point x="51" y="783"/>
      <point x="51" y="861" type="curve" smooth="yes"/>
      <point x="51" y="872"/>
      <point x="52" y="885"/>
      <point x="54" y="898" type="curve"/>
      <point x="36" y="900" type="line"/>
      <point x="34" y="890"/>
      <point x="32" y="871"/>
      <point x="32" y="856" type="curve" smooth="yes"/>
      <point x="32" y="767"/>
      <point x="69" y="733"/>
      <point x="139" y="733" type="curve" smooth="yes"/>
      <point x="195" y="733"/>
      <point x="229" y="746"/>
      <point x="292" y="746" type="curve" smooth="yes"/>
      <point x="350" y="746"/>
      <point x="375" y="693"/>
    </contour>
    <contour>
      <point x="192" y="64" type="curve" smooth="yes"/>
      <point x="306" y="64"/>
      <point x="416" y="221"/>
      <point x="416" y="357" type="curve" smooth="yes"/>
      <point x="416" y="399"/>
      <point x="395" y="429"/>
      <point x="358" y="429" type="curve" smooth="yes"/>
      <point x="325" y="429"/>
      <point x="307" y="405"/>
      <point x="307" y="379" type="curve" smooth="yes"/>
      <point x="307" y="350"/>
      <point x="326" y="330"/>
      <point x="356" y="330" type="curve" smooth="yes"/>
      <point x="376" y="330"/>
      <point x="390" y="339"/>
      <point x="400" y="360" type="curve"/>
      <point x="391" y="363" type="line"/>
      <point x="389" y="219"/>
      <point x="281" y="88"/>
      <point x="192" y="88" type="curve" smooth="yes"/>
      <point x="147" y="88"/>
      <point x="121" y="118"/>
      <point x="121" y="158" type="curve" smooth="yes"/>
      <point x="121" y="602" type="line"/>
      <point x="503" y="602" type="line"/>
      <point x="489" y="622" type="line"/>
      <point x="-19" y="622" type="line"/>
      <point x="-5" y="602" type="line"/>
      <point x="98" y="602" type="line"/>
      <point x="98" y="157" type="line" smooth="yes"/>
      <point x="98" y="102"/>
      <point x="135" y="64"/>
    </contour>
  </outline>
</glyph>
<glyph name="dda-beng" format="2">
  <advance width="634"/>
  <unicode hex="09A1"/>
  <anchor x="389" y="65" name="bottom"/>
  <anchor x="493" y="-26" name="bottom.rakaar"/>
  <anchor x="412" y="85" name="bottom.rvocalic"/>
  <anchor x="380" y="30" name="bottom.virama"/>
  <anchor x="334" y="-12" name="nukta"/>
  <anchor x="284" y="602" name="top"/>
  <anchor x="287" y="602" name="topright"/>
  <outline>
    <contour>
      <point x="367" y="84" type="curve" smooth="yes"/>
      <point x="498" y="84"/>
      <point x="565" y="169"/>
      <point x="565" y="286" type="curve" smooth="yes"/>
      <point x="565" y="365"/>
      <point x="538" y="413"/>
      <point x="510" y="443" type="curve"/>
      <point x="460" y="381"/>
      <point x="391" y="322"/>
      <point x="337" y="322" type="curve" smooth="yes"/>
      <point x="301" y="322"/>
      <point x="284" y="340"/>
      <point x="284" y="369" type="curve" smooth="yes"/>
      <point x="284" y="602" type="line"/>
      <point x="653" y="602" type="line"/>
      <point x="639" y="622" type="line"/>
      <point x="-19" y="622" type="line"/>
      <point x="-5" y="602" type="line"/>
      <point x="261" y="602" type="line"/>
      <point x="261" y="365" type="line" smooth="yes"/>
      <point x="261" y="335"/>
      <point x="274" y="319"/>
      <point x="289" y="310" type="curve" smooth="yes"/>
      <point x="304" y="301"/>
      <point x="319" y="298"/>
      <point x="337" y="298" type="curve" smooth="yes"/>
      <point x="397" y="298"/>
      <point x="457" y="342"/>
      <point x="518" y="412" type="curve"/>
      <point x="502" y="419" type="line"/>
      <point x="521" y="396"/>
      <point x="542" y="360"/>
      <point x="542" y="293" type="curve" smooth="yes"/>
      <point x="542" y="172"/>
      <point x="473" y="110"/>
      <point x="369" y="110" type="curve" smooth="yes"/>
      <point x="196" y="110"/>
      <point x="127" y="287"/>
      <point x="65" y="499" type="curve"/>
      <point x="45" y="494" type="line"/>
      <point x="115" y="230"/>
      <point x="203" y="84"/>
    </contour>
  </outline>
</glyph>
<glyph name="ddha-beng" format="2">
  <advance width="484"/>
  <unicode hex="09A2"/>
  <anchor x="287" y="61" name="bottom"/>
  <anchor x="351" y="14" name="bottom.rakaar"/>
  <anchor x="271" y="70" name="bottom.rvocalic"/>
  <anchor x="234" y="49" name="bottom.virama"/>
  <anchor x="204" y="-32" name="nukta"/>
  <anchor x="121" y="602" name="top"/>
  <anchor x="124" y="602" name="topright"/>
  <outline>
    <contour>
      <point x="192" y="64" type="curve" smooth="yes"/>
      <point x="306" y="64"/>
      <point x="416" y="221"/>
      <point x="416" y="357" type="curve" smooth="yes"/>
      <point x="416" y="399"/>
      <point x="395" y="429"/>
      <point x="358" y="429" type="curve" smooth="yes"/>
      <point x="325" y="429"/>
      <point x="307" y="405"/>
      <point x="307" y="379" type="curve" smooth="yes"/>
      <point x="307" y="350"/>
      <point x="326" y="330"/>
      <point x="356" y="330" type="curve" smooth="yes"/>
      <point x="376" y="330"/>
      <point x="390" y="339"/>
      <point x="400" y="360" type="curve"/>
      <point x="391" y="363" type="line"/>
      <point x="389" y="219"/>
      <point x="281" y="88"/>
      <point x="192" y="88" type="curve" smooth="yes"/>
      <point x="147" y="88"/>
      <point x="121" y="118"/>
      <point x="121" y="158" type="curve" smooth="yes"/>
      <point x="121" y="602" type="line"/>
      <point x="503" y="602" type="line"/>
      <point x="489" y="622" type="line"/>
      <point x="-19" y="622" type="line"/>
      <point x="-5" y="602" type="line"/>
      <point x="98" y="602" type="line"/>
      <point x="98" y="157" type="line" smooth="yes"/>
      <point x="98" y="102"/>
      <point x="135" y="64"/>
    </contour>
  </outline>
</glyph>
<glyph name="nna-beng" format="2">
  <advance width="540"/>
  <unicode hex="09A3"/>
  <anchor x="425" y="74" name="bottom"/>
  <anchor x="442" y="-17" name="bottom.rakaar"/>
  <anchor x="442" y="0" name="bottom.rvocalic"/>
  <anchor x="437" y="5" name="bottom.virama"/>
  <anchor x="442" y="545" name="top"/>
  <anchor x="447" y="564" name="topright"/>
  <outline>
    <contour>
      <point x="439" y="-10" type="line"/>
      <point x="442" y="-9" type="line"/>
      <point x="442" y="602" type="line"/>
      <point x="559" y="602" type="line"/>
      <point x="545" y="622" type="line"/>
      <point x="442" y="622" type="line"/>
      <point x="439" y="661" type="line"/>
      <point x="423" y="674" type="line"/>
      <point x="419" y="673" type="line"/>
      <point x="419" y="590" type="line" smooth="yes"/>
      <point x="419" y="536"/>
      <point x="420" y="468"/>
      <point x="423" y="413" type="curve"/>
      <point x="430" y="410" type="line"/>
      <point x="338" y="583"/>
      <point x="277" y="627"/>
      <point x="197" y="627" type="curve" smooth="yes"/>
      <point x="123" y="627"/>
      <point x="60" y="575"/>
      <point x="60" y="479" type="curve" smooth="yes"/>
      <point x="60" y="400"/>
      <point x="111" y="333"/>
      <point x="196" y="333" type="curve" smooth="yes"/>
      <point x="237" y="333"/>
      <point x="260" y="354"/>
      <point x="260" y="389" type="curve" smooth="yes"/>
      <point x="260" y="418"/>
      <point x="241" y="438"/>
      <point x="211" y="438" type="curve" smooth="yes"/>
      <point x="184" y="438"/>
      <point x="164" y="418"/>
      <point x="164" y="391" type="curve" smooth="yes"/>
      <point x="164" y="371"/>
      <point x="173" y="356"/>
      <point x="184" y="350" type="curve"/>
      <point x="198" y="360" type="line"/>
      <point x="191" y="358"/>
      <point x="184" y="358"/>
      <point x="178" y="358" type="curve" smooth="yes"/>
      <point x="129" y="358"/>
      <point x="83" y="407"/>
      <point x="83" y="480" type="curve" smooth="yes"/>
      <point x="83" y="564"/>
      <point x="143" y="603"/>
      <point x="199" y="603" type="curve" smooth="yes"/>
      <point x="284" y="603"/>
      <point x="343" y="537"/>
      <point x="426" y="380" type="curve"/>
      <point x="419" y="408" type="line"/>
      <point x="419" y="3" type="line"/>
    </contour>
  </outline>
</glyph>
<glyph name="da-beng" format="2">
  <advance width="501"/>
  <unicode hex="09A6"/>
  <anchor x="402" y="82" name="bottom"/>
  <anchor x="420" y="70" name="bottom.rakaar"/>
  <anchor x="408" y="13" name="bottom.rvocalic"/>
  <anchor x="415" y="0" name="bottom.virama"/>
  <anchor x="117" y="602" name="top"/>
  <anchor x="120" y="602" name="topright"/>
  <outline>
    <contour>
      <point x="401" y="2" type="curve"/>
      <point x="420" y="9" type="line"/>
      <point x="400" y="74"/>
      <point x="380" y="136"/>
      <point x="380" y="236" type="curve" smooth="yes"/>
      <point x="380" y="328"/>
      <point x="402" y="404"/>
      <point x="426" y="443" type="curve"/>
      <point x="400" y="472" type="line"/>
      <point x="314" y="432"/>
      <point x="166" y="313"/>
      <point x="104" y="236" type="curve"/>
      <point x="117" y="229" type="line"/>
      <point x="117" y="602" type="line"/>
      <point x="520" y="602" type="line"/>
      <point x="507" y="622" type="line"/>
      <point x="-19" y="622" type="line"/>
      <point x="-4" y="602" type="line"/>
      <point x="94" y="602" type="line"/>
      <point x="94" y="225" type="line"/>
      <point x="115" y="213" type="line"/>
      <point x="203" y="311"/>
      <point x="335" y="413"/>
      <point x="409" y="447" type="curve"/>
      <point x="404" y="454" type="line"/>
      <point x="379" y="424"/>
      <point x="356" y="332"/>
      <point x="356" y="244" type="curve" smooth="yes"/>
      <point x="356" y="156"/>
      <point x="375" y="75"/>
    </contour>
  </outline>
</glyph>
<glyph name="na-beng" format="2">
  <advance width="491"/>
  <unicode hex="09A8"/>
  <anchor x="378" y="67" name="bottom"/>
  <anchor x="393" y="50" name="bottom.rakaar"/>
  <anchor x="393" y="6" name="bottom.rvocalic"/>
  <anchor x="383" y="0" name="bottom.virama"/>
  <anchor x="393" y="602" name="top"/>
  <anchor x="396" y="602" name="topright"/>
  <outline>
    <contour>
      <point x="390" y="-3" type="line"/>
      <point x="393" y="-2" type="line"/>
      <point x="393" y="602" type="line"/>
      <point x="510" y="602" type="line"/>
      <point x="496" y="622" type="line"/>
      <point x="-19" y="622" type="line"/>
      <point x="-5" y="602" type="line"/>
      <point x="370" y="602" type="line"/>
      <point x="370" y="232" type="line" smooth="yes"/>
      <point x="370" y="192"/>
      <point x="373" y="121"/>
      <point x="375" y="80" type="curve"/>
      <point x="380" y="80" type="line"/>
      <point x="375" y="183"/>
      <point x="309" y="395"/>
      <point x="127" y="395" type="curve" smooth="yes"/>
      <point x="80" y="395"/>
      <point x="48" y="371"/>
      <point x="48" y="330" type="curve" smooth="yes"/>
      <point x="48" y="294"/>
      <point x="71" y="272"/>
      <point x="106" y="272" type="curve" smooth="yes"/>
      <point x="141" y="272"/>
      <point x="162" y="295"/>
      <point x="162" y="327" type="curve" smooth="yes"/>
      <point x="162" y="351"/>
      <point x="153" y="370"/>
      <point x="134" y="378" type="curve"/>
      <point x="119" y="361" type="line"/>
      <point x="124" y="363"/>
      <point x="135" y="366"/>
      <point x="147" y="366" type="curve" smooth="yes"/>
      <point x="303" y="366"/>
      <point x="371" y="138"/>
      <point x="373" y="11" type="curve"/>
    </contour>
  </outline>
</glyph>
<glyph name="ma-beng" format="2">
  <advance width="512"/>
  <unicode hex="09AE"/>
  <anchor x="403" y="23" name="bottom"/>
  <anchor x="414" y="50" name="bottom.rakaar"/>
  <anchor x="414" y="6" name="bottom.rvocalic"/>
  <anchor x="404" y="0" name="bottom.virama"/>
  <anchor x="414" y="602" name="top"/>
  <anchor x="417" y="602" name="topright"/>
  <outline>
    <contour>
      <point x="411" y="-3" type="line"/>
      <point x="414" y="-2" type="line"/>
      <point x="414" y="602" type="line"/>
      <point x="531" y="602" type="line"/>
      <point x="517" y="622" type="line"/>
      <point x="-19" y="622" type="line"/>
      <point x="-5" y="602" type="line"/>
      <point x="47" y="602" type="line"/>
      <point x="42" y="617" type="line"/>
      <point x="33" y="595"/>
      <point x="28" y="574"/>
      <point x="28" y="554" type="curve" smooth="yes"/>
      <point x="28" y="497"/>
      <point x="62" y="468"/>
      <point x="129" y="447" type="curve" smooth="yes"/>
      <point x="207" y="423"/>
      <point x="228" y="389"/>
      <point x="228" y="325" type="curve" smooth="yes"/>
      <point x="228" y="303"/>
      <point x="222" y="290"/>
      <point x="212" y="281" type="curve"/>
      <point x="231" y="297" type="line"/>
      <point x="220" y="304"/>
      <point x="196" y="311"/>
      <point x="177" y="311" type="curve" smooth="yes"/>
      <point x="137" y="311"/>
      <point x="116" y="288"/>
      <point x="116" y="253" type="curve" smooth="yes"/>
      <point x="116" y="217"/>
      <point x="142" y="196"/>
      <point x="174" y="196" type="curve" smooth="yes"/>
      <point x="207" y="196"/>
      <point x="232" y="211"/>
      <point x="246" y="265" type="curve"/>
      <point x="230" y="264" type="line"/>
      <point x="277" y="261"/>
      <point x="366" y="166"/>
      <point x="396" y="11" type="curve"/>
    </contour>
    <contour>
      <point x="395" y="67" type="curve"/>
      <point x="398" y="67" type="line"/>
      <point x="372" y="171"/>
      <point x="307" y="266"/>
      <point x="242" y="291" type="curve"/>
      <point x="247" y="273" type="line"/>
      <point x="250" y="292"/>
      <point x="251" y="303"/>
      <point x="251" y="318" type="curve" smooth="yes"/>
      <point x="251" y="378"/>
      <point x="240" y="435"/>
      <point x="140" y="468" type="curve" smooth="yes"/>
      <point x="82" y="487"/>
      <point x="50" y="504"/>
      <point x="50" y="556" type="curve" smooth="yes"/>
      <point x="50" y="573"/>
      <point x="54" y="591"/>
      <point x="63" y="611" type="curve"/>
      <point x="53" y="602" type="line"/>
      <point x="391" y="602" type="line"/>
      <point x="391" y="262" type="line" smooth="yes"/>
      <point x="391" y="205"/>
      <point x="391" y="124"/>
    </contour>
  </outline>
</glyph>
<glyph name="ya-beng" format="2">
  <advance width="513"/>
  <unicode hex="09AF"/>
  <anchor x="405" y="11" name="bottom"/>
  <anchor x="415" y="50" name="bottom.rakaar"/>
  <anchor x="415" y="6" name="bottom.rvocalic"/>
  <anchor x="405" y="20" name="bottom.virama"/>
  <anchor x="204" y="88" name="nukta"/>
  <anchor x="415" y="602" name="top"/>
  <anchor x="418" y="602" name="topright"/>
  <outline>
    <contour>
      <point x="412" y="-3" type="line"/>
      <point x="415" y="-2" type="line"/>
      <point x="415" y="602" type="line"/>
      <point x="532" y="602" type="line"/>
      <point x="518" y="622" type="line"/>
      <point x="-19" y="622" type="line"/>
      <point x="5" y="585" type="line"/>
      <point x="131" y="556"/>
      <point x="209" y="479"/>
      <point x="253" y="417" type="curve"/>
      <point x="251" y="432" type="line"/>
      <point x="204" y="410"/>
      <point x="113" y="352"/>
      <point x="43" y="292" type="curve"/>
      <point x="57" y="264" type="line"/>
      <point x="212" y="219"/>
      <point x="318" y="140"/>
      <point x="397" y="11" type="curve"/>
    </contour>
    <contour>
      <point x="392" y="33" type="line"/>
      <point x="400" y="43" type="line"/>
      <point x="329" y="158"/>
      <point x="220" y="239"/>
      <point x="70" y="287" type="curve"/>
      <point x="70" y="279" type="line"/>
      <point x="131" y="335"/>
      <point x="208" y="382"/>
      <point x="275" y="418" type="curve"/>
      <point x="242" y="478"/>
      <point x="152" y="570"/>
      <point x="18" y="610" type="curve"/>
      <point x="24" y="602" type="line"/>
      <point x="392" y="602" type="line"/>
    </contour>
  </outline>
</glyph>
<glyph name="la-beng" format="2">
  <advance width="605"/>
  <unicode hex="09B2"/>
  <anchor x="490" y="74" name="bottom"/>
  <anchor x="507" y="-17" name="bottom.rakaar"/>
  <anchor x="507" y="0" name="bottom.rvocalic"/>
  <anchor x="502" y="5" name="bottom.virama"/>
  <anchor x="507" y="602" name="top"/>
  <anchor x="510" y="602" name="topright"/>
  <outline>
    <contour>
      <point x="504" y="-10" type="line"/>
      <point x="507" y="-9" type="line"/>
      <point x="507" y="602" type="line"/>
      <point x="624" y="602" type="line"/>
      <point x="610" y="622" type="line"/>
      <point x="-19" y="622" type="line"/>
      <point x="-5" y="602" type="line"/>
      <point x="484" y="602" type="line"/>
      <point x="484" y="452" type="line" smooth="yes"/>
      <point x="484" y="402"/>
      <point x="486" y="360"/>
      <point x="489" y="330" type="curve"/>
      <point x="491" y="339" type="line"/>
      <point x="449" y="429"/>
      <point x="409" y="462"/>
      <point x="367" y="462" type="curve" smooth="yes"/>
      <point x="328" y="462"/>
      <point x="295" y="430"/>
      <point x="288" y="363" type="curve"/>
      <point x="294" y="367" type="line"/>
      <point x="268" y="422"/>
      <point x="224" y="464"/>
      <point x="158" y="464" type="curve" smooth="yes"/>
      <point x="91" y="464"/>
      <point x="38" y="414"/>
      <point x="38" y="335" type="curve" smooth="yes"/>
      <point x="38" y="255"/>
      <point x="94" y="196"/>
      <point x="168" y="196" type="curve" smooth="yes"/>
      <point x="212" y="196"/>
      <point x="235" y="217"/>
      <point x="235" y="252" type="curve" smooth="yes"/>
      <point x="235" y="281"/>
      <point x="216" y="301"/>
      <point x="186" y="301" type="curve" smooth="yes"/>
      <point x="159" y="301"/>
      <point x="139" y="281"/>
      <point x="139" y="254" type="curve" smooth="yes"/>
      <point x="139" y="234"/>
      <point x="148" y="219"/>
      <point x="159" y="213" type="curve"/>
      <point x="173" y="223" type="line"/>
      <point x="166" y="221"/>
      <point x="159" y="221"/>
      <point x="153" y="221" type="curve" smooth="yes"/>
      <point x="112" y="221"/>
      <point x="61" y="260"/>
      <point x="61" y="334" type="curve" smooth="yes"/>
      <point x="61" y="402"/>
      <point x="106" y="440"/>
      <point x="162" y="440" type="curve" smooth="yes"/>
      <point x="214" y="440"/>
      <point x="257" y="409"/>
      <point x="288" y="338" type="curve"/>
      <point x="305" y="330" type="line"/>
      <point x="312" y="406"/>
      <point x="336" y="438"/>
      <point x="370" y="438" type="curve" smooth="yes"/>
      <point x="415" y="438"/>
      <point x="457" y="380"/>
      <point x="494" y="293" type="curve"/>
      <point x="485" y="337" type="line"/>
      <point x="484" y="3" type="line"/>
    </contour>
  </outline>
</glyph>
<glyph name="avagraha-beng" format="2">
  <advance width="484"/>
  <unicode hex="09BD"/>
  <anchor x="250" y="602" name="top"/>
  <anchor x="219" y="602" name="topright"/>
  <outline>
    <contour>
      <point x="461" y="-41" type="curve"/>
      <point x="474" y="-28" type="line"/>
      <point x="411" y="50"/>
      <point x="291" y="159"/>
      <point x="116" y="210" type="curve"/>
      <point x="122" y="201" type="line"/>
      <point x="152" y="196"/>
      <point x="180" y="193"/>
      <point x="206" y="193" type="curve" smooth="yes"/>
      <point x="334" y="193"/>
      <point x="410" y="254"/>
      <point x="410" y="352" type="curve" smooth="yes"/>
      <point x="410" y="449"/>
      <point x="340" y="508"/>
      <point x="227" y="508" type="curve" smooth="yes"/>
      <point x="148" y="508"/>
      <point x="117" y="489"/>
      <point x="117" y="448" type="curve" smooth="yes"/>
      <point x="117" y="415"/>
      <point x="139" y="398"/>
      <point x="167" y="398" type="curve" smooth="yes"/>
      <point x="206" y="398"/>
      <point x="221" y="426"/>
      <point x="221" y="462" type="curve" smooth="yes"/>
      <point x="221" y="510"/>
      <point x="189" y="576"/>
      <point x="110" y="622" type="curve"/>
      <point x="-19" y="622" type="line"/>
      <point x="-5" y="602" type="line"/>
      <point x="112" y="602" type="line"/>
      <point x="92" y="606" type="line"/>
      <point x="149" y="578"/>
      <point x="184" y="540"/>
      <point x="199" y="486" type="curve"/>
      <point x="192" y="470" type="line"/>
      <point x="207" y="479"/>
      <point x="221" y="484"/>
      <point x="242" y="484" type="curve" smooth="yes"/>
      <point x="333" y="484"/>
      <point x="388" y="436"/>
      <point x="388" y="357" type="curve" smooth="yes"/>
      <point x="388" y="256"/>
      <point x="306" y="218"/>
      <point x="210" y="218" type="curve" smooth="yes"/>
      <point x="147" y="218"/>
      <point x="114" y="227"/>
      <point x="80" y="242" type="curve"/>
      <point x="97" y="189" type="line"/>
      <point x="243" y="157"/>
      <point x="392" y="49"/>
    </contour>
  </outline>
</glyph>
<glyph name="uuMatra-beng" format="2">
  <unicode hex="09C2"/>
  <anchor x="0" y="0" name="_bottom"/>
  <outline>
    <contour>
      <point x="166" y="-259" type="curve"/>
      <point x="181" y="-247" type="line"/>
      <point x="118" y="-179"/>
      <point x="67" y="-147"/>
      <point x="27" y="-126" type="curve"/>
      <point x="-2" y="-163"/>
      <point x="-44" y="-202"/>
      <point x="-102" y="-202" type="curve" smooth="yes"/>
      <point x="-157" y="-202"/>
      <point x="-189" y="-171"/>
      <point x="-189" y="-127" type="curve" smooth="yes"/>
      <point x="-189" y="-85"/>
      <point x="-156" y="-54"/>
      <point x="-98" y="-54" type="curve" smooth="yes"/>
      <point x="-62" y="-54"/>
      <point x="-28" y="-65"/>
      <point x="-4" y="-78" type="curve"/>
      <point x="15" y="-69" type="line"/>
      <point x="15" y="-37"/>
      <point x="14" y="-9"/>
      <point x="-1" y="42" type="curve"/>
      <point x="-17" y="30" type="line"/>
      <point x="-6" y="-10"/>
      <point x="-5" y="-33"/>
      <point x="-5" y="-54" type="curve"/>
      <point x="0" y="-52" type="line"/>
      <point x="-33" y="-36"/>
      <point x="-66" y="-29"/>
      <point x="-101" y="-29" type="curve" smooth="yes"/>
      <point x="-160" y="-29"/>
      <point x="-213" y="-59"/>
      <point x="-213" y="-125" type="curve" smooth="yes"/>
      <point x="-213" y="-195"/>
      <point x="-164" y="-226"/>
      <point x="-103" y="-226" type="curve" smooth="yes"/>
      <point x="-45" y="-226"/>
      <point x="-5" y="-199"/>
      <point x="43" y="-148" type="curve"/>
      <point x="20" y="-150" type="line"/>
      <point x="43" y="-156"/>
      <point x="117" y="-203"/>
    </contour>
  </outline>
</glyph>
<glyph name="rVocalicMatra-beng" format="2">
  <unicode hex="09C3"/>
  <anchor x="0" y="0" name="_bottom.rvocalic"/>
  <outline>
    <contour>
      <point x="52" y="-246" type="curve"/>
      <point x="59" y="-233" type="line"/>
      <point x="16" y="-184"/>
      <point x="-60" y="-117"/>
      <point x="-149" y="-80" type="curve"/>
      <point x="-149" y="-90" type="line"/>
      <point x="-104" y="-57"/>
      <point x="-46" y="-27"/>
      <point x="0" y="-9" type="curve"/>
      <point x="0" y="-2" type="line"/>
      <point x="-10" y="15" type="line"/>
      <point x="-59" y="-8"/>
      <point x="-136" y="-48"/>
      <point x="-178" y="-80" type="curve"/>
      <point x="-160" y="-101" type="line"/>
      <point x="-87" y="-124"/>
      <point x="-1" y="-190"/>
    </contour>
  </outline>
</glyph>
<glyph name="rrVocalicMatra-beng" format="2">
  <unicode hex="09C4"/>
  <anchor x="0" y="0" name="_bottom.rvocalic"/>
  <outline>
    <contour>
      <point x="52" y="-232" type="curve"/>
      <point x="59" y="-219" type="line"/>
      <point x="20" y="-179"/>
      <point x="-50" y="-117"/>
      <point x="-149" y="-80" type="curve"/>
      <point x="-149" y="-90" type="line"/>
      <point x="-104" y="-57"/>
      <point x="-46" y="-27"/>
      <point x="0" y="-9" type="curve"/>
      <point x="0" y="-2" type="line"/>
      <point x="-10" y="15" type="line"/>
      <point x="-59" y="-8"/>
      <point x="-136" y="-48"/>
      <point x="-178" y="-80" type="curve"/>
      <point x="-160" y="-101" type="line"/>
      <point x="-77" y="-124"/>
      <point x="3" y="-185"/>
    </contour>
    <contour>
      <point x="51" y="-356" type="curve"/>
      <point x="58" y="-343" type="line"/>
      <point x="17" y="-296"/>
      <point x="-49" y="-243"/>
      <point x="-140" y="-206" type="curve"/>
      <point x="-140" y="-216" type="line"/>
      <point x="-112" y="-195"/>
      <point x="-79" y="-173"/>
      <point x="-42" y="-154" type="curve"/>
      <point x="-66" y="-141" type="line"/>
      <point x="-105" y="-162"/>
      <point x="-145" y="-189"/>
      <point x="-169" y="-208" type="curve"/>
      <point x="-151" y="-227" type="line"/>
      <point x="-76" y="-250"/>
      <point x="0" y="-302"/>
    </contour>
  </outline>
</glyph>
<glyph name="aiMatra-beng" format="2">
  <advance width="362"/>
  <unicode hex="09C8"/>
  <outline>
    <contour>
      <point x="330" y="618" type="curve"/>
      <point x="349" y="618" type="line"/>
      <point x="342" y="720"/>
      <point x="301" y="769"/>
      <point x="230" y="769" type="curve" smooth="yes"/>
      <point x="178" y="769"/>
      <point x="139" y="756"/>
      <point x="79" y="756" type="curve" smooth="yes"/>
      <point x="15" y="756"/>
      <point x="-11" y="783"/>
      <point x="-11" y="861" type="curve" smooth="yes"/>
      <point x="-11" y="872"/>
      <point x="-10" y="885"/>
      <point x="-8" y="898" type="curve"/>
      <point x="-26" y="900" type="line"/>
      <point x="-28" y="890"/>
      <point x="-30" y="871"/>
      <point x="-30" y="856" type="curve" smooth="yes"/>
      <point x="-30" y="767"/>
      <point x="9" y="734"/>
      <point x="79" y="734" type="curve" smooth="yes"/>
      <point x="140" y="734"/>
      <point x="170" y="747"/>
      <point x="236" y="747" type="curve" smooth="yes"/>
      <point x="297" y="747"/>
      <point x="325" y="693"/>
    </contour>
    <contour>
      <point x="254" y="1" type="curve" smooth="yes"/>
      <point x="289" y="1"/>
      <point x="311" y="21"/>
      <point x="311" y="54" type="curve" smooth="yes"/>
      <point x="311" y="86"/>
      <point x="292" y="105"/>
      <point x="262" y="105" type="curve" smooth="yes"/>
      <point x="234" y="105"/>
      <point x="213" y="86"/>
      <point x="213" y="58" type="curve" smooth="yes"/>
      <point x="213" y="41"/>
      <point x="216" y="31"/>
      <point x="227" y="21" type="curve"/>
      <point x="230" y="27" type="line"/>
      <point x="158" y="43"/>
      <point x="92" y="141"/>
      <point x="92" y="290" type="curve" smooth="yes"/>
      <point x="92" y="471"/>
      <point x="210" y="602"/>
      <point x="320" y="602" type="curve" smooth="yes"/>
      <point x="381" y="602" type="line"/>
      <point x="367" y="622" type="line"/>
      <point x="-19" y="622" type="line"/>
      <point x="-5" y="602" type="line"/>
      <point x="255" y="602" type="line"/>
      <point x="249" y="608" type="line"/>
      <point x="166" y="582"/>
      <point x="68" y="466"/>
      <point x="68" y="294" type="curve" smooth="yes"/>
      <point x="68" y="105"/>
      <point x="165" y="1"/>
    </contour>
  </outline>
</glyph>
<glyph name="oMatra-beng" format="2">
  <advance width="781"/>
  <unicode hex="09CB"/>
  <outline>
    <contour>
      <point x="419" y="249" type="curve" smooth="yes"/>
      <point x="452" y="249"/>
      <point x="480" y="272"/>
      <point x="480" y="310" type="curve" smooth="yes"/>
      <point x="480" y="346"/>
      <point x="453" y="372"/>
      <point x="419" y="372" type="curve" smooth="yes"/>
      <point x="384" y="372"/>
      <point x="355" y="346"/>
      <point x="355" y="310" type="curve" smooth="yes"/>
      <point x="355" y="274"/>
      <point x="385" y="249"/>
    </contour>
    <contour>
      <point x="254" y="1" type="curve" smooth="yes"/>
      <point x="289" y="1"/>
      <point x="311" y="21"/>
      <point x="311" y="54" type="curve" smooth="yes"/>
      <point x="311" y="86"/>
      <point x="292" y="105"/>
      <point x="262" y="105" type="curve" smooth="yes"/>
      <point x="234" y="105"/>
      <point x="213" y="86"/>
      <point x="213" y="58" type="curve" smooth="yes"/>
      <point x="213" y="41"/>
      <point x="216" y="31"/>
      <point x="227" y="21" type="curve"/>
      <point x="230" y="27" type="line"/>
      <point x="158" y="43"/>
      <point x="92" y="141"/>
      <point x="92" y="290" type="curve" smooth="yes"/>
      <point x="92" y="471"/>
      <point x="210" y="602"/>
      <point x="320" y="602" type="curve" smooth="yes"/>
      <point x="381" y="602" type="line"/>
      <point x="367" y="622" type="line"/>
      <point x="-19" y="622" type="line"/>
      <point x="-5" y="602" type="line"/>
      <point x="255" y="602" type="line"/>
      <point x="249" y="608" type="line"/>
      <point x="166" y="582"/>
      <point x="68" y="466"/>
      <point x="68" y="294" type="curve" smooth="yes"/>
      <point x="68" y="105"/>
      <point x="165" y="1"/>
    </contour>
    <contour>
      <point x="680" y="-10" type="line"/>
      <point x="683" y="-9" type="line"/>
      <point x="683" y="602" type="line"/>
      <point x="800" y="602" type="line"/>
      <point x="786" y="622" type="line"/>
      <point x="683" y="622" type="line"/>
      <point x="680" y="661" type="line"/>
      <point x="664" y="674" type="line"/>
      <point x="660" y="673" type="line"/>
      <point x="660" y="618" type="line" smooth="yes"/>
      <point x="660" y="600"/>
      <point x="661" y="570"/>
      <point x="663" y="529" type="curve"/>
      <point x="670" y="527" type="line"/>
      <point x="664" y="610"/>
      <point x="621" y="622"/>
      <point x="589" y="622" type="curve" smooth="yes"/>
      <point x="543" y="622" type="line"/>
      <point x="557" y="602" type="line"/>
      <point x="583" y="602" type="line" smooth="yes"/>
      <point x="627" y="602"/>
      <point x="653" y="578"/>
      <point x="660" y="514" type="curve"/>
      <point x="660" y="3" type="line"/>
    </contour>
  </outline>
</glyph>
<glyph name="auMatra-beng" format="2">
  <advance width="783"/>
  <unicode hex="09CC"/>
  <anchor x="805" y="612" name="top"/>
  <anchor x="515" y="650" name="topright"/>
  <outline>
    <contour>
      <point x="419" y="249" type="curve" smooth="yes"/>
      <point x="452" y="249"/>
      <point x="480" y="272"/>
      <point x="480" y="310" type="curve" smooth="yes"/>
      <point x="480" y="346"/>
      <point x="453" y="372"/>
      <point x="419" y="372" type="curve" smooth="yes"/>
      <point x="384" y="372"/>
      <point x="355" y="346"/>
      <point x="355" y="310" type="curve" smooth="yes"/>
      <point x="355" y="274"/>
      <point x="385" y="249"/>
    </contour>
    <contour>
      <point x="681" y="-10" type="line"/>
      <point x="684" y="-9" type="line"/>
      <point x="684" y="602" type="line"/>
      <point x="802" y="602" type="line"/>
      <point x="788" y="622" type="line"/>
      <point x="544" y="622" type="line"/>
      <point x="558" y="602" type="line"/>
      <point x="661" y="602" type="line"/>
      <point x="661" y="3" type="line"/>
    </contour>
    <contour>
      <point x="661" y="616" type="curve"/>
      <point x="686" y="616" type="line"/>
      <point x="685" y="721"/>
      <point x="630" y="777"/>
      <point x="528" y="777" type="curve" smooth="yes"/>
      <point x="453" y="777"/>
      <point x="384" y="756"/>
      <point x="289" y="756" type="curve" smooth="yes"/>
      <point x="218" y="756"/>
      <point x="172" y="783"/>
      <point x="172" y="861" type="curve" smooth="yes"/>
      <point x="172" y="872"/>
      <point x="173" y="885"/>
      <point x="175" y="898" type="curve"/>
      <point x="157" y="900" type="line"/>
      <point x="155" y="890"/>
      <point x="153" y="871"/>
      <point x="153" y="856" type="curve" smooth="yes"/>
      <point x="153" y="767"/>
      <point x="205" y="733"/>
      <point x="288" y="733" type="curve" smooth="yes"/>
      <point x="385" y="733"/>
      <point x="449" y="754"/>
      <point x="531" y="754" type="curve" smooth="yes"/>
      <point x="622" y="754"/>
      <point x="662" y="698"/>
      <point x="662" y="637" type="curve" smooth="yes"/>
      <point x="662" y="632"/>
      <point x="662" y="623"/>
    </contour>
    <contour>
      <point x="254" y="1" type="curve" smooth="yes"/>
      <point x="289" y="1"/>
      <point x="311" y="21"/>
      <point x="311" y="54" type="curve" smooth="yes"/>
      <point x="311" y="86"/>
      <point x="292" y="105"/>
      <point x="262" y="105" type="curve" smooth="yes"/>
      <point x="234" y="105"/>
      <point x="213" y="86"/>
      <point x="213" y="58" type="curve" smooth="yes"/>
      <point x="213" y="41"/>
      <point x="216" y="31"/>
      <point x="227" y="21" type="curve"/>
      <point x="230" y="27" type="line"/>
      <point x="158" y="43"/>
      <point x="92" y="141"/>
      <point x="92" y="290" type="curve" smooth="yes"/>
      <point x="92" y="471"/>
      <point x="210" y="602"/>
      <point x="320" y="602" type="curve" smooth="yes"/>
      <point x="381" y="602" type="line"/>
      <point x="367" y="622" type="line"/>
      <point x="-19" y="622" type="line"/>
      <point x="-5" y="602" type="line"/>
      <point x="255" y="602" type="line"/>
      <point x="249" y="608" type="line"/>
      <point x="166" y="582"/>
      <point x="68" y="466"/>
      <point x="68" y="294" type="curve" smooth="yes"/>
      <point x="68" y="105"/>
      <point x="165" y="1"/>
    </contour>
  </outline>
</glyph>
<glyph name="halant-beng" format="2">
  <unicode hex="09CD"/>
  <anchor x="-85" y="0" name="_bottom.virama"/>
  <outline>
    <contour>
      <point x="75" y="-215" type="curve"/>
      <point x="88" y="-202" type="line"/>
      <point x="49" y="-156"/>
      <point x="-17" y="-90"/>
      <point x="-110" y="-60" type="curve"/>
      <point x="-118" y="-82" type="line"/>
      <point x="-15" y="-116"/>
      <point x="40" y="-180"/>
    </contour>
  </outline>
</glyph>
<glyph name="rha-beng" format="2">
  <advance width="484"/>
  <unicode hex="09DD"/>
  <anchor x="261" y="-63" name="bottom"/>
  <anchor x="351" y="14" name="bottom.rakaar"/>
  <anchor x="291" y="-98" name="bottom.rvocalic"/>
  <anchor x="204" y="-59" name="bottom.virama"/>
  <anchor x="204" y="-32" name="nukta"/>
  <anchor x="121" y="602" name="top"/>
  <anchor x="121" y="602" name="topright"/>
  <outline>
    <contour>
      <point x="192" y="64" type="curve" smooth="yes"/>
      <point x="306" y="64"/>
      <point x="416" y="221"/>
      <point x="416" y="357" type="curve" smooth="yes"/>
      <point x="416" y="399"/>
      <point x="395" y="429"/>
      <point x="358" y="429" type="curve" smooth="yes"/>
      <point x="325" y="429"/>
      <point x="307" y="405"/>
      <point x="307" y="379" type="curve" smooth="yes"/>
      <point x="307" y="350"/>
      <point x="326" y="330"/>
      <point x="356" y="330" type="curve" smooth="yes"/>
      <point x="376" y="330"/>
      <point x="390" y="339"/>
      <point x="400" y="360" type="curve"/>
      <point x="391" y="363" type="line"/>
      <point x="389" y="219"/>
      <point x="281" y="88"/>
      <point x="192" y="88" type="curve" smooth="yes"/>
      <point x="147" y="88"/>
      <point x="121" y="118"/>
      <point x="121" y="158" type="curve" smooth="yes"/>
      <point x="121" y="602" type="line"/>
      <point x="503" y="602" type="line"/>
      <point x="489" y="622" type="line"/>
      <point x="-19" y="622" type="line"/>
      <point x="-5" y="602" type="line"/>
      <point x="98" y="602" type="line"/>
      <point x="98" y="157" type="line" smooth="yes"/>
      <point x="98" y="102"/>
      <point x="135" y="64"/>
    </contour>
    <contour>
      <point x="204" y="-71" type="curve" smooth="yes"/>
      <point x="227" y="-71"/>
      <point x="246" y="-55"/>
      <point x="246" y="-31" type="curve" smooth="yes"/>
      <point x="246" y="-6"/>
      <point x="227" y="10"/>
      <point x="204" y="10" type="curve" smooth="yes"/>
      <point x="181" y="10"/>
      <point x="162" y="-6"/>
      <point x="162" y="-31" type="curve" smooth="yes"/>
      <point x="162" y="-55"/>
      <point x="181" y="-71"/>
    </contour>
  </outline>
</glyph>
<glyph name="llVocalic-beng" format="2">
  <advance width="658"/>
  <unicode hex="09E1"/>
  <anchor x="342" y="602" name="top"/>
  <outline>
    <contour>
      <point x="296" y="56" type="curve"/>
      <point x="390" y="77"/>
      <point x="448" y="161"/>
      <point x="448" y="265" type="curve" smooth="yes"/>
      <point x="448" y="378"/>
      <point x="392" y="422"/>
      <point x="277" y="452" type="curve" smooth="yes"/>
      <point x="180" y="477"/>
      <point x="112" y="498"/>
      <point x="112" y="588" type="curve" smooth="yes"/>
      <point x="112" y="628"/>
      <point x="124" y="656"/>
      <point x="135" y="681" type="curve"/>
      <point x="118" y="689" type="line"/>
      <point x="100" y="655"/>
      <point x="92" y="619"/>
      <point x="92" y="586" type="curve" smooth="yes"/>
      <point x="92" y="484"/>
      <point x="157" y="460"/>
      <point x="266" y="431" type="curve" smooth="yes"/>
      <point x="376" y="402"/>
      <point x="426" y="371"/>
      <point x="426" y="261" type="curve" smooth="yes"/>
      <point x="426" y="161"/>
      <point x="364" y="95"/>
      <point x="310" y="82" type="curve"/>
      <point x="323" y="77" type="line"/>
      <point x="332" y="201"/>
      <point x="293" y="280"/>
      <point x="195" y="280" type="curve" smooth="yes"/>
      <point x="122" y="280"/>
      <point x="85" y="226"/>
      <point x="85" y="171" type="curve" smooth="yes"/>
      <point x="85" y="109"/>
      <point x="120" y="73"/>
      <point x="157" y="73" type="curve" smooth="yes"/>
      <point x="186" y="73"/>
      <point x="200" y="91"/>
      <point x="200" y="115" type="curve" smooth="yes"/>
      <point x="200" y="139"/>
      <point x="182" y="155"/>
      <point x="160" y="155" type="curve" smooth="yes"/>
      <point x="139" y="155"/>
      <point x="121" y="139"/>
      <point x="123" y="115" type="curve"/>
      <point x="137" y="114" type="line"/>
      <point x="124" y="120"/>
      <point x="107" y="135"/>
      <point x="107" y="174" type="curve" smooth="yes"/>
      <point x="107" y="238"/>
      <point x="158" y="258"/>
      <point x="196" y="258" type="curve" smooth="yes"/>
      <point x="274" y="258"/>
      <point x="301" y="192"/>
      <point x="301" y="111" type="curve" smooth="yes"/>
      <point x="301" y="85"/>
      <point x="298" y="69"/>
    </contour>
    <contour>
      <point x="470" y="-134" type="line"/>
      <point x="534" y="-117"/>
      <point x="616" y="-46"/>
      <point x="616" y="78" type="curve" smooth="yes"/>
      <point x="616" y="197"/>
      <point x="554" y="236"/>
      <point x="434" y="266" type="curve"/>
      <point x="433" y="244" type="line"/>
      <point x="546" y="215"/>
      <point x="596" y="186"/>
      <point x="596" y="73" type="curve" smooth="yes"/>
      <point x="596" y="-27"/>
      <point x="535" y="-92"/>
      <point x="481" y="-105" type="curve"/>
      <point x="494" y="-110" type="line"/>
      <point x="503" y="14"/>
      <point x="464" y="93"/>
      <point x="366" y="93" type="curve" smooth="yes"/>
      <point x="293" y="93"/>
      <point x="256" y="39"/>
      <point x="256" y="-16" type="curve" smooth="yes"/>
      <point x="256" y="-78"/>
      <point x="291" y="-114"/>
      <point x="328" y="-114" type="curve" smooth="yes"/>
      <point x="357" y="-114"/>
      <point x="371" y="-96"/>
      <point x="371" y="-72" type="curve" smooth="yes"/>
      <point x="371" y="-48"/>
      <point x="353" y="-32"/>
      <point x="331" y="-32" type="curve" smooth="yes"/>
      <point x="310" y="-32"/>
      <point x="292" y="-48"/>
      <point x="294" y="-72" type="curve"/>
      <point x="308" y="-73" type="line"/>
      <point x="295" y="-67"/>
      <point x="278" y="-52"/>
      <point x="278" y="-13" type="curve" smooth="yes"/>
      <point x="278" y="51"/>
      <point x="329" y="71"/>
      <point x="367" y="71" type="curve" smooth="yes"/>
      <point x="445" y="71"/>
      <point x="472" y="5"/>
      <point x="472" y="-76" type="curve" smooth="yes"/>
      <point x="472" y="-102"/>
      <point x="469" y="-118"/>
      <point x="467" y="-131" type="curve"/>
    </contour>
  </outline>
</glyph>
<glyph name="lVocalicMatra-beng" format="2">
  <unicode hex="09E2"/>
  <anchor x="0" y="30" name="_bottom"/>
  <outline>
    <contour>
      <point x="-24" y="-238" type="line"/>
      <point x="25" y="-238"/>
      <point x="69" y="-199"/>
      <point x="69" y="-137" type="curve" smooth="yes"/>
      <point x="69" y="-89"/>
      <point x="40" y="-57"/>
      <point x="-14" y="-41" type="curve" smooth="yes"/>
      <point x="-73" y="-23"/>
      <point x="-104" y="-15"/>
      <point x="-104" y="22" type="curve" smooth="yes"/>
      <point x="-104" y="37"/>
      <point x="-98" y="54"/>
      <point x="-89" y="67" type="curve"/>
      <point x="-105" y="74" type="line"/>
      <point x="-118" y="56"/>
      <point x="-124" y="36"/>
      <point x="-124" y="18" type="curve" smooth="yes"/>
      <point x="-124" y="-29"/>
      <point x="-87" y="-43"/>
      <point x="-36" y="-58" type="curve" smooth="yes"/>
      <point x="29" y="-77"/>
      <point x="50" y="-98"/>
      <point x="50" y="-142" type="curve" smooth="yes"/>
      <point x="50" y="-176"/>
      <point x="24" y="-211"/>
      <point x="-4" y="-211" type="curve" smooth="yes"/>
      <point x="-6" y="-211"/>
      <point x="-10" y="-211"/>
      <point x="-12" y="-210" type="curve"/>
      <point x="-3" y="-224" type="line"/>
      <point x="-2" y="-216"/>
      <point x="-2" y="-209"/>
      <point x="-2" y="-202" type="curve" smooth="yes"/>
      <point x="-2" y="-114"/>
      <point x="-52" y="-93"/>
      <point x="-87" y="-93" type="curve" smooth="yes"/>
      <point x="-133" y="-93"/>
      <point x="-160" y="-127"/>
      <point x="-160" y="-164" type="curve" smooth="yes"/>
      <point x="-160" y="-205"/>
      <point x="-133" y="-226"/>
      <point x="-110" y="-226" type="curve" smooth="yes"/>
      <point x="-93" y="-226"/>
      <point x="-83" y="-218"/>
      <point x="-83" y="-202" type="curve" smooth="yes"/>
      <point x="-83" y="-186"/>
      <point x="-94" y="-179"/>
      <point x="-105" y="-179" type="curve" smooth="yes"/>
      <point x="-122" y="-179"/>
      <point x="-128" y="-192"/>
      <point x="-128" y="-206" type="curve"/>
      <point x="-123" y="-206" type="line"/>
      <point x="-131" y="-200"/>
      <point x="-140" y="-191"/>
      <point x="-140" y="-168" type="curve" smooth="yes"/>
      <point x="-140" y="-130"/>
      <point x="-116" y="-114"/>
      <point x="-87" y="-114" type="curve" smooth="yes"/>
      <point x="-53" y="-114"/>
      <point x="-24" y="-137"/>
      <point x="-24" y="-208" type="curve" smooth="yes"/>
      <point x="-24" y="-221"/>
      <point x="-25" y="-228"/>
      <point x="-26" y="-236" type="curve"/>
    </contour>
  </outline>
</glyph>
<glyph name="llVocalicMatra-beng" format="2">
  <unicode hex="09E3"/>
  <anchor x="0" y="30" name="_bottom"/>
  <outline>
    <contour>
      <point x="-26" y="-226" type="curve"/>
      <point x="38" y="-222"/>
      <point x="69" y="-189"/>
      <point x="69" y="-137" type="curve" smooth="yes"/>
      <point x="69" y="-89"/>
      <point x="40" y="-57"/>
      <point x="-14" y="-41" type="curve" smooth="yes"/>
      <point x="-73" y="-23"/>
      <point x="-104" y="-15"/>
      <point x="-104" y="22" type="curve" smooth="yes"/>
      <point x="-104" y="37"/>
      <point x="-98" y="54"/>
      <point x="-89" y="67" type="curve"/>
      <point x="-105" y="74" type="line"/>
      <point x="-118" y="56"/>
      <point x="-124" y="36"/>
      <point x="-124" y="18" type="curve" smooth="yes"/>
      <point x="-124" y="-29"/>
      <point x="-87" y="-43"/>
      <point x="-36" y="-58" type="curve" smooth="yes"/>
      <point x="29" y="-77"/>
      <point x="50" y="-98"/>
      <point x="50" y="-142" type="curve" smooth="yes"/>
      <point x="50" y="-184"/>
      <point x="18" y="-205"/>
      <point x="-2" y="-205" type="curve" smooth="yes"/>
      <point x="-5" y="-205"/>
      <point x="-8" y="-205"/>
      <point x="-10" y="-204" type="curve"/>
      <point x="-3" y="-214" type="line"/>
      <point x="-2" y="-207"/>
      <point x="-2" y="-200"/>
      <point x="-2" y="-194" type="curve" smooth="yes"/>
      <point x="-2" y="-114"/>
      <point x="-52" y="-93"/>
      <point x="-87" y="-93" type="curve" smooth="yes"/>
      <point x="-133" y="-93"/>
      <point x="-160" y="-127"/>
      <point x="-160" y="-164" type="curve" smooth="yes"/>
      <point x="-160" y="-205"/>
      <point x="-133" y="-226"/>
      <point x="-110" y="-226" type="curve" smooth="yes"/>
      <point x="-93" y="-226"/>
      <point x="-83" y="-218"/>
      <point x="-83" y="-202" type="curve" smooth="yes"/>
      <point x="-83" y="-186"/>
      <point x="-94" y="-179"/>
      <point x="-105" y="-179" type="curve" smooth="yes"/>
      <point x="-122" y="-179"/>
      <point x="-128" y="-192"/>
      <point x="-128" y="-206" type="curve"/>
      <point x="-123" y="-206" type="line"/>
      <point x="-131" y="-200"/>
      <point x="-140" y="-191"/>
      <point x="-140" y="-168" type="curve" smooth="yes"/>
      <point x="-140" y="-130"/>
      <point x="-116" y="-114"/>
      <point x="-87" y="-114" type="curve" smooth="yes"/>
      <point x="-53" y="-114"/>
      <point x="-24" y="-137"/>
      <point x="-24" y="-198" type="curve" smooth="yes"/>
      <point x="-24" y="-211"/>
      <point x="-25" y="-218"/>
    </contour>
    <contour>
      <point x="76" y="-351" type="line"/>
      <point x="124" y="-346"/>
      <point x="169" y="-312"/>
      <point x="169" y="-250" type="curve" smooth="yes"/>
      <point x="169" y="-202"/>
      <point x="140" y="-170"/>
      <point x="65" y="-149" type="curve"/>
      <point x="58" y="-168" type="line"/>
      <point x="129" y="-190"/>
      <point x="150" y="-211"/>
      <point x="150" y="-255" type="curve" smooth="yes"/>
      <point x="150" y="-297"/>
      <point x="121" y="-325"/>
      <point x="99" y="-325" type="curve" smooth="yes"/>
      <point x="96" y="-325"/>
      <point x="93" y="-324"/>
      <point x="90" y="-323" type="curve"/>
      <point x="97" y="-337" type="line"/>
      <point x="98" y="-329"/>
      <point x="98" y="-322"/>
      <point x="98" y="-315" type="curve" smooth="yes"/>
      <point x="98" y="-227"/>
      <point x="48" y="-206"/>
      <point x="13" y="-206" type="curve" smooth="yes"/>
      <point x="-33" y="-206"/>
      <point x="-60" y="-240"/>
      <point x="-60" y="-277" type="curve" smooth="yes"/>
      <point x="-60" y="-318"/>
      <point x="-33" y="-339"/>
      <point x="-10" y="-339" type="curve" smooth="yes"/>
      <point x="7" y="-339"/>
      <point x="17" y="-331"/>
      <point x="17" y="-315" type="curve" smooth="yes"/>
      <point x="17" y="-299"/>
      <point x="6" y="-292"/>
      <point x="-5" y="-292" type="curve" smooth="yes"/>
      <point x="-22" y="-292"/>
      <point x="-28" y="-305"/>
      <point x="-28" y="-319" type="curve"/>
      <point x="-23" y="-319" type="line"/>
      <point x="-31" y="-313"/>
      <point x="-40" y="-304"/>
      <point x="-40" y="-281" type="curve" smooth="yes"/>
      <point x="-40" y="-243"/>
      <point x="-16" y="-227"/>
      <point x="13" y="-227" type="curve" smooth="yes"/>
      <point x="47" y="-227"/>
      <point x="76" y="-250"/>
      <point x="76" y="-321" type="curve" smooth="yes"/>
      <point x="76" y="-334"/>
      <point x="75" y="-344"/>
      <point x="74" y="-349" type="curve"/>
    </contour>
  </outline>
</glyph>
<glyph name="zero-beng" format="2">
  <advance width="587"/>
  <unicode hex="09E6"/>
  <outline>
    <contour>
      <point x="277" y="72" type="curve" smooth="yes"/>
      <point x="413" y="72"/>
      <point x="502" y="197"/>
      <point x="502" y="342" type="curve" smooth="yes"/>
      <point x="502" y="469"/>
      <point x="435" y="560"/>
      <point x="315" y="560" type="curve" smooth="yes"/>
      <point x="180" y="560"/>
      <point x="85" y="441"/>
      <point x="85" y="293" type="curve" smooth="yes"/>
      <point x="85" y="163"/>
      <point x="155" y="72"/>
    </contour>
    <contour>
      <point x="272" y="97" type="curve" smooth="yes"/>
      <point x="174" y="97"/>
      <point x="111" y="172"/>
      <point x="111" y="287" type="curve" smooth="yes"/>
      <point x="111" y="417"/>
      <point x="192" y="535"/>
      <point x="323" y="535" type="curve" smooth="yes"/>
      <point x="419" y="535"/>
      <point x="476" y="459"/>
      <point x="476" y="346" type="curve" smooth="yes"/>
      <point x="476" y="214"/>
      <point x="401" y="97"/>
    </contour>
  </outline>
</glyph>
<glyph name="one-beng" format="2">
  <advance width="526"/>
  <unicode hex="09E7"/>
  <outline>
    <contour>
      <point x="290" y="37" type="curve" smooth="yes"/>
      <point x="374" y="37"/>
      <point x="447" y="89"/>
      <point x="447" y="195" type="curve" smooth="yes"/>
      <point x="447" y="298"/>
      <point x="379" y="349"/>
      <point x="272" y="400" type="curve" smooth="yes"/>
      <point x="149" y="459"/>
      <point x="141" y="508"/>
      <point x="141" y="555" type="curve"/>
      <point x="130" y="557" type="line"/>
      <point x="135" y="549"/>
      <point x="144" y="546"/>
      <point x="157" y="546" type="curve" smooth="yes"/>
      <point x="180" y="546"/>
      <point x="196" y="560"/>
      <point x="196" y="587" type="curve" smooth="yes"/>
      <point x="196" y="606"/>
      <point x="184" y="625"/>
      <point x="158" y="625" type="curve" smooth="yes"/>
      <point x="130" y="625"/>
      <point x="111" y="602"/>
      <point x="111" y="564" type="curve" smooth="yes"/>
      <point x="111" y="490"/>
      <point x="145" y="434"/>
      <point x="258" y="382" type="curve" smooth="yes"/>
      <point x="362" y="334"/>
      <point x="426" y="295"/>
      <point x="426" y="193" type="curve" smooth="yes"/>
      <point x="426" y="117"/>
      <point x="375" y="61"/>
      <point x="291" y="61" type="curve" smooth="yes"/>
      <point x="249" y="61"/>
      <point x="223" y="76"/>
      <point x="215" y="101" type="curve"/>
      <point x="198" y="95" type="line"/>
      <point x="208" y="88"/>
      <point x="215" y="87"/>
      <point x="223" y="87" type="curve" smooth="yes"/>
      <point x="244" y="87"/>
      <point x="263" y="102"/>
      <point x="263" y="130" type="curve" smooth="yes"/>
      <point x="263" y="156"/>
      <point x="246" y="173"/>
      <point x="222" y="173" type="curve" smooth="yes"/>
      <point x="192" y="173"/>
      <point x="173" y="151"/>
      <point x="173" y="119" type="curve" smooth="yes"/>
      <point x="173" y="75"/>
      <point x="214" y="37"/>
    </contour>
  </outline>
</glyph>
<glyph name="two-beng" format="2">
  <advance width="519"/>
  <unicode hex="09E8"/>
  <outline>
    <contour>
      <point x="476" y="-22" type="curve"/>
      <point x="489" y="-9" type="line"/>
      <point x="426" y="59"/>
      <point x="306" y="184"/>
      <point x="133" y="242" type="curve"/>
      <point x="137" y="232" type="line"/>
      <point x="181" y="220"/>
      <point x="222" y="214"/>
      <point x="257" y="214" type="curve" smooth="yes"/>
      <point x="359" y="214"/>
      <point x="419" y="261"/>
      <point x="419" y="335" type="curve" smooth="yes"/>
      <point x="419" y="395"/>
      <point x="386" y="432"/>
      <point x="291" y="458" type="curve" smooth="yes"/>
      <point x="165" y="492"/>
      <point x="157" y="529"/>
      <point x="157" y="555" type="curve"/>
      <point x="146" y="557" type="line"/>
      <point x="151" y="549"/>
      <point x="159" y="546"/>
      <point x="169" y="546" type="curve" smooth="yes"/>
      <point x="195" y="546"/>
      <point x="211" y="560"/>
      <point x="211" y="585" type="curve" smooth="yes"/>
      <point x="211" y="604"/>
      <point x="202" y="625"/>
      <point x="172" y="625" type="curve" smooth="yes"/>
      <point x="146" y="625"/>
      <point x="127" y="604"/>
      <point x="127" y="569" type="curve" smooth="yes"/>
      <point x="127" y="510"/>
      <point x="165" y="469"/>
      <point x="278" y="439" type="curve" smooth="yes"/>
      <point x="366" y="416"/>
      <point x="397" y="389"/>
      <point x="397" y="337" type="curve" smooth="yes"/>
      <point x="397" y="263"/>
      <point x="326" y="239"/>
      <point x="258" y="239" type="curve" smooth="yes"/>
      <point x="198" y="239"/>
      <point x="133" y="259"/>
      <point x="102" y="278" type="curve"/>
      <point x="111" y="224" type="line"/>
      <point x="258" y="182"/>
      <point x="407" y="58"/>
    </contour>
  </outline>
</glyph>
<glyph name="three-beng" format="2">
  <advance width="633"/>
  <unicode hex="09E9"/>
  <outline>
    <contour>
      <point x="376" y="82" type="curve" smooth="yes"/>
      <point x="482" y="82"/>
      <point x="568" y="156"/>
      <point x="568" y="294" type="curve" smooth="yes"/>
      <point x="568" y="425"/>
      <point x="486" y="518"/>
      <point x="372" y="518" type="curve" smooth="yes"/>
      <point x="305" y="518"/>
      <point x="281" y="490"/>
      <point x="281" y="452" type="curve" smooth="yes"/>
      <point x="281" y="418"/>
      <point x="304" y="395"/>
      <point x="338" y="395" type="curve" smooth="yes"/>
      <point x="374" y="395"/>
      <point x="392" y="419"/>
      <point x="392" y="452" type="curve" smooth="yes"/>
      <point x="392" y="474"/>
      <point x="381" y="496"/>
      <point x="361" y="505" type="curve"/>
      <point x="330" y="476" type="line"/>
      <point x="340" y="483"/>
      <point x="361" y="492"/>
      <point x="389" y="492" type="curve" smooth="yes"/>
      <point x="467" y="492"/>
      <point x="546" y="420"/>
      <point x="546" y="296" type="curve" smooth="yes"/>
      <point x="546" y="182"/>
      <point x="481" y="108"/>
      <point x="373" y="108" type="curve" smooth="yes"/>
      <point x="247" y="108"/>
      <point x="134" y="211"/>
      <point x="74" y="502" type="curve"/>
      <point x="55" y="497" type="line"/>
      <point x="121" y="177"/>
      <point x="242" y="82"/>
    </contour>
  </outline>
</glyph>
<glyph name="five-beng" format="2">
  <advance width="580"/>
  <unicode hex="09EB"/>
  <outline>
    <contour>
      <point x="348" y="22" type="curve" smooth="yes"/>
      <point x="412" y="22"/>
      <point x="460" y="39"/>
      <point x="500" y="80" type="curve"/>
      <point x="491" y="99" type="line"/>
      <point x="413" y="98"/>
      <point x="358" y="146"/>
      <point x="358" y="228" type="curve" smooth="yes"/>
      <point x="358" y="346"/>
      <point x="437" y="388"/>
      <point x="478" y="407" type="curve"/>
      <point x="463" y="426" type="line"/>
      <point x="416" y="421"/>
      <point x="339" y="434"/>
      <point x="339" y="517" type="curve" smooth="yes"/>
      <point x="339" y="549"/>
      <point x="354" y="574"/>
      <point x="365" y="581" type="curve"/>
      <point x="365" y="595"/>
      <point x="360" y="604"/>
      <point x="340" y="604" type="curve" smooth="yes"/>
      <point x="246" y="604"/>
      <point x="100" y="475"/>
      <point x="100" y="293" type="curve" smooth="yes"/>
      <point x="100" y="122"/>
      <point x="204" y="22"/>
    </contour>
    <contour>
      <point x="349" y="45" type="curve" smooth="yes"/>
      <point x="201" y="45"/>
      <point x="122" y="154"/>
      <point x="122" y="285" type="curve" smooth="yes"/>
      <point x="122" y="468"/>
      <point x="255" y="577"/>
      <point x="342" y="583" type="curve"/>
      <point x="340" y="587" type="line"/>
      <point x="324" y="570"/>
      <point x="316" y="542"/>
      <point x="316" y="518" type="curve" smooth="yes"/>
      <point x="316" y="453"/>
      <point x="361" y="405"/>
      <point x="449" y="407" type="curve"/>
      <point x="444" y="415" type="line"/>
      <point x="375" y="382"/>
      <point x="336" y="312"/>
      <point x="336" y="237" type="curve" smooth="yes"/>
      <point x="336" y="143"/>
      <point x="390" y="84"/>
      <point x="482" y="82" type="curve"/>
      <point x="480" y="90" type="line"/>
      <point x="463" y="76"/>
      <point x="430" y="45"/>
    </contour>
  </outline>
</glyph>
<glyph name="nine-beng" format="2">
  <advance width="514"/>
  <unicode hex="09EF"/>
  <outline>
    <contour>
      <point x="296" y="53" type="line"/>
      <point x="360" y="70"/>
      <point x="442" y="123"/>
      <point x="442" y="245" type="curve" smooth="yes"/>
      <point x="442" y="327"/>
      <point x="400" y="384"/>
      <point x="285" y="425" type="curve" smooth="yes"/>
      <point x="152" y="472"/>
      <point x="144" y="521"/>
      <point x="144" y="555" type="curve"/>
      <point x="133" y="557" type="line"/>
      <point x="138" y="549"/>
      <point x="146" y="546"/>
      <point x="156" y="546" type="curve" smooth="yes"/>
      <point x="182" y="546"/>
      <point x="198" y="560"/>
      <point x="198" y="586" type="curve" smooth="yes"/>
      <point x="198" y="606"/>
      <point x="188" y="625"/>
      <point x="161" y="625" type="curve" smooth="yes"/>
      <point x="136" y="625"/>
      <point x="114" y="604"/>
      <point x="114" y="564" type="curve" smooth="yes"/>
      <point x="114" y="510"/>
      <point x="141" y="452"/>
      <point x="269" y="408" type="curve" smooth="yes"/>
      <point x="390" y="366"/>
      <point x="422" y="317"/>
      <point x="422" y="239" type="curve" smooth="yes"/>
      <point x="422" y="145"/>
      <point x="361" y="95"/>
      <point x="307" y="82" type="curve"/>
      <point x="320" y="77" type="line"/>
      <point x="329" y="201"/>
      <point x="291" y="280"/>
      <point x="196" y="280" type="curve" smooth="yes"/>
      <point x="121" y="280"/>
      <point x="82" y="221"/>
      <point x="82" y="161" type="curve" smooth="yes"/>
      <point x="82" y="101"/>
      <point x="116" y="62"/>
      <point x="153" y="62" type="curve" smooth="yes"/>
      <point x="182" y="62"/>
      <point x="196" y="80"/>
      <point x="196" y="104" type="curve" smooth="yes"/>
      <point x="196" y="128"/>
      <point x="178" y="144"/>
      <point x="156" y="144" type="curve" smooth="yes"/>
      <point x="135" y="144"/>
      <point x="117" y="128"/>
      <point x="119" y="104" type="curve"/>
      <point x="133" y="103" type="line"/>
      <point x="120" y="109"/>
      <point x="104" y="127"/>
      <point x="104" y="164" type="curve" smooth="yes"/>
      <point x="104" y="233"/>
      <point x="153" y="258"/>
      <point x="195" y="258" type="curve" smooth="yes"/>
      <point x="271" y="258"/>
      <point x="298" y="192"/>
      <point x="298" y="111" type="curve" smooth="yes"/>
      <point x="298" y="85"/>
      <point x="295" y="69"/>
      <point x="293" y="56" type="curve"/>
    </contour>
  </outline>
</glyph>
<glyph name="rupeemark-beng" format="2">
  <advance width="570"/>
  <unicode hex="09F2"/>
  <outline>
    <contour>
      <point x="486" y="18" type="curve"/>
      <point x="505" y="26" type="line"/>
      <point x="380" y="319"/>
      <point x="261" y="439"/>
      <point x="103" y="535" type="curve"/>
      <point x="100" y="505" type="line"/>
      <point x="265" y="413"/>
      <point x="372" y="268"/>
    </contour>
  </outline>
</glyph>
<glyph name="rupee-beng" format="2">
  <advance width="536"/>
  <unicode hex="09F3"/>
  <outline>
    <contour>
      <point x="245" y="50" type="curve" smooth="yes"/>
      <point x="347" y="50"/>
      <point x="439" y="177"/>
      <point x="439" y="313" type="curve" smooth="yes"/>
      <point x="439" y="355"/>
      <point x="418" y="385"/>
      <point x="381" y="385" type="curve" smooth="yes"/>
      <point x="348" y="385"/>
      <point x="330" y="361"/>
      <point x="330" y="335" type="curve" smooth="yes"/>
      <point x="330" y="306"/>
      <point x="349" y="286"/>
      <point x="379" y="286" type="curve" smooth="yes"/>
      <point x="399" y="286"/>
      <point x="413" y="295"/>
      <point x="423" y="316" type="curve"/>
      <point x="414" y="319" type="line"/>
      <point x="412" y="175"/>
      <point x="322" y="74"/>
      <point x="245" y="74" type="curve" smooth="yes"/>
      <point x="200" y="74"/>
      <point x="174" y="104"/>
      <point x="174" y="144" type="curve" smooth="yes"/>
      <point x="174" y="643" type="line" smooth="yes"/>
      <point x="174" y="674"/>
      <point x="157" y="692"/>
      <point x="129" y="692" type="curve" smooth="yes"/>
      <point x="107" y="692"/>
      <point x="91" y="677"/>
      <point x="91" y="655" type="curve" smooth="yes"/>
      <point x="91" y="630"/>
      <point x="107" y="616"/>
      <point x="129" y="616" type="curve" smooth="yes"/>
      <point x="152" y="616"/>
      <point x="160" y="628"/>
      <point x="162" y="643" type="curve"/>
      <point x="151" y="645" type="line"/>
      <point x="151" y="143" type="line" smooth="yes"/>
      <point x="151" y="88"/>
      <point x="188" y="50"/>
    </contour>
    <contour>
      <point x="69" y="485" type="line"/>
      <point x="461" y="485" type="line"/>
      <point x="447" y="505" type="line"/>
      <point x="55" y="505" type="line"/>
    </contour>
  </outline>
</glyph>
<glyph name="twoNumr-beng" format="2">
  <advance width="569"/>
  <unicode hex="09F5"/>
  <outline>
    <contour>
      <point x="196" y="46" type="line"/>
      <point x="327" y="128"/>
      <point x="445" y="277"/>
      <point x="494" y="612" type="curve"/>
      <point x="476" y="617" type="line"/>
      <point x="441" y="423"/>
      <point x="397" y="276"/>
      <point x="294" y="164" type="curve"/>
      <point x="298" y="157" type="line"/>
      <point x="302" y="169"/>
      <point x="306" y="194"/>
      <point x="306" y="219" type="curve" smooth="yes"/>
      <point x="306" y="305"/>
      <point x="247" y="367"/>
      <point x="165" y="367" type="curve" smooth="yes"/>
      <point x="91" y="367"/>
      <point x="50" y="322"/>
      <point x="50" y="277" type="curve" smooth="yes"/>
      <point x="50" y="245"/>
      <point x="69" y="224"/>
      <point x="97" y="224" type="curve" smooth="yes"/>
      <point x="122" y="224"/>
      <point x="140" y="240"/>
      <point x="140" y="267" type="curve" smooth="yes"/>
      <point x="140" y="290"/>
      <point x="124" y="313"/>
      <point x="87" y="311" type="curve"/>
      <point x="91" y="296" type="line"/>
      <point x="96" y="314"/>
      <point x="118" y="343"/>
      <point x="172" y="343" type="curve" smooth="yes"/>
      <point x="248" y="343"/>
      <point x="283" y="279"/>
      <point x="283" y="221" type="curve" smooth="yes"/>
      <point x="283" y="136"/>
      <point x="238" y="101"/>
      <point x="172" y="64" type="curve"/>
    </contour>
  </outline>
</glyph>
<glyph name="fourNumr-beng" format="2">
  <advance width="303"/>
  <unicode hex="09F7"/>
  <outline>
    <contour>
      <point x="195" y="22" type="curve" smooth="yes"/>
      <point x="217" y="22"/>
      <point x="233" y="37"/>
      <point x="233" y="59" type="curve" smooth="yes"/>
      <point x="233" y="84"/>
      <point x="217" y="98"/>
      <point x="195" y="98" type="curve" smooth="yes"/>
      <point x="172" y="98"/>
      <point x="164" y="86"/>
      <point x="162" y="71" type="curve"/>
      <point x="173" y="69" type="line"/>
      <point x="173" y="578" type="line" smooth="yes"/>
      <point x="173" y="609"/>
      <point x="156" y="627"/>
      <point x="128" y="627" type="curve" smooth="yes"/>
      <point x="106" y="627"/>
      <point x="90" y="612"/>
      <point x="90" y="590" type="curve" smooth="yes"/>
      <point x="90" y="565"/>
      <point x="106" y="551"/>
      <point x="128" y="551" type="curve" smooth="yes"/>
      <point x="151" y="551"/>
      <point x="159" y="563"/>
      <point x="161" y="578" type="curve"/>
      <point x="150" y="580" type="line"/>
      <point x="150" y="71" type="line" smooth="yes"/>
      <point x="150" y="40"/>
      <point x="167" y="22"/>
    </contour>
  </outline>
</glyph>
<glyph name="oneLessNumr-beng" format="2">
  <advance width="587"/>
  <unicode hex="09F8"/>
  <outline>
    <contour>
      <point x="479" y="59" type="curve" smooth="yes"/>
      <point x="501" y="59"/>
      <point x="517" y="74"/>
      <point x="517" y="96" type="curve" smooth="yes"/>
      <point x="517" y="121"/>
      <point x="501" y="135"/>
      <point x="479" y="135" type="curve" smooth="yes"/>
      <point x="456" y="135"/>
      <point x="448" y="123"/>
      <point x="446" y="108" type="curve"/>
      <point x="457" y="106" type="line"/>
      <point x="457" y="438" type="line"/>
      <point x="436" y="459" type="line"/>
      <point x="350" y="419"/>
      <point x="222" y="308"/>
      <point x="160" y="231" type="curve"/>
      <point x="171" y="224" type="line"/>
      <point x="173" y="260"/>
      <point x="173" y="286"/>
      <point x="173" y="312" type="curve" smooth="yes"/>
      <point x="173" y="578" type="line" smooth="yes"/>
      <point x="173" y="609"/>
      <point x="156" y="627"/>
      <point x="128" y="627" type="curve" smooth="yes"/>
      <point x="106" y="627"/>
      <point x="90" y="612"/>
      <point x="90" y="590" type="curve" smooth="yes"/>
      <point x="90" y="565"/>
      <point x="106" y="551"/>
      <point x="128" y="551" type="curve" smooth="yes"/>
      <point x="151" y="551"/>
      <point x="159" y="563"/>
      <point x="161" y="578" type="curve"/>
      <point x="150" y="580" type="line"/>
      <point x="150" y="220" type="line"/>
      <point x="171" y="208" type="line"/>
      <point x="259" y="306"/>
      <point x="371" y="400"/>
      <point x="445" y="434" type="curve"/>
      <point x="434" y="444" type="line"/>
      <point x="434" y="108" type="line" smooth="yes"/>
      <point x="434" y="77"/>
      <point x="451" y="59"/>
    </contour>
  </outline>
</glyph>
<glyph name="sixteenDnom-beng" format="2">
  <advance width="443"/>
  <unicode hex="09F9"/>
  <outline>
    <contour>
      <point x="216" y="158" type="curve" smooth="yes"/>
      <point x="311" y="158"/>
      <point x="378" y="225"/>
      <point x="378" y="322" type="curve" smooth="yes"/>
      <point x="378" y="411"/>
      <point x="321" y="479"/>
      <point x="226" y="479" type="curve" smooth="yes"/>
      <point x="131" y="479"/>
      <point x="65" y="412"/>
      <point x="65" y="313" type="curve" smooth="yes"/>
      <point x="65" y="228"/>
      <point x="121" y="158"/>
    </contour>
    <contour>
      <point x="213" y="183" type="curve" smooth="yes"/>
      <point x="141" y="183"/>
      <point x="89" y="234"/>
      <point x="89" y="306" type="curve" smooth="yes"/>
      <point x="89" y="390"/>
      <point x="146" y="454"/>
      <point x="229" y="454" type="curve" smooth="yes"/>
      <point x="302" y="454"/>
      <point x="353" y="404"/>
      <point x="353" y="331" type="curve" smooth="yes"/>
      <point x="353" y="244"/>
      <point x="296" y="183"/>
    </contour>
  </outline>
</glyph>
<glyph name="isshar-beng" format="2">
  <advance width="592"/>
  <unicode hex="09FA"/>
  <outline>
    <contour>
      <point x="229" y="205" type="curve" smooth="yes"/>
      <point x="320" y="205"/>
      <point x="422" y="249"/>
      <point x="517" y="490" type="curve"/>
      <point x="496" y="495" type="line"/>
      <point x="412" y="292"/>
      <point x="329" y="230"/>
      <point x="231" y="230" type="curve" smooth="yes"/>
      <point x="134" y="230"/>
      <point x="96" y="299"/>
      <point x="96" y="398" type="curve" smooth="yes"/>
      <point x="96" y="408"/>
      <point x="96" y="419"/>
      <point x="97" y="429" type="curve"/>
      <point x="77" y="425" type="line"/>
      <point x="76" y="411"/>
      <point x="75" y="398"/>
      <point x="75" y="386" type="curve" smooth="yes"/>
      <point x="75" y="259"/>
      <point x="146" y="205"/>
    </contour>
    <contour>
      <point x="248" y="357" type="curve" smooth="yes"/>
      <point x="268" y="357"/>
      <point x="286" y="370"/>
      <point x="286" y="395" type="curve" smooth="yes"/>
      <point x="286" y="419"/>
      <point x="269" y="434"/>
      <point x="248" y="434" type="curve" smooth="yes"/>
      <point x="225" y="434"/>
      <point x="207" y="420"/>
      <point x="207" y="395" type="curve" smooth="yes"/>
      <point x="207" y="370"/>
      <point x="226" y="357"/>
    </contour>
  </outline>
</glyph>
<glyph name="ganda-beng" format="2">
  <advance width="333"/>
  <unicode hex="09FB"/>
  <outline>
    <contour>
      <point x="302" y="-61" type="curve"/>
      <point x="318" y="-48" type="line"/>
      <point x="230" y="62"/>
      <point x="106" y="201"/>
      <point x="106" y="318" type="curve" smooth="yes"/>
      <point x="106" y="376"/>
      <point x="136" y="423"/>
      <point x="188" y="444" type="curve"/>
      <point x="182" y="471" type="line"/>
      <point x="113" y="439"/>
      <point x="80" y="387"/>
      <point x="80" y="320" type="curve" smooth="yes"/>
      <point x="80" y="219"/>
      <point x="170" y="94"/>
    </contour>
  </outline>
</glyph>
<glyph name="uni09FD" format="2">
  <advance width="460"/>
  <unicode hex="09FD"/>
  <outline>
    <contour>
      <point x="229" y="285" type="curve" smooth="yes"/>
      <point x="267" y="285"/>
      <point x="301" y="301"/>
      <point x="325" y="328" type="curve" smooth="yes"/>
      <point x="347" y="352"/>
      <point x="360" y="385"/>
      <point x="360" y="422" type="curve" smooth="yes"/>
      <point x="360" y="495"/>
      <point x="303" y="554"/>
      <point x="234" y="554" type="curve" smooth="yes"/>
      <point x="197" y="554"/>
      <point x="162" y="537"/>
      <point x="138" y="510" type="curve" smooth="yes"/>
      <point x="115" y="485"/>
      <point x="100" y="452"/>
      <point x="100" y="415" type="curve" smooth="yes"/>
      <point x="100" y="343"/>
      <point x="157" y="285"/>
    </contour>
    <contour>
      <point x="235" y="305" type="curve" smooth="yes"/>
      <point x="170" y="305"/>
      <point x="123" y="345"/>
      <point x="123" y="420" type="curve" smooth="yes"/>
      <point x="123" y="484"/>
      <point x="172" y="534"/>
      <point x="228" y="534" type="curve" smooth="yes"/>
      <point x="295" y="534"/>
      <point x="337" y="482"/>
      <point x="337" y="421" type="curve" smooth="yes"/>
      <point x="337" y="354"/>
      <point x="292" y="305"/>
    </contour>
  </outline>
</glyph>
<glyph name="uni09FE" format="2">
  <unicode hex="09FE"/>
  <outline>
    <contour>
      <point x="128" y="852" type="curve"/>
      <point x="139" y="866" type="line"/>
      <point x="83" y="907"/>
      <point x="28" y="945"/>
      <point x="-91" y="966" type="curve"/>
      <point x="-87" y="957" type="line"/>
      <point x="-68" y="954"/>
      <point x="-50" y="952"/>
      <point x="-26" y="952" type="curve" smooth="yes"/>
      <point x="58" y="952"/>
      <point x="96" y="985"/>
      <point x="96" y="1041" type="curve" smooth="yes"/>
      <point x="96" y="1096"/>
      <point x="53" y="1126"/>
      <point x="-3" y="1126" type="curve" smooth="yes"/>
      <point x="-65" y="1126"/>
      <point x="-85" y="1110"/>
      <point x="-85" y="1085" type="curve" smooth="yes"/>
      <point x="-85" y="1065"/>
      <point x="-71" y="1053"/>
      <point x="-53" y="1053" type="curve" smooth="yes"/>
      <point x="-28" y="1053"/>
      <point x="-15" y="1071"/>
      <point x="-15" y="1093" type="curve" smooth="yes"/>
      <point x="-15" y="1123"/>
      <point x="-35" y="1157"/>
      <point x="-72" y="1178" type="curve"/>
      <point x="-171" y="1178" type="line"/>
      <point x="-162" y="1159" type="line"/>
      <point x="-65" y="1159" type="line"/>
      <point x="-73" y="1170" type="line"/>
      <point x="-93" y="1170" type="line"/>
      <point x="-57" y="1150"/>
      <point x="-45" y="1137"/>
      <point x="-35" y="1111" type="curve"/>
      <point x="-45" y="1099" type="line"/>
      <point x="-31" y="1104"/>
      <point x="-20" y="1106"/>
      <point x="1" y="1106" type="curve" smooth="yes"/>
      <point x="39" y="1106"/>
      <point x="76" y="1090"/>
      <point x="76" y="1042" type="curve" smooth="yes"/>
      <point x="76" y="982"/>
      <point x="23" y="970"/>
      <point x="-31" y="970" type="curve" smooth="yes"/>
      <point x="-59" y="970"/>
      <point x="-92" y="975"/>
      <point x="-110" y="982" type="curve"/>
      <point x="-103" y="950" type="line"/>
      <point x="-5" y="934"/>
      <point x="60" y="904"/>
    </contour>
  </outline>
</glyph>
<glyph name="uni1CD0" format="2">
  <unicode hex="1CD0"/>
  <note>
uni1CD0
</note>
  <anchor x="-299" y="-220" name="_vedic"/>
  <outline>
    <contour>
      <point x="-439" y="708" type="line"/>
      <point x="-289" y="888" type="line"/>
      <point x="-298" y="886" type="line"/>
      <point x="-153" y="710" type="line"/>
      <point x="-137" y="725" type="line"/>
      <point x="-295" y="917" type="line"/>
      <point x="-459" y="723" type="line"/>
    </contour>
  </outline>
</glyph>
<glyph name="uni1CD2" format="2">
  <unicode hex="1CD2"/>
  <note>
uni1CD2
</note>
  <anchor x="-299" y="-220" name="_vedic"/>
  <outline>
    <contour>
      <point x="-453" y="774" type="line"/>
      <point x="-131" y="774" type="line"/>
      <point x="-143" y="794" type="line"/>
      <point x="-466" y="794" type="line"/>
    </contour>
  </outline>
</glyph>
<glyph name="uni1CD5" format="2">
  <unicode hex="1CD5"/>
  <note>
uni1CD5
</note>
  <anchor x="-299" y="340" name="_vedic"/>
  <outline>
    <contour>
      <point x="-391" y="-294" type="curve" smooth="yes"/>
      <point x="-319" y="-294"/>
      <point x="-278" y="-245"/>
      <point x="-278" y="-164" type="curve" smooth="yes"/>
      <point x="-278" y="-123" type="line"/>
      <point x="-299" y="-113" type="line"/>
      <point x="-299" y="-161" type="line" smooth="yes"/>
      <point x="-299" y="-232"/>
      <point x="-328" y="-274"/>
      <point x="-391" y="-274" type="curve" smooth="yes"/>
      <point x="-434" y="-274"/>
      <point x="-475" y="-243"/>
      <point x="-475" y="-192" type="curve" smooth="yes"/>
      <point x="-475" y="-152"/>
      <point x="-464" y="-132"/>
      <point x="-434" y="-95" type="curve"/>
      <point x="-451" y="-84" type="line"/>
      <point x="-477" y="-115"/>
      <point x="-496" y="-152"/>
      <point x="-496" y="-190" type="curve" smooth="yes"/>
      <point x="-496" y="-253"/>
      <point x="-446" y="-294"/>
    </contour>
    <contour>
      <point x="-194" y="-294" type="curve" smooth="yes"/>
      <point x="-136" y="-294"/>
      <point x="-101" y="-258"/>
      <point x="-101" y="-204" type="curve" smooth="yes"/>
      <point x="-101" y="-157"/>
      <point x="-121" y="-122"/>
      <point x="-151" y="-84" type="curve"/>
      <point x="-167" y="-96" type="line"/>
      <point x="-138" y="-132"/>
      <point x="-122" y="-162"/>
      <point x="-122" y="-199" type="curve" smooth="yes"/>
      <point x="-122" y="-243"/>
      <point x="-144" y="-274"/>
      <point x="-197" y="-274" type="curve" smooth="yes"/>
      <point x="-232" y="-274"/>
      <point x="-266" y="-251"/>
      <point x="-286" y="-210" type="curve"/>
      <point x="-302" y="-220" type="line"/>
      <point x="-279" y="-268"/>
      <point x="-238" y="-294"/>
    </contour>
  </outline>
</glyph>
<glyph name="uni1CD8" format="2">
  <unicode hex="1CD8"/>
  <note>
uni1CD8
</note>
  <anchor x="-299" y="340" name="_vedic"/>
  <outline>
    <contour>
      <point x="-292" y="-262" type="curve" smooth="yes"/>
      <point x="-192" y="-262"/>
      <point x="-139" y="-193"/>
      <point x="-124" y="-90" type="curve"/>
      <point x="-146" y="-85" type="line"/>
      <point x="-157" y="-179"/>
      <point x="-201" y="-240"/>
      <point x="-295" y="-240" type="curve" smooth="yes"/>
      <point x="-384" y="-240"/>
      <point x="-435" y="-182"/>
      <point x="-454" y="-85" type="curve"/>
      <point x="-474" y="-90" type="line"/>
      <point x="-455" y="-190"/>
      <point x="-401" y="-262"/>
    </contour>
  </outline>
</glyph>
<glyph name="uni1CE1" format="2">
  <advance width="482"/>
  <unicode hex="1CE1"/>
  <note>
uni1CE1
</note>
  <outline>
    <contour>
      <point x="138" y="-146" type="curve" smooth="yes"/>
      <point x="230" y="-146"/>
      <point x="274" y="-82"/>
      <point x="274" y="39" type="curve" smooth="yes"/>
      <point x="274" y="216"/>
      <point x="213" y="490"/>
      <point x="213" y="646" type="curve" smooth="yes"/>
      <point x="213" y="758"/>
      <point x="251" y="814"/>
      <point x="314" y="814" type="curve" smooth="yes"/>
      <point x="362" y="814"/>
      <point x="398" y="777"/>
      <point x="426" y="713" type="curve"/>
      <point x="442" y="719" type="line"/>
      <point x="412" y="797"/>
      <point x="371" y="836"/>
      <point x="313" y="836" type="curve" smooth="yes"/>
      <point x="234" y="836"/>
      <point x="190" y="768"/>
      <point x="190" y="652" type="curve" smooth="yes"/>
      <point x="190" y="483"/>
      <point x="251" y="210"/>
      <point x="251" y="44" type="curve" smooth="yes"/>
      <point x="251" y="-79"/>
      <point x="213" y="-124"/>
      <point x="132" y="-124" type="curve" smooth="yes"/>
      <point x="90" y="-124"/>
      <point x="53" y="-108"/>
      <point x="10" y="-73" type="curve"/>
      <point x="0" y="-86" type="line"/>
      <point x="42" y="-128"/>
      <point x="89" y="-146"/>
    </contour>
  </outline>
</glyph>
<glyph name="uni1CEA" format="2">
  <advance width="709"/>
  <unicode hex="1CEA"/>
  <note>
uni1CEA
</note>
  <anchor x="354" y="0" name="vedic"/>
  <outline>
    <contour>
      <point x="351" y="-5" type="curve" smooth="yes"/>
      <point x="508" y="-5"/>
      <point x="607" y="67"/>
      <point x="607" y="186" type="curve" smooth="yes"/>
      <point x="607" y="327"/>
      <point x="445" y="376"/>
      <point x="445" y="496" type="curve" smooth="yes"/>
      <point x="445" y="560"/>
      <point x="496" y="612"/>
      <point x="562" y="612" type="curve" smooth="yes"/>
      <point x="621" y="612"/>
      <point x="655" y="579"/>
      <point x="655" y="525" type="curve" smooth="yes"/>
      <point x="655" y="485"/>
      <point x="625" y="445"/>
      <point x="549" y="432" type="curve"/>
      <point x="559" y="409" type="line"/>
      <point x="638" y="428"/>
      <point x="678" y="469"/>
      <point x="678" y="523" type="curve" smooth="yes"/>
      <point x="678" y="586"/>
      <point x="629" y="633"/>
      <point x="559" y="633" type="curve" smooth="yes"/>
      <point x="480" y="633"/>
      <point x="422" y="575"/>
      <point x="422" y="497" type="curve" smooth="yes"/>
      <point x="422" y="369"/>
      <point x="585" y="313"/>
      <point x="585" y="186" type="curve" smooth="yes"/>
      <point x="585" y="83"/>
      <point x="488" y="16"/>
      <point x="349" y="16" type="curve" smooth="yes"/>
      <point x="206" y="16"/>
      <point x="117" y="86"/>
      <point x="117" y="177" type="curve" smooth="yes"/>
      <point x="117" y="317"/>
      <point x="308" y="351"/>
      <point x="308" y="503" type="curve" smooth="yes"/>
      <point x="308" y="568"/>
      <point x="263" y="628"/>
      <point x="175" y="628" type="curve" smooth="yes"/>
      <point x="101" y="628"/>
      <point x="47" y="579"/>
      <point x="47" y="519" type="curve" smooth="yes"/>
      <point x="47" y="461"/>
      <point x="86" y="422"/>
      <point x="138" y="394" type="curve"/>
      <point x="148" y="411" type="line"/>
      <point x="105" y="436"/>
      <point x="70" y="466"/>
      <point x="70" y="514" type="curve" smooth="yes"/>
      <point x="70" y="566"/>
      <point x="111" y="607"/>
      <point x="181" y="607" type="curve" smooth="yes"/>
      <point x="253" y="607"/>
      <point x="285" y="559"/>
      <point x="285" y="502" type="curve" smooth="yes"/>
      <point x="285" y="366"/>
      <point x="94" y="327"/>
      <point x="94" y="182" type="curve" smooth="yes"/>
      <point x="94" y="78"/>
      <point x="194" y="-5"/>
    </contour>
  </outline>
</glyph>
<glyph name="uni1CED" format="2">
  <unicode hex="1CED"/>
  <note>
uni1CED
</note>
  <anchor x="-299" y="340" name="_vedic"/>
  <outline>
    <contour>
      <point x="-398" y="-103" type="line"/>
      <point x="-142" y="-288" type="line"/>
      <point x="-128" y="-271" type="line"/>
      <point x="-383" y="-83" type="line"/>
    </contour>
  </outline>
</glyph>
<glyph name="uni1CF2" format="2">
  <advance width="463"/>
  <unicode hex="1CF2"/>
  <note>
uni1CF2
</note>
  <anchor x="-184" y="0" name="vedic"/>
  <outline>
    <contour>
      <point x="236" y="315" type="curve" smooth="yes"/>
      <point x="343" y="315"/>
      <point x="408" y="386"/>
      <point x="424" y="489" type="curve"/>
      <point x="399" y="494" type="line"/>
      <point x="388" y="399"/>
      <point x="327" y="337"/>
      <point x="230" y="337" type="curve" smooth="yes"/>
      <point x="134" y="337"/>
      <point x="79" y="397"/>
      <point x="61" y="494" type="curve"/>
      <point x="39" y="489" type="line"/>
      <point x="60" y="389"/>
      <point x="118" y="315"/>
    </contour>
    <contour>
      <point x="64" y="67" type="line"/>
      <point x="75" y="162"/>
      <point x="136" y="224"/>
      <point x="232" y="224" type="curve" smooth="yes"/>
      <point x="329" y="224"/>
      <point x="384" y="164"/>
      <point x="402" y="67" type="curve"/>
      <point x="424" y="72" type="line"/>
      <point x="403" y="173"/>
      <point x="345" y="247"/>
      <point x="227" y="247" type="curve" smooth="yes"/>
      <point x="120" y="247"/>
      <point x="55" y="176"/>
      <point x="39" y="73" type="curve"/>
    </contour>
  </outline>
</glyph>
<glyph name="uni1CF5" format="2">
  <advance width="420"/>
  <unicode hex="1CF5"/>
  <outline>
    <contour>
      <point x="368" y="456" type="line"/>
      <point x="349" y="471" type="line"/>
      <point x="210" y="299" type="line"/>
      <point x="71" y="471" type="line"/>
      <point x="52" y="456" type="line"/>
      <point x="195" y="282" type="line"/>
      <point x="52" y="108" type="line"/>
      <point x="71" y="93" type="line"/>
      <point x="210" y="266" type="line"/>
      <point x="349" y="93" type="line"/>
      <point x="368" y="108" type="line"/>
      <point x="225" y="282" type="line"/>
    </contour>
  </outline>
</glyph>
<glyph name="uni1CF6" format="2">
  <advance width="539"/>
  <unicode hex="1CF6"/>
  <note>
uni1CF6
</note>
  <outline>
    <contour>
      <point x="172" y="147" type="curve" smooth="yes"/>
      <point x="244" y="147"/>
      <point x="290" y="187"/>
      <point x="290" y="305" type="curve" smooth="yes"/>
      <point x="290" y="408" type="line"/>
      <point x="267" y="416" type="line"/>
      <point x="267" y="305" type="line" smooth="yes"/>
      <point x="267" y="205"/>
      <point x="237" y="170"/>
      <point x="171" y="170" type="curve" smooth="yes"/>
      <point x="120" y="170"/>
      <point x="75" y="205"/>
      <point x="75" y="299" type="curve" smooth="yes"/>
      <point x="75" y="353"/>
      <point x="94" y="397"/>
      <point x="121" y="434" type="curve"/>
      <point x="104" y="447" type="line"/>
      <point x="75" y="409"/>
      <point x="52" y="361"/>
      <point x="52" y="299" type="curve" smooth="yes"/>
      <point x="52" y="193"/>
      <point x="107" y="147"/>
    </contour>
    <contour>
      <point x="384" y="147" type="curve" smooth="yes"/>
      <point x="442" y="147"/>
      <point x="487" y="187"/>
      <point x="487" y="279" type="curve" smooth="yes"/>
      <point x="487" y="360"/>
      <point x="454" y="404"/>
      <point x="416" y="448" type="curve"/>
      <point x="400" y="435" type="line"/>
      <point x="440" y="389"/>
      <point x="464" y="350"/>
      <point x="464" y="280" type="curve" smooth="yes"/>
      <point x="464" y="198"/>
      <point x="429" y="170"/>
      <point x="381" y="170" type="curve" smooth="yes"/>
      <point x="342" y="170"/>
      <point x="299" y="190"/>
      <point x="277" y="249" type="curve"/>
      <point x="265" y="230" type="line"/>
      <point x="291" y="176"/>
      <point x="333" y="147"/>
    </contour>
  </outline>
</glyph>
<glyph name="uni1CF7" format="2">
  <advance width="482"/>
  <unicode hex="1CF7"/>
  <note>
uni1CE1
</note>
  <outline>
    <contour>
      <point x="263" y="-146" type="line"/>
      <point x="269" y="-94"/>
      <point x="274" y="-34"/>
      <point x="274" y="37" type="curve" smooth="yes"/>
      <point x="274" y="278"/>
      <point x="193" y="435"/>
      <point x="193" y="642" type="curve" smooth="yes"/>
      <point x="193" y="755"/>
      <point x="240" y="814"/>
      <point x="311" y="814" type="curve" smooth="yes"/>
      <point x="362" y="814"/>
      <point x="398" y="777"/>
      <point x="426" y="713" type="curve"/>
      <point x="442" y="719" type="line"/>
      <point x="412" y="797"/>
      <point x="371" y="836"/>
      <point x="310" y="836" type="curve" smooth="yes"/>
      <point x="226" y="836"/>
      <point x="170" y="768"/>
      <point x="170" y="646" type="curve" smooth="yes"/>
      <point x="170" y="435"/>
      <point x="251" y="268"/>
      <point x="251" y="42" type="curve" smooth="yes"/>
      <point x="251" y="-34"/>
      <point x="247" y="-94"/>
      <point x="239" y="-143" type="curve"/>
    </contour>
  </outline>
</glyph>
<glyph name="emdash" format="2">
  <advance width="1000"/>
  <unicode hex="2014"/>
  <outline>
    <contour>
      <point x="-5" y="259" type="line"/>
      <point x="1005" y="259" type="line"/>
      <point x="1005" y="286" type="line"/>
      <point x="-5" y="286" type="line"/>
    </contour>
  </outline>
</glyph>
<glyph name="quotedblleft" format="2">
  <advance width="367"/>
  <unicode hex="201C"/>
  <outline>
    <contour>
      <point x="263" y="480" type="curve" smooth="yes"/>
      <point x="282" y="480"/>
      <point x="299" y="491"/>
      <point x="299" y="514" type="curve" smooth="yes"/>
      <point x="299" y="555"/>
      <point x="240" y="554"/>
      <point x="240" y="588" type="curve" smooth="yes"/>
      <point x="240" y="619"/>
      <point x="268" y="677"/>
      <point x="327" y="694" type="curve"/>
      <point x="327" y="714" type="line"/>
      <point x="245" y="689"/>
      <point x="210" y="620"/>
      <point x="210" y="553" type="curve" smooth="yes"/>
      <point x="210" y="501"/>
      <point x="236" y="480"/>
    </contour>
    <contour>
      <point x="108" y="480" type="curve" smooth="yes"/>
      <point x="127" y="480"/>
      <point x="144" y="491"/>
      <point x="144" y="514" type="curve" smooth="yes"/>
      <point x="144" y="555"/>
      <point x="85" y="554"/>
      <point x="85" y="588" type="curve" smooth="yes"/>
      <point x="85" y="619"/>
      <point x="113" y="677"/>
      <point x="172" y="694" type="curve"/>
      <point x="172" y="714" type="line"/>
      <point x="90" y="689"/>
      <point x="55" y="620"/>
      <point x="55" y="553" type="curve" smooth="yes"/>
      <point x="55" y="501"/>
      <point x="81" y="480"/>
    </contour>
  </outline>
</glyph>
<glyph name="ellipsis" format="2">
  <advance width="679"/>
  <unicode hex="2026"/>
  <outline>
    <contour>
      <point x="586" y="-5" type="curve" smooth="yes"/>
      <point x="602" y="-5"/>
      <point x="615" y="4"/>
      <point x="615" y="35" type="curve" smooth="yes"/>
      <point x="615" y="65"/>
      <point x="602" y="73"/>
      <point x="586" y="73" type="curve" smooth="yes"/>
      <point x="571" y="73"/>
      <point x="557" y="65"/>
      <point x="557" y="35" type="curve" smooth="yes"/>
      <point x="557" y="4"/>
      <point x="571" y="-5"/>
    </contour>
    <contour>
      <point x="146" y="-5" type="curve" smooth="yes"/>
      <point x="162" y="-5"/>
      <point x="175" y="4"/>
      <point x="175" y="35" type="curve" smooth="yes"/>
      <point x="175" y="65"/>
      <point x="162" y="73"/>
      <point x="146" y="73" type="curve" smooth="yes"/>
      <point x="131" y="73"/>
      <point x="117" y="65"/>
      <point x="117" y="35" type="curve" smooth="yes"/>
      <point x="117" y="4"/>
      <point x="131" y="-5"/>
    </contour>
    <contour>
      <point x="366" y="-5" type="curve" smooth="yes"/>
      <point x="382" y="-5"/>
      <point x="395" y="4"/>
      <point x="395" y="35" type="curve" smooth="yes"/>
      <point x="395" y="65"/>
      <point x="382" y="73"/>
      <point x="366" y="73" type="curve" smooth="yes"/>
      <point x="351" y="73"/>
      <point x="337" y="65"/>
      <point x="337" y="35" type="curve" smooth="yes"/>
      <point x="337" y="4"/>
      <point x="351" y="-5"/>
    </contour>
  </outline>
</glyph>
<glyph name="minus" format="2">
  <advance width="559"/>
  <unicode hex="2212"/>
  <outline>
    <contour>
      <point x="65" y="343" type="line"/>
      <point x="494" y="343" type="line"/>
      <point x="494" y="371" type="line"/>
      <point x="65" y="371" type="line"/>
    </contour>
  </outline>
</glyph>
<glyph name="uniA8F1" format="2">
  <unicode hex="A8F1"/>
  <note>
uniA8F1
</note>
  <outline>
    <contour>
      <point x="-94" y="908" type="curve" smooth="yes"/>
      <point x="-54" y="908"/>
      <point x="-30" y="933"/>
      <point x="-30" y="968" type="curve" smooth="yes"/>
      <point x="-30" y="1049"/>
      <point x="-145" y="1077"/>
      <point x="-145" y="1130" type="curve" smooth="yes"/>
      <point x="-145" y="1150"/>
      <point x="-131" y="1161"/>
      <point x="-105" y="1161" type="curve" smooth="yes"/>
      <point x="-43" y="1161" type="line"/>
      <point x="-43" y="1166" type="line"/>
      <point x="-54" y="1180" type="line"/>
      <point x="-106" y="1180" type="line" smooth="yes"/>
      <point x="-146" y="1180"/>
      <point x="-165" y="1161"/>
      <point x="-165" y="1135" type="curve" smooth="yes"/>
      <point x="-165" y="1064"/>
      <point x="-50" y="1039"/>
      <point x="-50" y="973" type="curve" smooth="yes"/>
      <point x="-50" y="946"/>
      <point x="-64" y="927"/>
      <point x="-98" y="927" type="curve" smooth="yes"/>
      <point x="-134" y="927"/>
      <point x="-165" y="954"/>
      <point x="-197" y="1011" type="curve"/>
      <point x="-214" y="1002" type="line"/>
      <point x="-177" y="936"/>
      <point x="-142" y="908"/>
    </contour>
  </outline>
</glyph>
<glyph name="aaMatra-beng.fina" format="2">
  <advance width="196"/>
  <outline>
    <contour>
      <point x="118" y="-10" type="line"/>
      <point x="121" y="-9" type="line"/>
      <point x="121" y="661" type="line"/>
      <point x="102" y="674" type="line"/>
      <point x="98" y="673" type="line"/>
      <point x="98" y="618" type="line" smooth="yes"/>
      <point x="98" y="600"/>
      <point x="99" y="570"/>
      <point x="101" y="529" type="curve"/>
      <point x="108" y="527" type="line"/>
      <point x="102" y="610"/>
      <point x="59" y="622"/>
      <point x="27" y="622" type="curve" smooth="yes"/>
      <point x="-19" y="622" type="line"/>
      <point x="-5" y="602" type="line"/>
      <point x="21" y="602" type="line" smooth="yes"/>
      <point x="65" y="602"/>
      <point x="91" y="578"/>
      <point x="98" y="514" type="curve"/>
      <point x="98" y="3" type="line"/>
    </contour>
  </outline>
</glyph>
<glyph name="assacross" format="2">
  <advance width="523"/>
  <anchor x="214" y="88" name="_nukta"/>
  <outline>
    <contour>
      <point x="409" y="207" type="curve"/>
      <point x="417" y="225" type="line"/>
      <point x="354" y="318"/>
      <point x="286" y="360"/>
      <point x="206" y="409" type="curve"/>
      <point x="182" y="393" type="line"/>
      <point x="265" y="355"/>
      <point x="343" y="297"/>
    </contour>
  </outline>
</glyph>
<glyph name="assastroke" format="2">
  <advance width="523"/>
  <anchor x="214" y="88" name="_nukta"/>
  <outline>
    <contour>
      <point x="304" y="15" type="curve"/>
      <point x="318" y="25" type="line"/>
      <point x="275" y="90"/>
      <point x="212" y="156"/>
      <point x="114" y="173" type="curve"/>
      <point x="122" y="145" type="line"/>
      <point x="207" y="125"/>
      <point x="256" y="78"/>
    </contour>
  </outline>
</glyph>
<glyph name="auLength-beng.fina" format="2">
  <advance width="197"/>
  <anchor x="243" y="612" name="top"/>
  <anchor x="-47" y="650" name="topright"/>
  <outline>
    <contour>
      <point x="119" y="-10" type="line"/>
      <point x="122" y="-9" type="line"/>
      <point x="122" y="622" type="line" smooth="yes"/>
      <point x="122" y="727"/>
      <point x="68" y="777"/>
      <point x="-34" y="777" type="curve" smooth="yes"/>
      <point x="-109" y="777"/>
      <point x="-178" y="756"/>
      <point x="-273" y="756" type="curve" smooth="yes"/>
      <point x="-344" y="756"/>
      <point x="-390" y="783"/>
      <point x="-390" y="861" type="curve" smooth="yes"/>
      <point x="-390" y="872"/>
      <point x="-389" y="885"/>
      <point x="-387" y="898" type="curve"/>
      <point x="-405" y="900" type="line"/>
      <point x="-407" y="890"/>
      <point x="-409" y="871"/>
      <point x="-409" y="856" type="curve" smooth="yes"/>
      <point x="-409" y="767"/>
      <point x="-357" y="733"/>
      <point x="-274" y="733" type="curve" smooth="yes"/>
      <point x="-177" y="733"/>
      <point x="-113" y="754"/>
      <point x="-31" y="754" type="curve" smooth="yes"/>
      <point x="60" y="754"/>
      <point x="100" y="698"/>
      <point x="100" y="637" type="curve" smooth="yes"/>
      <point x="100" y="632"/>
      <point x="100" y="623"/>
      <point x="99" y="616" type="curve"/>
      <point x="112" y="622" type="line"/>
      <point x="-18" y="622" type="line"/>
      <point x="-4" y="602" type="line"/>
      <point x="99" y="602" type="line"/>
      <point x="99" y="3" type="line"/>
    </contour>
  </outline>
</glyph>
<glyph name="b_ba-beng" format="2">
  <advance width="868"/>
  <anchor x="766" y="11" name="bottom"/>
  <anchor x="776" y="50" name="bottom.rakaar"/>
  <anchor x="776" y="6" name="bottom.rvocalic"/>
  <anchor x="766" y="0" name="bottom.virama"/>
  <anchor x="776" y="602" name="top"/>
  <anchor x="779" y="602" name="topright"/>
  <outline>
    <contour>
      <point x="401" y="-3" type="line"/>
      <point x="404" y="-2" type="line"/>
      <point x="404" y="602" type="line"/>
      <point x="753" y="602" type="line"/>
      <point x="753" y="508" type="line"/>
      <point x="762" y="523" type="line"/>
      <point x="652" y="489"/>
      <point x="528" y="421"/>
      <point x="422" y="332" type="curve"/>
      <point x="436" y="304" type="line"/>
      <point x="580" y="255"/>
      <point x="683" y="160"/>
      <point x="758" y="11" type="curve"/>
      <point x="773" y="-3" type="line"/>
      <point x="776" y="-2" type="line"/>
      <point x="776" y="602" type="line"/>
      <point x="887" y="602" type="line"/>
      <point x="873" y="622" type="line"/>
      <point x="-19" y="622" type="line"/>
      <point x="-5" y="602" type="line"/>
      <point x="381" y="602" type="line"/>
      <point x="381" y="508" type="line"/>
      <point x="390" y="523" type="line"/>
      <point x="280" y="489"/>
      <point x="158" y="421"/>
      <point x="50" y="332" type="curve"/>
      <point x="64" y="304" type="line"/>
      <point x="209" y="255"/>
      <point x="312" y="160"/>
      <point x="385" y="11" type="curve"/>
    </contour>
    <contour>
      <point x="381" y="33" type="line"/>
      <point x="388" y="43" type="line"/>
      <point x="320" y="182"/>
      <point x="216" y="274"/>
      <point x="76" y="327" type="curve"/>
      <point x="77" y="319" type="line"/>
      <point x="189" y="415"/>
      <point x="314" y="474"/>
      <point x="388" y="496" type="curve"/>
      <point x="381" y="505" type="line"/>
    </contour>
    <contour>
      <point x="753" y="33" type="line"/>
      <point x="760" y="43" type="line"/>
      <point x="691" y="183"/>
      <point x="587" y="274"/>
      <point x="448" y="327" type="curve"/>
      <point x="449" y="319" type="line"/>
      <point x="559" y="415"/>
      <point x="686" y="474"/>
      <point x="760" y="496" type="curve"/>
      <point x="753" y="505" type="line"/>
    </contour>
  </outline>
</glyph>
<glyph name="b_bha-beng" format="2">
  <advance width="588"/>
  <anchor x="418" y="-51" name="bottom"/>
  <anchor x="490" y="-142" name="bottom.rakaar"/>
  <anchor x="409" y="-31" name="bottom.rvocalic"/>
  <anchor x="377" y="-86" name="bottom.virama"/>
  <anchor x="485" y="602" name="top"/>
  <anchor x="488" y="602" name="topright"/>
  <outline>
    <contour>
      <point x="379" y="-31" type="curve" smooth="yes"/>
      <point x="470" y="-31"/>
      <point x="542" y="17"/>
      <point x="542" y="126" type="curve" smooth="yes"/>
      <point x="542" y="196"/>
      <point x="517" y="232"/>
      <point x="479" y="276" type="curve"/>
      <point x="432" y="207"/>
      <point x="377" y="177"/>
      <point x="317" y="182" type="curve"/>
      <point x="317" y="175" type="line"/>
      <point x="334" y="180"/>
      <point x="341" y="195"/>
      <point x="341" y="210" type="curve" smooth="yes"/>
      <point x="341" y="235"/>
      <point x="325" y="252"/>
      <point x="298" y="252" type="curve" smooth="yes"/>
      <point x="270" y="252"/>
      <point x="254" y="232"/>
      <point x="254" y="210" type="curve" smooth="yes"/>
      <point x="254" y="181"/>
      <point x="273" y="157"/>
      <point x="327" y="157" type="curve" smooth="yes"/>
      <point x="376" y="157"/>
      <point x="443" y="184"/>
      <point x="489" y="252" type="curve"/>
      <point x="471" y="255" type="line"/>
      <point x="489" y="232"/>
      <point x="520" y="199"/>
      <point x="520" y="133" type="curve" smooth="yes"/>
      <point x="520" y="45"/>
      <point x="467" y="-5"/>
      <point x="376" y="-5" type="curve" smooth="yes"/>
      <point x="219" y="-5"/>
      <point x="116" y="170"/>
      <point x="51" y="487" type="curve"/>
      <point x="32" y="482" type="line"/>
      <point x="98" y="140"/>
      <point x="208" y="-31"/>
    </contour>
    <contour>
      <point x="462" y="261" type="line"/>
      <point x="469" y="269" type="line"/>
      <point x="409" y="351"/>
      <point x="314" y="401"/>
      <point x="191" y="430" type="curve"/>
      <point x="192" y="422" type="line"/>
      <point x="297" y="484"/>
      <point x="398" y="523"/>
      <point x="469" y="542" type="curve"/>
      <point x="462" y="549" type="line"/>
    </contour>
    <contour>
      <point x="466" y="243" type="curve"/>
      <point x="485" y="260" type="line"/>
      <point x="485" y="602" type="line"/>
      <point x="607" y="602" type="line"/>
      <point x="593" y="622" type="line"/>
      <point x="-19" y="622" type="line"/>
      <point x="-5" y="602" type="line"/>
      <point x="462" y="602" type="line"/>
      <point x="462" y="557" type="line"/>
      <point x="470" y="569" type="line"/>
      <point x="367" y="541"/>
      <point x="269" y="497"/>
      <point x="166" y="437" type="curve"/>
      <point x="179" y="407" type="line"/>
      <point x="308" y="381"/>
      <point x="401" y="330"/>
    </contour>
  </outline>
</glyph>
<glyph name="b_d_ra-beng" format="2">
  <advance width="738"/>
  <anchor x="643" y="58" name="bottom"/>
  <anchor x="657" y="-7" name="bottom.rvocalic"/>
  <anchor x="647" y="2" name="bottom.virama"/>
  <anchor x="607" y="602" name="top"/>
  <anchor x="587" y="602" name="topright"/>
  <outline>
    <contour>
      <point x="654" y="-5" type="line"/>
      <point x="657" y="-4" type="line"/>
      <point x="633" y="63"/>
      <point x="617" y="118"/>
      <point x="617" y="226" type="curve" smooth="yes"/>
      <point x="617" y="318"/>
      <point x="639" y="404"/>
      <point x="663" y="443" type="curve"/>
      <point x="637" y="472" type="line"/>
      <point x="551" y="432"/>
      <point x="403" y="313"/>
      <point x="341" y="236" type="curve"/>
      <point x="354" y="229" type="line"/>
      <point x="354" y="602" type="line"/>
      <point x="757" y="602" type="line"/>
      <point x="744" y="622" type="line"/>
      <point x="-19" y="622" type="line"/>
      <point x="-4" y="602" type="line"/>
      <point x="331" y="602" type="line"/>
      <point x="331" y="257" type="line"/>
      <point x="341" y="259" type="line"/>
      <point x="293" y="337"/>
      <point x="178" y="400"/>
      <point x="95" y="419" type="curve"/>
      <point x="95" y="411" type="line"/>
      <point x="148" y="452"/>
      <point x="304" y="523"/>
      <point x="343" y="530" type="curve"/>
      <point x="343" y="558" type="line"/>
      <point x="228" y="518"/>
      <point x="120" y="461"/>
      <point x="68" y="424" type="curve"/>
      <point x="82" y="396" type="line"/>
      <point x="170" y="381"/>
      <point x="284" y="318"/>
      <point x="349" y="215" type="curve"/>
      <point x="353" y="215" type="line"/>
      <point x="440" y="311"/>
      <point x="572" y="413"/>
      <point x="646" y="447" type="curve"/>
      <point x="641" y="454" type="line"/>
      <point x="616" y="424"/>
      <point x="593" y="322"/>
      <point x="593" y="234" type="curve" smooth="yes"/>
      <point x="593" y="169"/>
      <point x="603" y="104"/>
      <point x="620" y="48" type="curve"/>
      <point x="626" y="51" type="line"/>
      <point x="588" y="117"/>
      <point x="503" y="133"/>
      <point x="465" y="133" type="curve" smooth="yes"/>
      <point x="385" y="133"/>
      <point x="316" y="108"/>
      <point x="237" y="108" type="curve" smooth="yes"/>
      <point x="142" y="108"/>
      <point x="101" y="137"/>
      <point x="101" y="215" type="curve" smooth="yes"/>
      <point x="101" y="238"/>
      <point x="106" y="263"/>
      <point x="113" y="285" type="curve"/>
      <point x="93" y="290" type="line"/>
      <point x="86" y="268"/>
      <point x="80" y="236"/>
      <point x="80" y="205" type="curve" smooth="yes"/>
      <point x="80" y="113"/>
      <point x="136" y="82"/>
      <point x="235" y="82" type="curve" smooth="yes"/>
      <point x="322" y="82"/>
      <point x="380" y="107"/>
      <point x="469" y="107" type="curve" smooth="yes"/>
      <point x="515" y="107"/>
      <point x="591" y="89"/>
      <point x="635" y="5" type="curve"/>
    </contour>
  </outline>
</glyph>
<glyph name="b_da-beng" format="2">
  <advance width="708"/>
  <anchor x="608" y="82" name="bottom"/>
  <anchor x="627" y="70" name="bottom.rakaar"/>
  <anchor x="615" y="13" name="bottom.rvocalic"/>
  <anchor x="622" y="0" name="bottom.virama"/>
  <anchor x="324" y="602" name="top"/>
  <anchor x="487" y="602" name="topleft"/>
  <anchor x="327" y="602" name="topright"/>
  <outline>
    <contour>
      <point x="609" y="2" type="curve"/>
      <point x="627" y="8" type="line"/>
      <point x="606" y="75"/>
      <point x="587" y="136"/>
      <point x="587" y="236" type="curve" smooth="yes"/>
      <point x="587" y="328"/>
      <point x="609" y="404"/>
      <point x="633" y="443" type="curve"/>
      <point x="607" y="472" type="line"/>
      <point x="521" y="432"/>
      <point x="373" y="313"/>
      <point x="311" y="236" type="curve"/>
      <point x="324" y="229" type="line"/>
      <point x="324" y="602" type="line"/>
      <point x="727" y="602" type="line"/>
      <point x="714" y="622" type="line"/>
      <point x="-19" y="622" type="line"/>
      <point x="-4" y="602" type="line"/>
      <point x="301" y="602" type="line"/>
      <point x="301" y="257" type="line"/>
      <point x="311" y="259" type="line"/>
      <point x="263" y="337"/>
      <point x="148" y="400"/>
      <point x="65" y="419" type="curve"/>
      <point x="65" y="411" type="line"/>
      <point x="118" y="452"/>
      <point x="274" y="523"/>
      <point x="313" y="530" type="curve"/>
      <point x="313" y="558" type="line"/>
      <point x="198" y="518"/>
      <point x="90" y="461"/>
      <point x="38" y="424" type="curve"/>
      <point x="52" y="396" type="line"/>
      <point x="140" y="381"/>
      <point x="254" y="318"/>
      <point x="319" y="215" type="curve"/>
      <point x="323" y="215" type="line"/>
      <point x="411" y="312"/>
      <point x="542" y="413"/>
      <point x="616" y="447" type="curve"/>
      <point x="611" y="454" type="line"/>
      <point x="586" y="424"/>
      <point x="563" y="332"/>
      <point x="563" y="244" type="curve" smooth="yes"/>
      <point x="563" y="156"/>
      <point x="585" y="77"/>
    </contour>
  </outline>
</glyph>
<glyph name="b_dha-beng" format="2">
  <advance width="599"/>
  <anchor x="414" y="-25" name="bottom"/>
  <anchor x="424" y="14" name="bottom.rakaar"/>
  <anchor x="424" y="-30" name="bottom.rvocalic"/>
  <anchor x="414" y="-36" name="bottom.virama"/>
  <anchor x="424" y="602" name="top"/>
  <anchor x="427" y="602" name="topright"/>
  <outline>
    <contour>
      <point x="421" y="-39" type="line"/>
      <point x="424" y="-38" type="line"/>
      <point x="424" y="602" type="line"/>
      <point x="618" y="602" type="line"/>
      <point x="603" y="622" type="line"/>
      <point x="-19" y="622" type="line"/>
      <point x="-5" y="602" type="line"/>
      <point x="401" y="602" type="line"/>
      <point x="401" y="524" type="line"/>
      <point x="411" y="539" type="line"/>
      <point x="287" y="506"/>
      <point x="163" y="447"/>
      <point x="53" y="372" type="curve"/>
      <point x="67" y="344" type="line"/>
      <point x="132" y="329"/>
      <point x="212" y="294"/>
      <point x="264" y="256" type="curve"/>
      <point x="283" y="268" type="line"/>
      <point x="215" y="320"/>
      <point x="148" y="346"/>
      <point x="80" y="367" type="curve"/>
      <point x="80" y="359" type="line"/>
      <point x="195" y="438"/>
      <point x="320" y="486"/>
      <point x="409" y="512" type="curve"/>
      <point x="401" y="521" type="line"/>
      <point x="401" y="-3" type="line"/>
      <point x="409" y="3" type="line"/>
      <point x="343" y="98"/>
      <point x="233" y="157"/>
      <point x="160" y="183" type="curve"/>
      <point x="160" y="175" type="line"/>
      <point x="300" y="259"/>
      <point x="417" y="303"/>
      <point x="525" y="336" type="curve"/>
      <point x="519" y="347" type="line"/>
      <point x="519" y="50" type="line"/>
      <point x="542" y="33" type="line"/>
      <point x="542" y="343" type="line"/>
      <point x="521" y="361" type="line"/>
      <point x="411" y="331"/>
      <point x="283" y="276"/>
      <point x="133" y="188" type="curve"/>
      <point x="147" y="160" type="line"/>
      <point x="225" y="136"/>
      <point x="337" y="76"/>
      <point x="406" y="-25" type="curve"/>
    </contour>
  </outline>
</glyph>
<glyph name="b_ja-beng" format="2">
  <advance width="796"/>
  <anchor x="684" y="102" name="bottom"/>
  <anchor x="703" y="90" name="bottom.rakaar"/>
  <anchor x="691" y="33" name="bottom.rvocalic"/>
  <anchor x="698" y="20" name="bottom.virama"/>
  <anchor x="344" y="602" name="top"/>
  <anchor x="586" y="602" name="topleft"/>
  <anchor x="347" y="602" name="topright"/>
  <outline>
    <contour>
      <point x="385" y="83" type="curve" smooth="yes"/>
      <point x="509" y="83"/>
      <point x="564" y="155"/>
      <point x="564" y="242" type="curve" smooth="yes"/>
      <point x="564" y="311"/>
      <point x="536" y="360"/>
      <point x="500" y="394" type="curve"/>
      <point x="463" y="330"/>
      <point x="425" y="301"/>
      <point x="387" y="301" type="curve" smooth="yes"/>
      <point x="362" y="301"/>
      <point x="344" y="317"/>
      <point x="344" y="343" type="curve" smooth="yes"/>
      <point x="344" y="602" type="line"/>
      <point x="815" y="602" type="line"/>
      <point x="801" y="622" type="line"/>
      <point x="-19" y="622" type="line"/>
      <point x="-5" y="602" type="line"/>
      <point x="321" y="602" type="line"/>
      <point x="321" y="333" type="line"/>
      <point x="326" y="333" type="line"/>
      <point x="275" y="396"/>
      <point x="213" y="441"/>
      <point x="140" y="460" type="curve"/>
      <point x="140" y="452" type="line"/>
      <point x="218" y="501"/>
      <point x="268" y="520"/>
      <point x="328" y="538" type="curve"/>
      <point x="330" y="565" type="line"/>
      <point x="232" y="533"/>
      <point x="185" y="507"/>
      <point x="113" y="465" type="curve"/>
      <point x="127" y="437" type="line"/>
      <point x="205" y="422"/>
      <point x="258" y="381"/>
      <point x="327" y="306" type="curve" smooth="yes"/>
      <point x="351" y="280"/>
      <point x="371" y="275"/>
      <point x="389" y="275" type="curve" smooth="yes"/>
      <point x="433" y="275"/>
      <point x="477" y="314"/>
      <point x="510" y="362" type="curve"/>
      <point x="493" y="371" type="line"/>
      <point x="520" y="345"/>
      <point x="542" y="306"/>
      <point x="542" y="249" type="curve" smooth="yes"/>
      <point x="542" y="161"/>
      <point x="482" y="110"/>
      <point x="385" y="110" type="curve" smooth="yes"/>
      <point x="200" y="110"/>
      <point x="96" y="287"/>
      <point x="35" y="499" type="curve"/>
      <point x="15" y="494" type="line"/>
      <point x="86" y="230"/>
      <point x="210" y="83"/>
    </contour>
    <contour>
      <point x="685" y="22" type="curve"/>
      <point x="702" y="29" type="line"/>
      <point x="680" y="97"/>
      <point x="663" y="158"/>
      <point x="663" y="237" type="curve" smooth="yes"/>
      <point x="663" y="331"/>
      <point x="672" y="396"/>
      <point x="723" y="487" type="curve"/>
      <point x="697" y="513" type="line"/>
      <point x="659" y="498"/>
      <point x="613" y="490"/>
      <point x="565" y="490" type="curve" smooth="yes"/>
      <point x="481" y="490"/>
      <point x="392" y="515"/>
      <point x="340" y="567" type="curve"/>
      <point x="336" y="551" type="line"/>
      <point x="384" y="494"/>
      <point x="484" y="466"/>
      <point x="577" y="466" type="curve" smooth="yes"/>
      <point x="623" y="466"/>
      <point x="668" y="472"/>
      <point x="703" y="486" type="curve"/>
      <point x="698" y="498" type="line"/>
      <point x="652" y="416"/>
      <point x="639" y="343"/>
      <point x="639" y="250" type="curve" smooth="yes"/>
      <point x="639" y="167"/>
      <point x="657" y="97"/>
    </contour>
  </outline>
</glyph>
<glyph name="b_la-beng" format="2">
  <advance width="520"/>
  <anchor x="410" y="-6" name="bottom"/>
  <anchor x="422" y="23" name="bottom.rakaar"/>
  <anchor x="422" y="-21" name="bottom.rvocalic"/>
  <anchor x="412" y="-27" name="bottom.virama"/>
  <anchor x="422" y="602" name="top"/>
  <anchor x="425" y="602" name="topright"/>
  <outline>
    <contour>
      <point x="419" y="-30" type="line"/>
      <point x="422" y="-29" type="line"/>
      <point x="422" y="602" type="line"/>
      <point x="539" y="602" type="line"/>
      <point x="525" y="622" type="line"/>
      <point x="-19" y="622" type="line"/>
      <point x="-5" y="602" type="line"/>
      <point x="399" y="602" type="line"/>
      <point x="399" y="508" type="line"/>
      <point x="409" y="523" type="line"/>
      <point x="289" y="490"/>
      <point x="178" y="431"/>
      <point x="62" y="348" type="curve"/>
      <point x="76" y="320" type="line"/>
      <point x="225" y="277"/>
      <point x="324" y="217"/>
      <point x="399" y="132" type="curve"/>
      <point x="403" y="11" type="line"/>
      <point x="408" y="17" type="line"/>
      <point x="397" y="68"/>
      <point x="358" y="140"/>
      <point x="309" y="140" type="curve" smooth="yes"/>
      <point x="276" y="140"/>
      <point x="250" y="110"/>
      <point x="246" y="58" type="curve"/>
      <point x="251" y="61" type="line"/>
      <point x="243" y="105"/>
      <point x="211" y="166"/>
      <point x="147" y="166" type="curve" smooth="yes"/>
      <point x="100" y="166"/>
      <point x="59" y="132"/>
      <point x="59" y="71" type="curve" smooth="yes"/>
      <point x="59" y="8"/>
      <point x="102" y="-34"/>
      <point x="158" y="-34" type="curve" smooth="yes"/>
      <point x="192" y="-34"/>
      <point x="210" y="-17"/>
      <point x="210" y="11" type="curve" smooth="yes"/>
      <point x="210" y="34"/>
      <point x="195" y="50"/>
      <point x="171" y="50" type="curve" smooth="yes"/>
      <point x="149" y="50"/>
      <point x="133" y="35"/>
      <point x="133" y="13" type="curve" smooth="yes"/>
      <point x="133" y="-2"/>
      <point x="139" y="-14"/>
      <point x="148" y="-19" type="curve"/>
      <point x="160" y="-9" type="line"/>
      <point x="155" y="-10"/>
      <point x="149" y="-10"/>
      <point x="144" y="-10" type="curve" smooth="yes"/>
      <point x="114" y="-10"/>
      <point x="80" y="16"/>
      <point x="80" y="68" type="curve" smooth="yes"/>
      <point x="80" y="117"/>
      <point x="113" y="140"/>
      <point x="151" y="140" type="curve" smooth="yes"/>
      <point x="205" y="140"/>
      <point x="232" y="87"/>
      <point x="246" y="35" type="curve"/>
      <point x="261" y="29" type="line"/>
      <point x="265" y="85"/>
      <point x="285" y="115"/>
      <point x="312" y="115" type="curve" smooth="yes"/>
      <point x="364" y="115"/>
      <point x="396" y="18"/>
      <point x="404" y="-16" type="curve"/>
    </contour>
    <contour>
      <point x="399" y="144" type="line"/>
      <point x="407" y="153" type="line"/>
      <point x="336" y="235"/>
      <point x="236" y="295"/>
      <point x="89" y="343" type="curve"/>
      <point x="89" y="335" type="line"/>
      <point x="211" y="425"/>
      <point x="325" y="475"/>
      <point x="407" y="496" type="curve"/>
      <point x="399" y="505" type="line"/>
    </contour>
  </outline>
</glyph>
<glyph name="b_ra_uMatra-beng" format="2">
  <advance width="807"/>
  <anchor x="485" y="-28" name="bottom"/>
  <anchor x="495" y="-33" name="bottom.rvocalic"/>
  <anchor x="485" y="-35" name="bottom.virama"/>
  <anchor x="495" y="602" name="top"/>
  <anchor x="498" y="602" name="topright"/>
  <outline>
    <contour>
      <point x="492" y="-42" type="line"/>
      <point x="495" y="-41" type="line"/>
      <point x="495" y="602" type="line"/>
      <point x="826" y="602" type="line"/>
      <point x="812" y="622" type="line"/>
      <point x="-19" y="622" type="line"/>
      <point x="-5" y="602" type="line"/>
      <point x="472" y="602" type="line"/>
      <point x="472" y="508" type="line"/>
      <point x="482" y="523" type="line"/>
      <point x="362" y="490"/>
      <point x="251" y="431"/>
      <point x="135" y="348" type="curve"/>
      <point x="149" y="320" type="line"/>
      <point x="292" y="270"/>
      <point x="399" y="194"/>
      <point x="479" y="91" type="curve"/>
      <point x="482" y="115" type="line"/>
      <point x="413" y="213"/>
      <point x="303" y="288"/>
      <point x="162" y="343" type="curve"/>
      <point x="162" y="335" type="line"/>
      <point x="284" y="425"/>
      <point x="398" y="475"/>
      <point x="480" y="496" type="curve"/>
      <point x="472" y="505" type="line"/>
      <point x="472" y="104" type="line"/>
      <point x="476" y="12" type="line"/>
      <point x="432" y="84"/>
      <point x="379" y="93"/>
      <point x="343" y="93" type="curve" smooth="yes"/>
      <point x="291" y="93"/>
      <point x="243" y="74"/>
      <point x="192" y="74" type="curve" smooth="yes"/>
      <point x="115" y="74"/>
      <point x="84" y="116"/>
      <point x="84" y="196" type="curve" smooth="yes"/>
      <point x="84" y="236"/>
      <point x="92" y="263"/>
      <point x="98" y="286" type="curve"/>
      <point x="79" y="292" type="line"/>
      <point x="71" y="265"/>
      <point x="63" y="227"/>
      <point x="63" y="187" type="curve" smooth="yes"/>
      <point x="63" y="82"/>
      <point x="117" y="48"/>
      <point x="191" y="48" type="curve" smooth="yes"/>
      <point x="247" y="48"/>
      <point x="290" y="67"/>
      <point x="343" y="67" type="curve" smooth="yes"/>
      <point x="391" y="67"/>
      <point x="434" y="51"/>
      <point x="477" y="-28" type="curve"/>
    </contour>
    <contour>
      <point x="649" y="247" type="curve" smooth="yes"/>
      <point x="714" y="247"/>
      <point x="762" y="291"/>
      <point x="762" y="362" type="curve" smooth="yes"/>
      <point x="762" y="445"/>
      <point x="698" y="491"/>
      <point x="635" y="491" type="curve" smooth="yes"/>
      <point x="598" y="491"/>
      <point x="575" y="474"/>
      <point x="575" y="443" type="curve" smooth="yes"/>
      <point x="575" y="417"/>
      <point x="593" y="400"/>
      <point x="618" y="400" type="curve" smooth="yes"/>
      <point x="643" y="400"/>
      <point x="659" y="415"/>
      <point x="659" y="442" type="curve" smooth="yes"/>
      <point x="659" y="454"/>
      <point x="657" y="463"/>
      <point x="649" y="473" type="curve"/>
      <point x="645" y="466" type="line"/>
      <point x="699" y="466"/>
      <point x="742" y="427"/>
      <point x="742" y="363" type="curve" smooth="yes"/>
      <point x="742" y="316"/>
      <point x="711" y="270"/>
      <point x="649" y="270" type="curve" smooth="yes"/>
      <point x="578" y="270"/>
      <point x="495" y="341"/>
      <point x="495" y="445" type="curve"/>
      <point x="488" y="379" type="line"/>
      <point x="518" y="291"/>
      <point x="583" y="247"/>
    </contour>
  </outline>
</glyph>
<glyph name="ba-beng.blwf" format="2">
  <anchor x="0" y="0" name="_bottom.rakaar"/>
  <anchor x="-3" y="-191" name="bottom"/>
  <anchor x="0" y="-172" name="bottom.rvocalic"/>
  <outline>
    <contour>
      <point x="-3" y="-181" type="line"/>
      <point x="0" y="-180" type="line"/>
      <point x="0" y="75" type="line"/>
      <point x="-18" y="97" type="line"/>
      <point x="-82" y="75"/>
      <point x="-165" y="39"/>
      <point x="-236" y="-9" type="curve"/>
      <point x="-221" y="-42" type="line"/>
      <point x="-130" y="-60"/>
      <point x="-61" y="-104"/>
      <point x="-20" y="-168" type="curve"/>
    </contour>
    <contour>
      <point x="-23" y="-144" type="line"/>
      <point x="-18" y="-137" type="line"/>
      <point x="-58" y="-80"/>
      <point x="-129" y="-35"/>
      <point x="-209" y="-15" type="curve"/>
      <point x="-207" y="-24" type="line"/>
      <point x="-140" y="24"/>
      <point x="-59" y="54"/>
      <point x="-17" y="68" type="curve"/>
      <point x="-23" y="75" type="line"/>
    </contour>
  </outline>
</glyph>
<glyph name="bh_ba-beng" format="2">
  <advance width="652"/>
  <anchor x="442" y="-99" name="bottom"/>
  <anchor x="452" y="-60" name="bottom.rakaar"/>
  <anchor x="452" y="-104" name="bottom.rvocalic"/>
  <anchor x="442" y="-110" name="bottom.virama"/>
  <anchor x="344" y="602" name="top"/>
  <anchor x="347" y="602" name="topright"/>
  <outline>
    <contour>
      <point x="389" y="175" type="curve" smooth="yes"/>
      <point x="483" y="175"/>
      <point x="568" y="225"/>
      <point x="568" y="343" type="curve" smooth="yes"/>
      <point x="568" y="422"/>
      <point x="532" y="478"/>
      <point x="493" y="509" type="curve"/>
      <point x="448" y="440"/>
      <point x="393" y="408"/>
      <point x="332" y="414" type="curve"/>
      <point x="332" y="407" type="line"/>
      <point x="350" y="411"/>
      <point x="356" y="428"/>
      <point x="356" y="444" type="curve" smooth="yes"/>
      <point x="356" y="469"/>
      <point x="341" y="487"/>
      <point x="313" y="487" type="curve" smooth="yes"/>
      <point x="284" y="487"/>
      <point x="268" y="467"/>
      <point x="268" y="444" type="curve" smooth="yes"/>
      <point x="268" y="415"/>
      <point x="289" y="389"/>
      <point x="344" y="389" type="curve" smooth="yes"/>
      <point x="395" y="389"/>
      <point x="453" y="409"/>
      <point x="505" y="480" type="curve"/>
      <point x="489" y="482" type="line"/>
      <point x="516" y="457"/>
      <point x="546" y="421"/>
      <point x="546" y="346" type="curve" smooth="yes"/>
      <point x="546" y="250"/>
      <point x="480" y="201"/>
      <point x="385" y="201" type="curve" smooth="yes"/>
      <point x="262" y="201"/>
      <point x="150" y="293"/>
      <point x="66" y="545" type="curve"/>
      <point x="47" y="540" type="line"/>
      <point x="137" y="261"/>
      <point x="258" y="175"/>
    </contour>
    <contour>
      <point x="449" y="-113" type="line"/>
      <point x="452" y="-112" type="line"/>
      <point x="452" y="185" type="line"/>
      <point x="429" y="178" type="line"/>
      <point x="429" y="-77" type="line"/>
      <point x="437" y="-67" type="line"/>
      <point x="365" y="19"/>
      <point x="284" y="55"/>
      <point x="211" y="77" type="curve"/>
      <point x="211" y="69" type="line"/>
      <point x="299" y="131"/>
      <point x="394" y="162"/>
      <point x="450" y="177" type="curve"/>
      <point x="449" y="200" type="line"/>
      <point x="354" y="174"/>
      <point x="266" y="140"/>
      <point x="184" y="82" type="curve"/>
      <point x="198" y="54" type="line"/>
      <point x="278" y="32"/>
      <point x="359" y="-3"/>
      <point x="434" y="-99" type="curve"/>
    </contour>
    <contour>
      <point x="-5" y="602" type="line"/>
      <point x="671" y="602" type="line"/>
      <point x="657" y="622" type="line"/>
      <point x="-19" y="622" type="line"/>
    </contour>
  </outline>
</glyph>
